<?xml version="1.0" encoding="UTF-8" standalone="no"?><svg xmlns="http://www.w3.org/2000/svg" xmlns:xlink="http://www.w3.org/1999/xlink" clip-rule="evenodd" stroke-miterlimit="4.00" viewBox="0 0 1024 768"><desc>SVG generated by Keynote</desc><defs></defs><g transform="matrix(1.00, 0.00, -0.00, -1.00, 0.0, 768.0)"><path d="M 0.0 768.0 L 1024.0 768.0 L 1024.0 0.0 L 0.0 0.0 Z M 0.0 768.0 " fill="#FEFFFF"></path><image xlink:href="90EDCF397FEFC1CDE2A89A149AF841A6.png" width="299.00" height="148.00" transform="matrix(1.00, 0.00, -0.00, -1.00, 233.0, 300.0)"></image><path d="M 268.9 735.5 C 266.2 735.5 262.6 735.9 262.1 739.9 C 261.7 744.0 264.6 747.1 268.7 747.1 C 272.8 747.1 271.6 744.9 281.2 744.9 C 284.7 744.9 284.9 737.6 281.3 737.6 C 272.8 737.6 274.0 735.5 268.9 735.5 C 268.9 735.5 268.9 735.5 268.9 735.5 Z M 754.6 747.1 C 755.5 747.1 756.3 747.0 757.0 746.9 L 762.7 741.3 C 762.1 738.1 760.3 736.8 757.1 736.7 C 753.9 736.6 752.0 738.3 751.4 741.3 L 757.0 735.6 C 756.3 735.5 755.5 735.4 754.6 735.4 C 750.2 735.4 750.4 737.6 743.0 737.5 C 739.1 737.5 739.8 744.9 743.0 744.9 C 750.8 744.9 749.7 747.1 754.6 747.1 C 754.6 747.1 754.6 747.1 754.6 747.1 Z M 281.6 737.5 C 278.3 737.5 278.3 744.9 282.0 744.9 C 286.0 744.9 294.7 743.6 297.0 743.8 C 299.3 743.9 305.6 745.3 307.6 745.3 C 309.5 745.3 319.2 743.1 323.3 743.8 C 327.4 744.4 328.6 744.0 331.4 744.0 C 334.3 744.0 338.8 743.6 341.5 743.4 C 344.2 743.3 346.6 745.2 350.2 744.7 C 353.7 744.2 355.6 744.9 358.1 744.9 C 362.0 744.9 361.7 737.6 358.1 737.6 C 354.6 737.6 352.2 737.1 349.2 737.3 C 346.2 737.4 343.6 738.2 340.8 737.4 C 337.9 736.7 332.4 737.5 329.0 738.0 C 325.6 738.4 321.8 738.2 319.2 737.9 C 313.8 737.3 300.8 738.7 299.0 738.0 C 297.1 737.4 291.2 738.0 289.1 738.0 C 287.0 738.0 285.9 737.5 281.6 737.5 C 281.6 737.5 281.6 737.5 281.6 737.5 Z M 434.7 744.9 C 438.3 744.9 438.9 737.6 434.7 737.6 C 430.5 737.6 422.8 738.3 420.5 738.1 C 418.3 738.0 408.8 737.5 406.8 737.5 C 404.8 737.5 397.7 738.6 393.6 738.0 C 389.5 737.4 385.4 738.6 382.6 738.2 C 379.1 737.8 377.2 738.2 374.5 738.4 C 371.8 738.5 367.6 737.1 365.4 737.7 C 363.1 738.3 361.8 737.6 358.6 737.6 C 355.4 737.6 355.4 744.9 358.4 744.9 C 361.4 744.9 364.0 744.8 367.0 744.6 C 370.0 744.5 373.6 744.3 376.9 744.3 C 379.8 744.3 384.2 745.2 387.6 744.8 C 391.0 744.3 396.0 744.1 397.9 744.0 C 400.4 744.0 405.7 744.2 408.0 743.8 C 410.9 743.2 416.0 744.0 417.8 744.6 C 419.7 745.2 420.9 744.4 425.0 744.5 C 427.4 744.6 431.2 744.9 434.7 744.9 C 434.7 744.9 434.7 744.9 434.7 744.9 Z M 435.8 744.9 C 440.0 744.9 446.7 743.9 448.3 743.9 C 450.0 743.9 455.5 744.5 458.1 744.3 C 460.7 744.2 461.5 743.6 465.9 743.5 C 471.4 743.3 475.0 744.0 475.2 744.1 C 476.0 744.3 478.7 745.1 482.4 744.8 C 487.3 744.5 488.8 745.2 491.0 744.9 C 494.7 744.0 495.1 744.9 498.0 744.7 C 500.8 744.6 502.6 744.9 504.9 744.5 C 507.5 744.0 509.3 745.0 511.6 744.9 C 515.3 744.9 514.9 737.6 511.5 737.6 C 509.4 737.6 507.5 738.3 505.3 738.3 C 503.1 738.3 501.2 738.2 499.0 737.9 C 496.9 737.6 492.4 738.0 488.8 737.9 C 485.3 737.7 479.4 737.3 475.3 737.5 C 471.1 737.6 468.6 739.3 460.2 738.2 C 457.5 737.8 452.1 738.2 449.9 738.2 C 446.1 738.2 438.6 737.6 435.4 737.6 C 431.6 737.6 431.7 744.9 435.8 744.9 C 435.8 744.9 435.8 744.9 435.8 744.9 Z M 588.4 744.9 C 592.0 744.9 592.6 737.6 588.4 737.6 C 584.2 737.6 576.5 738.3 574.2 738.1 C 571.9 738.0 562.5 737.5 560.5 737.5 C 558.5 737.5 551.4 738.6 547.3 738.0 C 543.1 737.4 539.1 738.6 536.3 738.2 C 532.8 737.8 530.9 738.2 528.2 738.4 C 525.5 738.5 521.3 737.1 519.0 737.7 C 516.8 738.3 515.5 737.6 512.3 737.6 C 509.1 737.6 509.1 744.9 512.1 744.9 C 515.1 744.9 517.7 744.8 520.7 744.6 C 523.7 744.5 527.3 744.3 530.5 744.3 C 533.5 744.3 537.9 745.2 541.3 744.8 C 544.7 744.3 549.6 744.1 551.6 744.0 C 554.1 744.0 559.4 744.2 561.7 743.8 C 564.6 743.2 569.7 744.0 571.5 744.6 C 573.4 745.2 574.6 744.4 578.7 744.5 C 581.0 744.6 584.9 744.9 588.4 744.9 C 588.4 744.9 588.4 744.9 588.4 744.9 Z M 589.5 744.9 C 593.6 744.9 600.4 743.9 602.0 743.9 C 603.6 743.9 609.1 744.5 611.7 744.3 C 614.3 744.2 615.2 743.6 619.6 743.5 C 625.1 743.3 628.7 744.0 628.9 744.1 C 629.7 744.3 632.4 745.1 636.0 744.8 C 641.0 744.5 642.4 745.2 644.6 744.9 C 648.4 744.0 648.8 744.9 651.6 744.7 C 654.5 744.6 656.3 744.9 658.6 744.5 C 661.1 744.0 663.0 745.0 665.3 744.9 C 668.9 744.9 668.6 737.6 665.2 737.6 C 663.1 737.6 661.2 738.3 659.0 738.3 C 656.8 738.3 654.9 738.2 652.7 737.9 C 650.5 737.6 646.1 738.0 642.5 737.9 C 638.9 737.7 633.0 737.3 628.9 737.5 C 624.8 737.6 622.3 739.3 613.9 738.2 C 611.2 737.8 605.8 738.2 603.6 738.2 C 599.7 738.2 592.3 737.6 589.1 737.6 C 585.3 737.6 585.4 744.9 589.5 744.9 C 589.5 744.9 589.5 744.9 589.5 744.9 Z M 742.1 744.9 C 745.6 744.9 746.3 737.6 742.1 737.6 C 737.9 737.6 730.2 738.3 727.9 738.1 C 725.6 738.0 716.2 737.5 714.2 737.5 C 712.2 737.5 705.1 738.6 700.9 738.0 C 696.8 737.4 692.8 738.6 690.0 738.2 C 686.4 737.8 684.6 738.2 681.9 738.4 C 679.2 738.5 675.0 737.1 672.7 737.7 C 670.4 738.3 669.2 737.6 666.0 737.6 C 662.8 737.6 662.8 744.9 665.8 744.9 C 668.8 744.9 671.4 744.8 674.4 744.6 C 677.4 744.5 681.0 744.3 684.2 744.3 C 687.2 744.3 691.5 745.2 695.0 744.8 C 698.4 744.3 703.3 744.1 705.3 744.0 C 707.8 744.0 713.1 744.2 715.4 743.8 C 718.3 743.2 723.3 744.0 725.2 744.6 C 727.0 745.2 728.3 744.4 732.3 744.5 C 734.7 744.6 738.5 744.9 742.1 744.9 C 742.1 744.9 742.1 744.9 742.1 744.9 Z M 751.3 739.3 C 751.3 742.0 751.7 745.6 755.7 746.1 C 759.8 746.6 762.9 743.6 762.9 739.5 C 762.9 735.4 760.7 736.6 760.7 727.0 C 760.7 723.5 753.3 723.3 753.3 726.9 C 753.3 735.4 751.3 734.2 751.3 739.3 C 751.3 739.3 751.3 739.3 751.3 739.3 Z M 762.9 697.7 C 762.9 696.8 762.8 696.0 762.7 695.3 L 757.0 689.6 C 753.9 690.2 752.5 692.0 752.4 695.2 C 752.3 698.4 754.1 700.3 757.0 700.9 L 751.4 695.3 C 751.3 696.0 751.2 696.8 751.2 697.7 C 751.2 702.1 753.4 701.9 753.3 709.3 C 753.3 713.2 760.7 712.5 760.7 709.3 C 760.7 701.5 762.9 702.6 762.9 697.7 C 762.9 697.7 762.9 697.7 762.9 697.7 Z M 753.3 726.7 C 753.3 727.4 760.7 727.4 760.7 726.6 C 760.7 725.7 759.4 723.8 759.5 723.3 C 759.7 722.8 761.1 721.4 761.1 721.0 C 761.1 720.5 758.9 718.4 759.5 717.5 C 760.2 716.6 759.8 716.3 759.8 715.7 C 759.8 715.1 759.4 714.1 759.2 713.5 C 759.1 712.9 761.0 712.3 760.5 711.6 C 760.0 710.8 760.7 710.4 760.7 709.8 C 760.7 709.0 753.4 709.0 753.4 709.8 C 753.4 710.6 752.9 711.1 753.1 711.8 C 753.2 712.4 754.0 713.0 753.2 713.6 C 752.4 714.3 753.3 715.5 753.7 716.2 C 754.2 717.0 754.0 717.8 753.7 718.4 C 753.1 719.6 754.5 722.4 753.8 722.8 C 753.2 723.3 753.8 724.6 753.8 725.0 C 753.8 725.5 753.3 725.7 753.3 726.7 C 753.3 726.7 753.3 726.7 753.3 726.7 Z M 755.1 701.1 C 757.8 701.1 761.4 700.6 761.9 696.6 C 762.3 692.6 759.4 689.4 755.3 689.4 C 751.2 689.4 752.4 691.6 742.8 691.6 C 739.3 691.6 739.1 699.0 742.7 699.0 C 751.2 699.0 750.0 701.1 755.1 701.1 C 755.1 701.1 755.1 701.1 755.1 701.1 Z M 269.4 689.4 C 268.5 689.4 267.7 689.5 267.0 689.6 L 261.3 695.3 C 261.9 698.4 263.7 699.8 266.9 699.9 C 270.1 700.0 272.0 698.2 272.6 695.3 L 267.0 700.9 C 267.7 701.1 268.5 701.1 269.4 701.1 C 273.8 701.1 273.6 698.9 281.0 699.0 C 284.9 699.0 284.2 691.7 281.0 691.7 C 273.2 691.7 274.3 689.4 269.4 689.4 C 269.4 689.4 269.4 689.4 269.4 689.4 Z M 741.8 691.6 C 737.7 691.6 731.0 692.6 729.4 692.6 C 727.7 692.6 722.2 692.0 719.6 692.2 C 717.0 692.3 716.1 692.9 711.8 693.1 C 706.3 693.3 702.7 692.5 702.4 692.5 C 701.7 692.2 699.0 691.5 695.3 691.7 C 690.4 692.0 688.9 691.3 686.7 691.6 C 683.0 692.5 682.6 691.7 679.7 691.8 C 676.8 692.0 675.0 691.7 672.7 692.0 C 670.2 692.5 668.4 691.5 666.1 691.6 C 662.4 691.6 662.8 699.0 666.2 699.0 C 668.3 699.0 670.2 698.2 672.3 698.2 C 674.5 698.2 676.4 698.3 678.6 698.6 C 680.8 699.0 685.3 698.5 688.8 698.6 C 692.4 698.8 698.3 699.2 702.4 699.1 C 706.5 698.9 709.1 697.2 717.5 698.3 C 720.2 698.7 725.6 698.4 727.8 698.4 C 731.6 698.4 739.0 698.9 742.2 698.9 C 746.1 698.9 746.0 691.6 741.8 691.6 C 741.8 691.6 741.8 691.6 741.8 691.6 Z M 589.3 691.6 C 585.7 691.6 585.1 698.9 589.3 698.9 C 593.5 698.9 601.2 698.3 603.5 698.4 C 605.7 698.6 615.2 699.0 617.2 699.0 C 619.2 699.0 626.3 697.9 630.4 698.6 C 634.5 699.2 638.6 698.0 641.4 698.3 C 644.9 698.7 646.8 698.3 649.5 698.1 C 652.2 698.0 656.4 699.5 658.6 698.9 C 660.9 698.2 662.2 698.9 665.4 698.9 C 668.6 698.9 668.6 691.6 665.6 691.6 C 662.6 691.6 660.0 691.7 657.0 691.9 C 654.0 692.1 650.4 692.2 647.1 692.2 C 644.2 692.2 639.8 691.3 636.4 691.8 C 633.0 692.2 628.0 692.4 626.1 692.5 C 623.6 692.6 618.3 692.4 616.0 692.8 C 613.1 693.3 608.0 692.5 606.2 691.9 C 604.3 691.3 603.1 692.2 599.0 692.0 C 596.6 691.9 592.8 691.6 589.3 691.6 C 589.3 691.6 589.3 691.6 589.3 691.6 Z M 588.2 691.6 C 584.0 691.6 577.3 692.6 575.7 692.6 C 574.0 692.6 568.5 692.0 565.9 692.2 C 563.3 692.3 562.5 692.9 558.1 693.1 C 552.6 693.3 549.0 692.5 548.8 692.5 C 548.0 692.2 545.3 691.5 541.6 691.7 C 536.7 692.0 535.2 691.3 533.0 691.6 C 529.3 692.5 528.9 691.7 526.0 691.8 C 523.2 692.0 521.4 691.7 519.1 692.0 C 516.5 692.5 514.7 691.5 512.4 691.6 C 508.7 691.6 509.1 699.0 512.5 699.0 C 514.6 699.0 516.5 698.2 518.7 698.2 C 520.9 698.2 522.8 698.3 525.0 698.6 C 527.1 699.0 531.6 698.5 535.2 698.6 C 538.7 698.8 544.6 699.2 548.7 699.1 C 552.9 698.9 555.4 697.2 563.8 698.3 C 566.5 698.7 571.9 698.4 574.1 698.4 C 577.9 698.4 585.4 698.9 588.6 698.9 C 592.4 698.9 592.3 691.6 588.2 691.6 C 588.2 691.6 588.2 691.6 588.2 691.6 Z M 435.6 691.6 C 432.0 691.6 431.4 698.9 435.6 698.9 C 439.8 698.9 447.5 698.3 449.8 698.4 C 452.1 698.6 461.5 699.0 463.5 699.0 C 465.5 699.0 472.6 697.9 476.7 698.6 C 480.9 699.2 484.9 698.0 487.7 698.3 C 491.2 698.7 493.1 698.3 495.8 698.1 C 498.5 698.0 502.7 699.5 505.0 698.9 C 507.2 698.2 508.5 698.9 511.7 698.9 C 514.9 698.9 514.9 691.6 511.9 691.6 C 508.9 691.6 506.3 691.7 503.3 691.9 C 500.3 692.1 496.7 692.2 493.5 692.2 C 490.5 692.2 486.1 691.3 482.7 691.8 C 479.3 692.2 474.4 692.4 472.4 692.5 C 469.9 692.6 464.6 692.4 462.3 692.8 C 459.4 693.3 454.3 692.5 452.5 691.9 C 450.6 691.3 449.4 692.2 445.3 692.0 C 443.0 691.9 439.1 691.6 435.6 691.6 C 435.6 691.6 435.6 691.6 435.6 691.6 Z M 434.5 691.6 C 430.4 691.6 423.6 692.6 422.0 692.6 C 420.4 692.6 414.9 692.0 412.3 692.2 C 409.7 692.3 408.8 692.9 404.4 693.1 C 398.9 693.3 395.3 692.5 395.1 692.5 C 394.3 692.2 391.6 691.5 388.0 691.7 C 383.0 692.0 381.6 691.3 379.4 691.6 C 375.6 692.5 375.2 691.7 372.4 691.8 C 369.5 692.0 367.7 691.7 365.4 692.0 C 362.9 692.5 361.0 691.5 358.7 691.6 C 355.1 691.6 355.4 699.0 358.8 699.0 C 360.9 699.0 362.8 698.2 365.0 698.2 C 367.2 698.2 369.1 698.3 371.3 698.6 C 373.5 699.0 377.9 698.5 381.5 698.6 C 385.1 698.8 391.0 699.2 395.1 699.1 C 399.2 698.9 401.7 697.2 410.1 698.3 C 412.8 698.7 418.2 698.4 420.4 698.4 C 424.3 698.4 431.7 698.9 434.9 698.9 C 438.7 698.9 438.6 691.6 434.5 691.6 C 434.5 691.6 434.5 691.6 434.5 691.6 Z M 281.9 691.6 C 278.4 691.6 277.7 698.9 281.9 698.9 C 286.1 698.9 293.8 698.3 296.1 698.4 C 298.4 698.6 307.8 699.0 309.8 699.0 C 311.8 699.0 318.9 697.9 323.1 698.6 C 327.2 699.2 331.2 698.0 334.0 698.3 C 337.6 698.7 339.4 698.3 342.1 698.1 C 344.8 698.0 349.0 699.5 351.3 698.9 C 353.6 698.2 354.8 698.9 358.0 698.9 C 361.2 698.9 361.2 691.6 358.2 691.6 C 355.2 691.6 352.6 691.7 349.6 691.9 C 346.6 692.1 343.0 692.2 339.8 692.2 C 336.8 692.2 332.5 691.3 329.0 691.8 C 325.6 692.2 320.7 692.4 318.7 692.5 C 316.2 692.6 310.9 692.4 308.6 692.8 C 305.7 693.3 300.7 692.5 298.8 691.9 C 297.0 691.3 295.7 692.2 291.7 692.0 C 289.3 691.9 285.5 691.6 281.9 691.6 C 281.9 691.6 281.9 691.6 281.9 691.6 Z M 272.7 697.2 C 272.7 694.5 272.3 690.9 268.3 690.4 C 264.2 690.0 261.1 692.9 261.1 697.0 C 261.1 701.1 263.3 699.9 263.3 709.5 C 263.3 713.0 270.7 713.2 270.7 709.6 C 270.7 701.1 272.7 702.3 272.7 697.2 C 272.7 697.2 272.7 697.2 272.7 697.2 Z M 261.1 738.8 C 261.1 743.8 263.0 745.7 266.9 745.9 C 270.9 746.0 272.8 743.2 272.8 738.8 C 272.8 734.4 270.6 734.6 270.7 727.3 C 270.7 723.3 263.3 724.0 263.3 727.2 C 263.3 735.0 261.1 733.9 261.1 738.8 C 261.1 738.8 261.1 738.8 261.1 738.8 Z M 270.7 709.8 C 270.7 709.1 263.3 709.1 263.3 709.9 C 263.3 710.8 264.6 712.7 264.5 713.2 C 264.3 713.7 262.9 715.1 262.9 715.6 C 262.9 716.0 265.1 718.1 264.5 719.0 C 263.8 720.0 264.2 720.2 264.2 720.8 C 264.2 721.5 264.6 722.5 264.8 723.1 C 264.9 723.7 263.0 724.2 263.5 725.0 C 264.0 725.7 263.3 726.2 263.3 726.7 C 263.3 727.6 270.6 727.5 270.6 726.7 C 270.6 725.9 271.1 725.4 270.9 724.7 C 270.8 724.1 270.0 723.5 270.8 722.9 C 271.6 722.3 270.7 721.1 270.3 720.3 C 269.8 719.6 270.0 718.7 270.3 718.1 C 270.9 716.9 269.5 714.1 270.2 713.7 C 270.8 713.3 270.2 712.0 270.2 711.5 C 270.2 711.0 270.7 710.8 270.7 709.8 C 270.7 709.8 270.7 709.8 270.7 709.8 Z M 270.7 709.8 " fill="#4E8F00"></path><g><clipPath id="clip-136"><path d="M 270.5 698.8 L 753.5 698.8 L 753.5 737.7 L 270.5 737.7 Z M 270.5 698.8 "></path></clipPath><g clip-path="url(#clip-136)"><text xml:space="preserve" font-family="AndaleMono" font-size="23.0" fill="#000000" transform="matrix(1.00, 0.00, -0.00, -1.00, 312.0, 710.0)">M</text><text xml:space="preserve" font-family="AndaleMono" font-size="23.0" fill="#000000" transform="matrix(1.00, 0.00, -0.00, -1.00, 325.8, 710.0)">O</text><text xml:space="preserve" font-family="AndaleMono" font-size="23.0" fill="#000000" transform="matrix(1.00, 0.00, -0.00, -1.00, 339.6, 710.0)">D</text><text xml:space="preserve" font-family="AndaleMono" font-size="23.0" fill="#000000" transform="matrix(1.00, 0.00, -0.00, -1.00, 353.4, 710.0)">E</text><text xml:space="preserve" font-family="AndaleMono" font-size="23.0" fill="#000000" transform="matrix(1.00, 0.00, -0.00, -1.00, 367.2, 710.0)">L</text><text xml:space="preserve" font-family="AndaleMono" font-size="23.0" fill="#000000" transform="matrix(1.00, 0.00, -0.00, -1.00, 381.0, 710.0)">O</text><text xml:space="preserve" font-family="AndaleMono" font-size="23.0" fill="#000000" transform="matrix(1.00, 0.00, -0.00, -1.00, 394.8, 710.0)">S</text><text xml:space="preserve" font-family="AndaleMono" font-size="23.0" fill="#000000" transform="matrix(1.00, 0.00, -0.00, -1.00, 408.6, 710.0)"> </text><text xml:space="preserve" font-family="AndaleMono" font-size="23.0" fill="#000000" transform="matrix(1.00, 0.00, -0.00, -1.00, 422.4, 710.0)">C</text><text xml:space="preserve" font-family="AndaleMono" font-size="23.0" fill="#000000" transform="matrix(1.00, 0.00, -0.00, -1.00, 436.2, 710.0)">O</text><text xml:space="preserve" font-family="AndaleMono" font-size="23.0" fill="#000000" transform="matrix(1.00, 0.00, -0.00, -1.00, 450.0, 710.0)">M</text><text xml:space="preserve" font-family="AndaleMono" font-size="23.0" fill="#000000" transform="matrix(1.00, 0.00, -0.00, -1.00, 463.9, 710.0)">U</text><text xml:space="preserve" font-family="AndaleMono" font-size="23.0" fill="#000000" transform="matrix(1.00, 0.00, -0.00, -1.00, 477.7, 710.0)">N</text><text xml:space="preserve" font-family="AndaleMono" font-size="23.0" fill="#000000" transform="matrix(1.00, 0.00, -0.00, -1.00, 491.5, 710.0)">E</text><text xml:space="preserve" font-family="AndaleMono" font-size="23.0" fill="#000000" transform="matrix(1.00, 0.00, -0.00, -1.00, 505.3, 710.0)">S</text><text xml:space="preserve" font-family="AndaleMono" font-size="23.0" fill="#000000" transform="matrix(1.00, 0.00, -0.00, -1.00, 519.1, 710.0)"> </text><text xml:space="preserve" font-family="AndaleMono" font-size="23.0" fill="#000000" transform="matrix(1.00, 0.00, -0.00, -1.00, 532.9, 710.0)">D</text><text xml:space="preserve" font-family="AndaleMono" font-size="23.0" fill="#000000" transform="matrix(1.00, 0.00, -0.00, -1.00, 546.7, 710.0)">E</text><text xml:space="preserve" font-family="AndaleMono" font-size="23.0" fill="#000000" transform="matrix(1.00, 0.00, -0.00, -1.00, 560.5, 710.0)"> </text><text xml:space="preserve" font-family="AndaleMono" font-size="23.0" fill="#000000" transform="matrix(1.00, 0.00, -0.00, -1.00, 574.3, 710.0)">B</text><text xml:space="preserve" font-family="AndaleMono" font-size="23.0" fill="#000000" transform="matrix(1.00, 0.00, -0.00, -1.00, 588.1, 710.0)">A</text><text xml:space="preserve" font-family="AndaleMono" font-size="23.0" fill="#000000" transform="matrix(1.00, 0.00, -0.00, -1.00, 601.9, 710.0)">S</text><text xml:space="preserve" font-family="AndaleMono" font-size="23.0" fill="#000000" transform="matrix(1.00, 0.00, -0.00, -1.00, 615.7, 710.0)">E</text><text xml:space="preserve" font-family="AndaleMono" font-size="23.0" fill="#000000" transform="matrix(1.00, 0.00, -0.00, -1.00, 629.5, 710.0)"> </text><text xml:space="preserve" font-family="AndaleMono" font-size="23.0" fill="#000000" transform="matrix(1.00, 0.00, -0.00, -1.00, 643.3, 710.0)">D</text><text xml:space="preserve" font-family="AndaleMono" font-size="23.0" fill="#000000" transform="matrix(1.00, 0.00, -0.00, -1.00, 657.1, 710.0)">A</text><text xml:space="preserve" font-family="AndaleMono" font-size="23.0" fill="#000000" transform="matrix(1.00, 0.00, -0.00, -1.00, 670.9, 710.0)">T</text><text xml:space="preserve" font-family="AndaleMono" font-size="23.0" fill="#000000" transform="matrix(1.00, 0.00, -0.00, -1.00, 684.7, 710.0)">O</text><text xml:space="preserve" font-family="AndaleMono" font-size="23.0" fill="#000000" transform="matrix(1.00, 0.00, -0.00, -1.00, 698.5, 710.0)">S</text></g></g><text xml:space="preserve" font-family="AndaleMono" font-size="25.0" fill="#000000" transform="matrix(1.00, 0.00, -0.00, -1.00, 504.0, 660.0)">4</text><text xml:space="preserve" font-family="AndaleMono" font-size="25.0" fill="#000000" transform="matrix(1.00, 0.00, -0.00, -1.00, 519.0, 660.0)"> </text><text xml:space="preserve" font-family="AndaleMono" font-size="25.0" fill="#000000" transform="matrix(1.00, 0.00, -0.00, -1.00, 347.0, 632.0)">M</text><text xml:space="preserve" font-family="AndaleMono" font-size="25.0" fill="#000000" transform="matrix(1.00, 0.00, -0.00, -1.00, 362.0, 632.0)">o</text><text xml:space="preserve" font-family="AndaleMono" font-size="25.0" fill="#000000" transform="matrix(1.00, 0.00, -0.00, -1.00, 377.0, 632.0)">d</text><text xml:space="preserve" font-family="AndaleMono" font-size="25.0" fill="#000000" transform="matrix(1.00, 0.00, -0.00, -1.00, 392.0, 632.0)">e</text><text xml:space="preserve" font-family="AndaleMono" font-size="25.0" fill="#000000" transform="matrix(1.00, 0.00, -0.00, -1.00, 407.0, 632.0)">l</text><text xml:space="preserve" font-family="AndaleMono" font-size="25.0" fill="#000000" transform="matrix(1.00, 0.00, -0.00, -1.00, 422.0, 632.0)">o</text><text xml:space="preserve" font-family="AndaleMono" font-size="25.0" fill="#000000" transform="matrix(1.00, 0.00, -0.00, -1.00, 437.0, 632.0)">s</text><text xml:space="preserve" font-family="AndaleMono" font-size="25.0" fill="#000000" transform="matrix(1.00, 0.00, -0.00, -1.00, 452.0, 632.0)"> </text><text xml:space="preserve" font-family="AndaleMono" font-size="25.0" fill="#000000" transform="matrix(1.00, 0.00, -0.00, -1.00, 467.0, 632.0)">m</text><text xml:space="preserve" font-family="AndaleMono" font-size="25.0" fill="#000000" transform="matrix(1.00, 0.00, -0.00, -1.00, 482.0, 632.0)">รก</text><text xml:space="preserve" font-family="AndaleMono" font-size="25.0" fill="#000000" transform="matrix(1.00, 0.00, -0.00, -1.00, 497.0, 632.0)">s</text><text xml:space="preserve" font-family="AndaleMono" font-size="25.0" fill="#000000" transform="matrix(1.00, 0.00, -0.00, -1.00, 512.1, 632.0)"> </text><text xml:space="preserve" font-family="AndaleMono" font-size="25.0" fill="#000000" transform="matrix(1.00, 0.00, -0.00, -1.00, 527.1, 632.0)">u</text><text xml:space="preserve" font-family="AndaleMono" font-size="25.0" fill="#000000" transform="matrix(1.00, 0.00, -0.00, -1.00, 542.1, 632.0)">t</text><text xml:space="preserve" font-family="AndaleMono" font-size="25.0" fill="#000000" transform="matrix(1.00, 0.00, -0.00, -1.00, 557.1, 632.0)">i</text><text xml:space="preserve" font-family="AndaleMono" font-size="25.0" fill="#000000" transform="matrix(1.00, 0.00, -0.00, -1.00, 572.1, 632.0)">l</text><text xml:space="preserve" font-family="AndaleMono" font-size="25.0" fill="#000000" transform="matrix(1.00, 0.00, -0.00, -1.00, 587.1, 632.0)">i</text><text xml:space="preserve" font-family="AndaleMono" font-size="25.0" fill="#000000" transform="matrix(1.00, 0.00, -0.00, -1.00, 602.1, 632.0)">z</text><text xml:space="preserve" font-family="AndaleMono" font-size="25.0" fill="#000000" transform="matrix(1.00, 0.00, -0.00, -1.00, 617.1, 632.0)">a</text><text xml:space="preserve" font-family="AndaleMono" font-size="25.0" fill="#000000" transform="matrix(1.00, 0.00, -0.00, -1.00, 632.1, 632.0)">d</text><text xml:space="preserve" font-family="AndaleMono" font-size="25.0" fill="#000000" transform="matrix(1.00, 0.00, -0.00, -1.00, 647.1, 632.0)">o</text><text xml:space="preserve" font-family="AndaleMono" font-size="25.0" fill="#000000" transform="matrix(1.00, 0.00, -0.00, -1.00, 662.1, 632.0)">s</text><text xml:space="preserve" font-family="AndaleMono" font-size="23.0" fill="#000000" transform="matrix(1.00, 0.00, -0.00, -1.00, 607.0, 488.0)">M</text><text xml:space="preserve" font-family="AndaleMono" font-size="23.0" fill="#000000" transform="matrix(1.00, 0.00, -0.00, -1.00, 620.8, 488.0)">O</text><text xml:space="preserve" font-family="AndaleMono" font-size="23.0" fill="#000000" transform="matrix(1.00, 0.00, -0.00, -1.00, 634.6, 488.0)">D</text><text xml:space="preserve" font-family="AndaleMono" font-size="23.0" fill="#000000" transform="matrix(1.00, 0.00, -0.00, -1.00, 648.4, 488.0)">E</text><text xml:space="preserve" font-family="AndaleMono" font-size="23.0" fill="#000000" transform="matrix(1.00, 0.00, -0.00, -1.00, 662.2, 488.0)">L</text><text xml:space="preserve" font-family="AndaleMono" font-size="23.0" fill="#000000" transform="matrix(1.00, 0.00, -0.00, -1.00, 676.0, 488.0)">O</text><text xml:space="preserve" font-family="AndaleMono" font-size="23.0" fill="#000000" transform="matrix(1.00, 0.00, -0.00, -1.00, 689.8, 488.0)"> </text><text xml:space="preserve" font-family="AndaleMono" font-size="23.0" fill="#000000" transform="matrix(1.00, 0.00, -0.00, -1.00, 573.0, 462.0)">O</text><text xml:space="preserve" font-family="AndaleMono" font-size="23.0" fill="#000000" transform="matrix(1.00, 0.00, -0.00, -1.00, 586.8, 462.0)">R</text><text xml:space="preserve" font-family="AndaleMono" font-size="23.0" fill="#000000" transform="matrix(1.00, 0.00, -0.00, -1.00, 600.6, 462.0)">I</text><text xml:space="preserve" font-family="AndaleMono" font-size="23.0" fill="#000000" transform="matrix(1.00, 0.00, -0.00, -1.00, 614.4, 462.0)">E</text><text xml:space="preserve" font-family="AndaleMono" font-size="23.0" fill="#000000" transform="matrix(1.00, 0.00, -0.00, -1.00, 628.2, 462.0)">N</text><text xml:space="preserve" font-family="AndaleMono" font-size="23.0" fill="#000000" transform="matrix(1.00, 0.00, -0.00, -1.00, 642.0, 462.0)">T</text><text xml:space="preserve" font-family="AndaleMono" font-size="23.0" fill="#000000" transform="matrix(1.00, 0.00, -0.00, -1.00, 655.8, 462.0)">A</text><text xml:space="preserve" font-family="AndaleMono" font-size="23.0" fill="#000000" transform="matrix(1.00, 0.00, -0.00, -1.00, 669.6, 462.0)">D</text><text xml:space="preserve" font-family="AndaleMono" font-size="23.0" fill="#000000" transform="matrix(1.00, 0.00, -0.00, -1.00, 683.4, 462.0)">O</text><text xml:space="preserve" font-family="AndaleMono" font-size="23.0" fill="#000000" transform="matrix(1.00, 0.00, -0.00, -1.00, 697.2, 462.0)"> </text><text xml:space="preserve" font-family="AndaleMono" font-size="23.0" fill="#000000" transform="matrix(1.00, 0.00, -0.00, -1.00, 711.0, 462.0)">A</text><text xml:space="preserve" font-family="AndaleMono" font-size="23.0" fill="#000000" transform="matrix(1.00, 0.00, -0.00, -1.00, 724.9, 462.0)"> </text><text xml:space="preserve" font-family="AndaleMono" font-size="23.0" fill="#000000" transform="matrix(1.00, 0.00, -0.00, -1.00, 600.0, 436.0)">O</text><text xml:space="preserve" font-family="AndaleMono" font-size="23.0" fill="#000000" transform="matrix(1.00, 0.00, -0.00, -1.00, 613.8, 436.0)">B</text><text xml:space="preserve" font-family="AndaleMono" font-size="23.0" fill="#000000" transform="matrix(1.00, 0.00, -0.00, -1.00, 627.6, 436.0)">J</text><text xml:space="preserve" font-family="AndaleMono" font-size="23.0" fill="#000000" transform="matrix(1.00, 0.00, -0.00, -1.00, 641.4, 436.0)">E</text><text xml:space="preserve" font-family="AndaleMono" font-size="23.0" fill="#000000" transform="matrix(1.00, 0.00, -0.00, -1.00, 655.2, 436.0)">T</text><text xml:space="preserve" font-family="AndaleMono" font-size="23.0" fill="#000000" transform="matrix(1.00, 0.00, -0.00, -1.00, 669.0, 436.0)">O</text><text xml:space="preserve" font-family="AndaleMono" font-size="23.0" fill="#000000" transform="matrix(1.00, 0.00, -0.00, -1.00, 682.8, 436.0)">S</text><text xml:space="preserve" font-family="AndaleMono" font-size="23.0" fill="#000000" transform="matrix(1.00, 0.00, -0.00, -1.00, 835.0, 499.0)">M</text><text xml:space="preserve" font-family="AndaleMono" font-size="23.0" fill="#000000" transform="matrix(1.00, 0.00, -0.00, -1.00, 848.8, 499.0)">O</text><text xml:space="preserve" font-family="AndaleMono" font-size="23.0" fill="#000000" transform="matrix(1.00, 0.00, -0.00, -1.00, 862.6, 499.0)">D</text><text xml:space="preserve" font-family="AndaleMono" font-size="23.0" fill="#000000" transform="matrix(1.00, 0.00, -0.00, -1.00, 876.4, 499.0)">E</text><text xml:space="preserve" font-family="AndaleMono" font-size="23.0" fill="#000000" transform="matrix(1.00, 0.00, -0.00, -1.00, 890.2, 499.0)">L</text><text xml:space="preserve" font-family="AndaleMono" font-size="23.0" fill="#000000" transform="matrix(1.00, 0.00, -0.00, -1.00, 904.0, 499.0)">O</text><text xml:space="preserve" font-family="AndaleMono" font-size="23.0" fill="#000000" transform="matrix(1.00, 0.00, -0.00, -1.00, 917.8, 499.0)"> </text><text xml:space="preserve" font-family="AndaleMono" font-size="23.0" fill="#000000" transform="matrix(1.00, 0.00, -0.00, -1.00, 821.0, 473.0)">O</text><text xml:space="preserve" font-family="AndaleMono" font-size="23.0" fill="#000000" transform="matrix(1.00, 0.00, -0.00, -1.00, 834.8, 473.0)">B</text><text xml:space="preserve" font-family="AndaleMono" font-size="23.0" fill="#000000" transform="matrix(1.00, 0.00, -0.00, -1.00, 848.6, 473.0)">J</text><text xml:space="preserve" font-family="AndaleMono" font-size="23.0" fill="#000000" transform="matrix(1.00, 0.00, -0.00, -1.00, 862.4, 473.0)">E</text><text xml:space="preserve" font-family="AndaleMono" font-size="23.0" fill="#000000" transform="matrix(1.00, 0.00, -0.00, -1.00, 876.2, 473.0)">T</text><text xml:space="preserve" font-family="AndaleMono" font-size="23.0" fill="#000000" transform="matrix(1.00, 0.00, -0.00, -1.00, 890.0, 473.0)">O</text><text xml:space="preserve" font-family="AndaleMono" font-size="23.0" fill="#000000" transform="matrix(1.00, 0.00, -0.00, -1.00, 903.8, 473.0)"> </text><text xml:space="preserve" font-family="AndaleMono" font-size="23.0" fill="#000000" transform="matrix(1.00, 0.00, -0.00, -1.00, 917.6, 473.0)">-</text><text xml:space="preserve" font-family="AndaleMono" font-size="23.0" fill="#000000" transform="matrix(1.00, 0.00, -0.00, -1.00, 931.4, 473.0)"> </text><text xml:space="preserve" font-family="AndaleMono" font-size="23.0" fill="#000000" transform="matrix(1.00, 0.00, -0.00, -1.00, 807.0, 447.0)">R</text><text xml:space="preserve" font-family="AndaleMono" font-size="23.0" fill="#000000" transform="matrix(1.00, 0.00, -0.00, -1.00, 820.8, 447.0)">E</text><text xml:space="preserve" font-family="AndaleMono" font-size="23.0" fill="#000000" transform="matrix(1.00, 0.00, -0.00, -1.00, 834.6, 447.0)">L</text><text xml:space="preserve" font-family="AndaleMono" font-size="23.0" fill="#000000" transform="matrix(1.00, 0.00, -0.00, -1.00, 848.4, 447.0)">A</text><text xml:space="preserve" font-family="AndaleMono" font-size="23.0" fill="#000000" transform="matrix(1.00, 0.00, -0.00, -1.00, 862.2, 447.0)">C</text><text xml:space="preserve" font-family="AndaleMono" font-size="23.0" fill="#000000" transform="matrix(1.00, 0.00, -0.00, -1.00, 876.0, 447.0)">I</text><text xml:space="preserve" font-family="AndaleMono" font-size="23.0" fill="#000000" transform="matrix(1.00, 0.00, -0.00, -1.00, 889.8, 447.0)">O</text><text xml:space="preserve" font-family="AndaleMono" font-size="23.0" fill="#000000" transform="matrix(1.00, 0.00, -0.00, -1.00, 903.6, 447.0)">N</text><text xml:space="preserve" font-family="AndaleMono" font-size="23.0" fill="#000000" transform="matrix(1.00, 0.00, -0.00, -1.00, 917.4, 447.0)">A</text><text xml:space="preserve" font-family="AndaleMono" font-size="23.0" fill="#000000" transform="matrix(1.00, 0.00, -0.00, -1.00, 931.2, 447.0)">L</text><text xml:space="preserve" font-family="Helvetica-Bold" font-weight="bold" font-size="36.0" fill="#000000" transform="matrix(1.00, 0.00, -0.00, -1.00, 639.0, 522.0)">3</text><text xml:space="preserve" font-family="Helvetica-Bold" font-weight="bold" font-size="36.0" fill="#000000" transform="matrix(1.00, 0.00, -0.00, -1.00, 866.0, 522.0)">4</text><text xml:space="preserve" font-family="AndaleMono" font-size="23.0" fill="#000000" transform="matrix(1.00, 0.00, -0.00, -1.00, 103.0, 501.0)">M</text><text xml:space="preserve" font-family="AndaleMono" font-size="23.0" fill="#000000" transform="matrix(1.00, 0.00, -0.00, -1.00, 116.8, 501.0)">O</text><text xml:space="preserve" font-family="AndaleMono" font-size="23.0" fill="#000000" transform="matrix(1.00, 0.00, -0.00, -1.00, 130.6, 501.0)">D</text><text xml:space="preserve" font-family="AndaleMono" font-size="23.0" fill="#000000" transform="matrix(1.00, 0.00, -0.00, -1.00, 144.4, 501.0)">E</text><text xml:space="preserve" font-family="AndaleMono" font-size="23.0" fill="#000000" transform="matrix(1.00, 0.00, -0.00, -1.00, 158.2, 501.0)">L</text><text xml:space="preserve" font-family="AndaleMono" font-size="23.0" fill="#000000" transform="matrix(1.00, 0.00, -0.00, -1.00, 172.0, 501.0)">O</text><text xml:space="preserve" font-family="AndaleMono" font-size="23.0" fill="#000000" transform="matrix(1.00, 0.00, -0.00, -1.00, 185.8, 501.0)"> </text><text xml:space="preserve" font-family="AndaleMono" font-size="23.0" fill="#000000" transform="matrix(1.00, 0.00, -0.00, -1.00, 83.0, 475.0)">E</text><text xml:space="preserve" font-family="AndaleMono" font-size="23.0" fill="#000000" transform="matrix(1.00, 0.00, -0.00, -1.00, 96.8, 475.0)">N</text><text xml:space="preserve" font-family="AndaleMono" font-size="23.0" fill="#000000" transform="matrix(1.00, 0.00, -0.00, -1.00, 110.6, 475.0)">T</text><text xml:space="preserve" font-family="AndaleMono" font-size="23.0" fill="#000000" transform="matrix(1.00, 0.00, -0.00, -1.00, 124.4, 475.0)">I</text><text xml:space="preserve" font-family="AndaleMono" font-size="23.0" fill="#000000" transform="matrix(1.00, 0.00, -0.00, -1.00, 138.2, 475.0)">D</text><text xml:space="preserve" font-family="AndaleMono" font-size="23.0" fill="#000000" transform="matrix(1.00, 0.00, -0.00, -1.00, 152.0, 475.0)">A</text><text xml:space="preserve" font-family="AndaleMono" font-size="23.0" fill="#000000" transform="matrix(1.00, 0.00, -0.00, -1.00, 165.8, 475.0)">D</text><text xml:space="preserve" font-family="AndaleMono" font-size="23.0" fill="#000000" transform="matrix(1.00, 0.00, -0.00, -1.00, 179.6, 475.0)"> </text><text xml:space="preserve" font-family="AndaleMono" font-size="23.0" fill="#000000" transform="matrix(1.00, 0.00, -0.00, -1.00, 193.4, 475.0)">-</text><text xml:space="preserve" font-family="AndaleMono" font-size="23.0" fill="#000000" transform="matrix(1.00, 0.00, -0.00, -1.00, 207.2, 475.0)"> </text><text xml:space="preserve" font-family="AndaleMono" font-size="23.0" fill="#000000" transform="matrix(1.00, 0.00, -0.00, -1.00, 90.0, 449.0)">R</text><text xml:space="preserve" font-family="AndaleMono" font-size="23.0" fill="#000000" transform="matrix(1.00, 0.00, -0.00, -1.00, 103.8, 449.0)">E</text><text xml:space="preserve" font-family="AndaleMono" font-size="23.0" fill="#000000" transform="matrix(1.00, 0.00, -0.00, -1.00, 117.6, 449.0)">L</text><text xml:space="preserve" font-family="AndaleMono" font-size="23.0" fill="#000000" transform="matrix(1.00, 0.00, -0.00, -1.00, 131.4, 449.0)">A</text><text xml:space="preserve" font-family="AndaleMono" font-size="23.0" fill="#000000" transform="matrix(1.00, 0.00, -0.00, -1.00, 145.2, 449.0)">C</text><text xml:space="preserve" font-family="AndaleMono" font-size="23.0" fill="#000000" transform="matrix(1.00, 0.00, -0.00, -1.00, 159.0, 449.0)">I</text><text xml:space="preserve" font-family="AndaleMono" font-size="23.0" fill="#000000" transform="matrix(1.00, 0.00, -0.00, -1.00, 172.8, 449.0)">ร</text><text xml:space="preserve" font-family="AndaleMono" font-size="23.0" fill="#000000" transform="matrix(1.00, 0.00, -0.00, -1.00, 186.6, 449.0)">N</text><text xml:space="preserve" font-family="AndaleMono" font-size="23.0" fill="#000000" transform="matrix(1.00, 0.00, -0.00, -1.00, 200.4, 449.0)"> </text><text xml:space="preserve" font-family="AndaleMono" font-size="23.0" fill="#000000" transform="matrix(1.00, 0.00, -0.00, -1.00, 110.0, 423.0)">(</text><text xml:space="preserve" font-family="AndaleMono" font-size="23.0" fill="#000000" transform="matrix(1.00, 0.00, -0.00, -1.00, 123.8, 423.0)">E</text><text xml:space="preserve" font-family="AndaleMono" font-size="23.0" fill="#000000" transform="matrix(1.00, 0.00, -0.00, -1.00, 137.6, 423.0)">/</text><text xml:space="preserve" font-family="AndaleMono" font-size="23.0" fill="#000000" transform="matrix(1.00, 0.00, -0.00, -1.00, 151.4, 423.0)">R</text><text xml:space="preserve" font-family="AndaleMono" font-size="23.0" fill="#000000" transform="matrix(1.00, 0.00, -0.00, -1.00, 165.2, 423.0)">)</text><text xml:space="preserve" font-family="Helvetica-Bold" font-weight="bold" font-size="36.0" fill="#000000" transform="matrix(1.00, 0.00, -0.00, -1.00, 132.0, 522.0)">1</text><image xlink:href="1B8A12C578A8CB125F0FF7F6F97EDD14.png" width="413.00" height="202.00" transform="matrix(1.00, 0.00, -0.00, -1.00, 137.4, 685.0)"></image><path d="M 201.7 559.4 C 199.9 559.2 197.4 559.1 196.7 561.7 C 196.0 564.3 197.6 566.7 200.3 567.1 C 203.0 567.5 202.5 565.9 208.8 566.9 C 211.1 567.2 212.0 562.4 209.6 562.1 C 204.0 561.2 205.0 560.0 201.7 559.4 C 201.7 559.4 201.7 559.4 201.7 559.4 Z M 500.5 612.9 C 503.7 613.4 505.2 612.4 505.7 609.9 C 506.2 607.2 504.5 605.7 501.6 605.2 C 498.7 604.8 498.6 606.3 493.8 605.5 C 491.2 605.1 490.9 610.0 493.0 610.3 C 498.2 611.1 497.2 612.5 500.5 612.9 C 500.5 612.9 500.5 612.9 500.5 612.9 Z M 209.8 562.1 C 207.4 561.7 206.6 566.6 209.4 567.0 C 212.3 567.4 218.9 567.6 220.5 567.9 C 222.2 568.3 226.7 569.9 228.2 570.1 C 229.7 570.4 237.0 570.0 240.0 570.9 C 243.0 571.8 243.9 571.7 246.0 572.0 C 248.1 572.3 251.4 572.5 253.4 572.7 C 255.5 572.9 257.1 574.5 259.7 574.5 C 262.4 574.6 263.7 575.3 265.5 575.6 C 268.4 576.0 269.0 571.2 266.3 570.8 C 263.7 570.4 262.0 569.8 259.7 569.5 C 257.5 569.3 255.5 569.5 253.5 568.7 C 251.5 567.9 247.4 567.8 244.8 567.7 C 242.2 567.6 239.5 567.1 237.5 566.6 C 233.6 565.6 223.9 565.0 222.6 564.4 C 221.3 563.8 216.9 563.5 215.3 563.3 C 213.8 563.0 213.0 562.6 209.8 562.1 C 209.8 562.1 209.8 562.1 209.8 562.1 Z M 322.2 584.2 C 324.8 584.6 326.0 579.9 322.9 579.4 C 319.8 578.9 314.0 578.5 312.4 578.1 C 310.7 577.8 303.7 576.4 302.3 576.2 C 300.8 576.0 295.4 575.9 292.5 575.0 C 289.5 574.1 286.4 574.5 284.3 573.9 C 281.8 573.3 280.3 573.3 278.3 573.1 C 276.3 572.9 273.4 571.5 271.7 571.6 C 269.9 571.8 269.0 571.2 266.7 570.8 C 264.3 570.4 263.6 575.3 265.8 575.6 C 268.0 575.9 269.9 576.2 272.2 576.4 C 274.4 576.6 277.1 577.0 279.5 577.3 C 281.6 577.7 284.8 578.7 287.4 578.8 C 289.9 578.9 293.6 579.3 295.1 579.5 C 296.9 579.7 300.8 580.5 302.5 580.4 C 304.7 580.4 308.4 581.5 309.7 582.1 C 311.0 582.7 312.0 582.3 315.0 582.9 C 316.7 583.2 319.5 583.8 322.2 584.2 C 322.2 584.2 322.2 584.2 322.2 584.2 Z M 323.0 584.4 C 326.0 584.8 331.1 584.9 332.3 585.1 C 333.5 585.3 337.5 586.3 339.4 586.5 C 341.4 586.7 342.1 586.4 345.3 586.8 C 349.4 587.3 352.0 588.2 352.2 588.2 C 352.7 588.5 354.6 589.3 357.3 589.5 C 361.0 589.9 362.0 590.5 363.7 590.6 C 366.5 590.4 366.7 591.0 368.9 591.2 C 371.0 591.5 372.3 591.9 374.0 591.9 C 375.9 591.8 377.2 592.7 378.9 592.9 C 381.6 593.3 382.1 588.4 379.6 588.0 C 378.0 587.8 376.6 588.1 375.0 587.9 C 373.3 587.6 371.9 587.3 370.4 586.9 C 368.8 586.4 365.4 586.2 362.8 585.7 C 360.2 585.2 355.9 584.2 352.8 583.9 C 349.8 583.5 347.7 584.4 341.6 582.7 C 339.7 582.1 335.7 581.7 334.0 581.5 C 331.2 581.0 325.8 579.8 323.4 579.5 C 320.6 579.1 319.9 583.9 323.0 584.4 C 323.0 584.4 323.0 584.4 323.0 584.4 Z M 435.6 601.6 C 438.3 602.0 439.5 597.2 436.4 596.7 C 433.3 596.3 427.5 595.8 425.9 595.5 C 424.2 595.1 417.2 593.8 415.8 593.5 C 414.3 593.3 408.9 593.2 406.0 592.3 C 403.0 591.5 399.9 591.8 397.8 591.3 C 395.3 590.6 393.8 590.7 391.8 590.5 C 389.8 590.3 386.9 588.8 385.1 589.0 C 383.4 589.1 382.5 588.5 380.2 588.2 C 377.8 587.8 377.1 592.6 379.3 592.9 C 381.5 593.3 383.4 593.5 385.7 593.7 C 387.9 594.0 390.6 594.3 393.0 594.7 C 395.1 595.0 398.3 596.1 400.9 596.2 C 403.4 596.2 407.1 596.7 408.6 596.8 C 410.4 597.1 414.3 597.8 416.0 597.8 C 418.2 597.8 421.9 598.8 423.2 599.5 C 424.5 600.1 425.5 599.7 428.5 600.2 C 430.2 600.5 433.0 601.2 435.6 601.6 C 435.6 601.6 435.6 601.6 435.6 601.6 Z M 436.5 601.7 C 439.5 602.2 444.6 602.3 445.8 602.5 C 447.0 602.6 451.0 603.6 452.9 603.8 C 454.9 604.0 455.6 603.7 458.8 604.1 C 462.9 604.6 465.5 605.5 465.7 605.6 C 466.2 605.8 468.1 606.6 470.8 606.9 C 474.5 607.2 475.5 607.9 477.2 607.9 C 480.0 607.8 480.2 608.3 482.4 608.6 C 484.5 608.8 485.8 609.2 487.5 609.2 C 489.4 609.2 490.7 610.0 492.4 610.3 C 495.1 610.7 495.6 605.8 493.1 605.4 C 491.5 605.1 490.1 605.5 488.5 605.2 C 486.8 605.0 485.4 604.6 483.8 604.2 C 482.3 603.7 478.9 603.6 476.3 603.0 C 473.7 602.5 469.4 601.6 466.3 601.2 C 463.3 600.9 461.2 601.7 455.1 600.0 C 453.2 599.5 449.2 599.1 447.5 598.8 C 444.7 598.4 439.3 597.2 436.9 596.8 C 434.1 596.4 433.4 601.2 436.5 601.7 C 436.5 601.7 436.5 601.7 436.5 601.7 Z M 436.5 601.7 " fill="#4E8F00"></path><path d="M 185.5 560.1 C 184.6 562.5 185.0 562.5 185.9 563.0 C 186.8 563.5 186.8 563.5 188.0 563.8 C 189.1 564.0 188.7 564.8 189.3 565.3 C 189.9 565.7 191.1 567.5 192.0 567.6 C 192.9 567.7 193.4 569.3 194.3 569.6 C 195.3 569.9 195.6 570.6 196.2 571.4 C 196.8 572.1 197.9 572.4 198.2 573.1 C 198.5 573.9 199.6 575.7 200.5 576.0 C 201.4 576.3 203.1 575.3 202.8 574.0 C 202.5 572.7 202.4 572.4 202.9 571.5 C 203.4 570.6 203.2 570.1 203.4 568.9 C 203.6 567.7 204.1 566.4 204.2 565.9 C 204.2 565.4 205.3 565.1 205.1 563.2 C 204.8 561.2 204.9 561.8 204.9 560.0 C 205.0 558.1 204.7 558.0 205.0 557.0 C 205.3 556.1 205.0 554.9 205.7 553.6 C 206.4 552.3 206.3 550.8 205.5 550.4 C 204.6 549.9 203.5 550.5 202.3 551.6 C 201.0 552.6 200.0 553.5 198.7 554.0 C 197.3 554.4 196.0 554.7 195.0 555.5 C 194.0 556.3 190.1 558.1 189.2 558.6 C 188.4 559.0 186.0 558.6 185.5 560.1 Z M 185.5 560.1 " fill="#4E8F00"></path><image xlink:href="20D4054354594B3B4F4AF25D41F764C6.png" width="221.00" height="204.00" transform="matrix(1.00, 0.00, -0.00, -1.00, 332.3, 685.8)"></image><path d="M 399.0 563.3 C 397.3 562.6 395.0 562.0 393.7 564.4 C 392.4 566.7 393.4 569.4 395.9 570.4 C 398.5 571.4 398.3 569.8 404.2 572.2 C 406.4 573.1 408.4 568.6 406.1 567.7 C 400.9 565.6 402.1 564.6 399.0 563.3 C 399.0 563.3 399.0 563.3 399.0 563.3 Z M 499.7 612.4 C 502.7 613.6 504.4 613.0 505.5 610.6 C 506.6 608.1 505.3 606.3 502.6 605.2 C 499.9 604.1 499.5 605.5 494.9 603.6 C 492.5 602.6 491.1 607.3 493.1 608.1 C 497.9 610.1 496.6 611.2 499.7 612.4 C 499.7 612.4 499.7 612.4 499.7 612.4 Z M 406.3 567.7 C 404.4 567.0 402.6 571.5 404.7 572.4 C 407.0 573.3 412.3 574.5 413.6 575.2 C 414.9 575.8 418.1 578.1 419.3 578.6 C 420.4 579.0 426.5 579.9 428.7 581.3 C 430.9 582.6 431.7 582.7 433.3 583.4 C 435.0 584.0 437.7 584.8 439.3 585.3 C 440.9 585.9 441.8 587.6 443.9 588.1 C 446.1 588.6 447.0 589.5 448.4 590.1 C 450.7 591.0 452.4 586.4 450.3 585.6 C 448.3 584.8 447.0 583.9 445.2 583.3 C 443.5 582.7 441.8 582.6 440.4 581.4 C 438.9 580.3 435.6 579.5 433.5 579.0 C 431.4 578.5 429.3 577.5 427.8 576.7 C 424.9 575.1 417.1 572.9 416.2 572.1 C 415.3 571.3 411.7 570.3 410.5 569.8 C 409.3 569.3 408.8 568.7 406.3 567.7 C 406.3 567.7 406.3 567.7 406.3 567.7 Z M 492.5 607.9 C 494.6 608.8 496.8 604.4 494.4 603.4 C 491.9 602.4 487.3 601.1 486.1 600.4 C 484.8 599.8 479.5 597.3 478.3 596.9 C 477.2 596.4 472.8 595.4 470.6 594.1 C 468.4 592.7 465.8 592.5 464.2 591.7 C 462.3 590.6 461.1 590.4 459.5 589.9 C 457.9 589.4 455.9 587.5 454.4 587.3 C 453.0 587.2 452.4 586.4 450.6 585.7 C 448.7 584.9 446.9 589.5 448.6 590.2 C 450.4 590.9 451.9 591.4 453.6 592.0 C 455.4 592.6 457.5 593.4 459.4 594.1 C 461.1 594.8 463.4 596.4 465.5 596.9 C 467.5 597.4 470.4 598.4 471.6 598.8 C 473.0 599.4 476.0 600.7 477.4 601.0 C 479.2 601.4 482.0 603.0 482.9 603.8 C 483.8 604.6 484.7 604.4 487.0 605.4 C 488.4 606.0 490.5 607.1 492.5 607.9 C 492.5 607.9 492.5 607.9 492.5 607.9 Z M 492.5 607.9 " fill="#4E8F00"></path><path d="M 383.1 560.1 C 381.7 562.3 382.1 562.4 382.8 563.1 C 383.5 563.8 383.6 563.9 384.7 564.3 C 385.7 564.8 385.2 565.6 385.6 566.1 C 386.1 566.7 386.9 568.7 387.7 569.0 C 388.6 569.4 388.7 571.0 389.5 571.5 C 390.4 572.0 390.6 572.8 391.0 573.6 C 391.4 574.5 392.4 575.0 392.5 575.8 C 392.6 576.6 393.2 578.7 394.0 579.2 C 394.8 579.7 396.7 579.1 396.7 577.8 C 396.8 576.4 396.7 576.0 397.4 575.3 C 398.1 574.6 398.0 574.0 398.5 572.9 C 399.0 571.8 399.7 570.6 399.9 570.2 C 400.1 569.7 401.2 569.6 401.4 567.7 C 401.6 565.8 401.6 566.4 402.1 564.6 C 402.5 562.8 402.3 562.5 402.8 561.7 C 403.3 560.8 403.3 559.7 404.2 558.6 C 405.2 557.4 405.5 556.0 404.8 555.3 C 404.0 554.7 402.8 555.0 401.4 555.8 C 400.0 556.5 398.8 557.2 397.3 557.3 C 395.9 557.4 394.6 557.4 393.4 557.9 C 392.3 558.4 388.0 559.3 387.1 559.6 C 386.2 559.8 383.9 558.8 383.1 560.1 Z M 383.1 560.1 " fill="#4E8F00"></path><image xlink:href="9911F2CF212FD38D234E8E716E24360F.png" width="218.00" height="197.00" transform="matrix(1.00, 0.00, -0.00, -1.00, 453.6, 684.3)"></image><path d="M 607.1 573.9 C 608.7 573.3 610.9 572.1 610.3 569.5 C 609.6 566.9 607.0 565.6 604.5 566.6 C 601.9 567.5 603.2 568.6 597.2 570.9 C 595.0 571.7 596.6 576.3 598.8 575.5 C 604.1 573.5 603.9 575.1 607.1 573.9 C 607.1 573.9 607.1 573.9 607.1 573.9 Z M 503.5 604.4 C 500.4 605.5 499.6 607.1 500.5 609.6 C 501.3 612.2 503.5 612.7 506.3 611.7 C 509.0 610.6 508.4 609.3 513.0 607.6 C 515.4 606.7 513.3 602.3 511.3 603.0 C 506.4 604.8 506.6 603.2 503.5 604.4 C 503.5 604.4 503.5 604.4 503.5 604.4 Z M 598.7 575.6 C 600.5 574.9 598.8 570.3 596.7 571.0 C 594.5 571.9 590.0 574.5 588.7 574.9 C 587.4 575.3 583.5 575.7 582.4 576.1 C 581.3 576.5 576.5 579.9 574.0 580.4 C 571.6 580.8 571.0 581.3 569.4 581.9 C 567.9 582.5 565.5 583.7 564.0 584.3 C 562.5 585.0 560.7 584.3 558.9 585.3 C 557.0 586.4 555.8 586.3 554.4 586.9 C 552.3 587.7 554.1 592.2 556.1 591.4 C 558.1 590.7 559.5 590.5 561.2 589.8 C 562.8 589.1 564.0 588.1 565.8 587.9 C 567.5 587.8 570.4 586.2 572.2 585.2 C 574.0 584.2 576.1 583.5 577.7 583.2 C 580.8 582.4 587.7 578.9 588.9 578.9 C 590.1 578.9 593.2 577.3 594.4 576.8 C 595.5 576.4 596.3 576.5 598.7 575.6 C 598.7 575.6 598.7 575.6 598.7 575.6 Z M 511.8 602.8 C 509.8 603.5 511.2 608.3 513.5 607.4 C 515.9 606.5 520.0 604.5 521.3 604.1 C 522.6 603.7 528.0 602.0 529.1 601.6 C 530.2 601.2 533.9 599.1 536.3 598.6 C 538.7 598.1 540.7 596.5 542.3 596.1 C 544.4 595.7 545.4 595.0 546.8 594.3 C 548.3 593.7 550.9 593.8 552.1 592.9 C 553.2 592.0 554.1 592.2 555.8 591.5 C 557.6 590.9 555.9 586.3 554.2 586.9 C 552.6 587.6 551.2 588.2 549.5 588.9 C 547.9 589.6 545.9 590.5 544.1 591.1 C 542.5 591.7 539.8 592.1 538.0 593.1 C 536.3 594.1 533.6 595.2 532.5 595.7 C 531.1 596.3 528.1 597.2 526.9 598.0 C 525.4 598.9 522.5 599.5 521.3 599.5 C 520.1 599.5 519.6 600.3 517.3 601.0 C 516.0 601.5 513.8 602.1 511.8 602.8 C 511.8 602.8 511.8 602.8 511.8 602.8 Z M 511.8 602.8 " fill="#4E8F00"></path><path d="M 620.9 565.5 C 620.5 562.9 620.1 563.1 619.1 563.1 C 618.1 563.0 618.0 563.1 616.9 563.4 C 615.8 563.8 615.7 562.9 615.0 562.8 C 614.3 562.7 612.4 561.8 611.5 562.1 C 610.6 562.4 609.5 561.2 608.5 561.5 C 607.5 561.7 606.8 561.2 606.0 560.8 C 605.1 560.5 604.0 560.8 603.4 560.3 C 602.8 559.7 600.9 558.7 600.0 558.8 C 599.1 559.0 598.1 560.7 598.9 561.7 C 599.8 562.7 600.1 563.0 600.1 564.0 C 600.1 565.0 600.5 565.3 600.9 566.5 C 601.3 567.6 601.5 569.0 601.7 569.5 C 601.9 570.0 601.1 570.7 602.3 572.3 C 603.4 573.9 603.1 573.4 603.9 575.0 C 604.8 576.7 605.2 576.7 605.4 577.6 C 605.5 578.6 606.3 579.4 606.4 580.9 C 606.4 582.4 607.2 583.7 608.2 583.7 C 609.1 583.6 609.8 582.6 610.4 581.1 C 610.9 579.5 611.4 578.3 612.3 577.2 C 613.3 576.2 614.3 575.3 614.8 574.1 C 615.3 572.9 617.8 569.4 618.3 568.6 C 618.9 567.9 621.2 567.0 620.9 565.5 Z M 620.9 565.5 " fill="#4E8F00"></path><image xlink:href="097F6B0CDC8A168CEDF750AAFF4CC8FE.png" width="430.00" height="194.00" transform="matrix(1.00, 0.00, -0.00, -1.00, 456.1, 683.2)"></image><path d="M 822.8 570.6 C 824.6 570.4 826.9 569.8 826.9 567.1 C 826.8 564.4 824.6 562.6 821.9 562.9 C 819.2 563.3 820.2 564.6 813.9 565.5 C 811.5 565.8 812.0 570.6 814.4 570.3 C 820.0 569.6 819.4 571.1 822.8 570.6 C 822.8 570.6 822.8 570.6 822.8 570.6 Z M 504.5 604.3 C 501.2 604.8 500.1 606.2 500.3 608.8 C 500.6 611.5 502.6 612.5 505.5 612.1 C 508.4 611.7 508.1 610.3 512.9 609.7 C 515.6 609.4 514.5 604.5 512.3 604.8 C 507.2 605.5 507.7 603.9 504.5 604.3 C 504.5 604.3 504.5 604.3 504.5 604.3 Z M 814.2 570.4 C 816.3 570.1 815.7 565.2 813.3 565.5 C 810.7 565.9 805.1 567.5 803.6 567.6 C 802.1 567.7 797.9 567.3 796.6 567.4 C 795.3 567.6 789.2 569.9 786.4 569.8 C 783.7 569.7 783.0 570.1 781.1 570.3 C 779.2 570.6 776.3 571.2 774.6 571.6 C 772.8 571.9 771.1 570.8 768.8 571.5 C 766.6 572.1 765.2 571.8 763.7 572.0 C 761.1 572.3 761.9 577.2 764.3 576.8 C 766.6 576.5 768.2 576.7 770.1 576.3 C 772.0 575.9 773.7 575.2 775.6 575.5 C 777.5 575.7 781.0 574.7 783.2 574.1 C 785.4 573.5 787.9 573.4 789.6 573.3 C 793.2 573.3 801.5 571.3 802.8 571.5 C 804.1 571.8 807.9 570.9 809.3 570.7 C 810.6 570.5 811.4 570.7 814.2 570.4 C 814.2 570.4 814.2 570.4 814.2 570.4 Z M 713.6 578.5 C 711.3 578.8 711.5 583.7 714.2 583.4 C 717.0 583.0 721.9 581.9 723.4 581.8 C 724.9 581.7 731.2 581.2 732.5 581.0 C 733.8 580.9 738.3 579.6 741.1 579.6 C 743.8 579.7 746.3 578.5 748.2 578.5 C 750.5 578.5 751.7 578.0 753.5 577.7 C 755.2 577.4 758.1 578.0 759.5 577.4 C 760.9 576.8 761.8 577.2 763.9 576.9 C 766.0 576.6 765.4 571.8 763.4 572.0 C 761.4 572.3 759.8 572.6 757.8 573.0 C 755.9 573.3 753.5 573.7 751.4 574.0 C 749.5 574.2 746.6 574.0 744.4 574.6 C 742.2 575.2 739.0 575.8 737.7 576.0 C 736.1 576.2 732.6 576.6 731.1 577.0 C 729.3 577.6 725.9 577.5 724.7 577.3 C 723.4 577.0 722.6 577.7 720.0 578.0 C 718.4 578.1 715.9 578.2 713.6 578.5 C 713.6 578.5 713.6 578.5 713.6 578.5 Z M 712.9 578.6 C 710.2 579.0 705.9 580.2 704.8 580.3 C 703.7 580.5 700.1 580.6 698.4 580.9 C 696.7 581.2 696.2 581.7 693.4 582.2 C 689.8 582.8 687.4 582.6 687.2 582.5 C 686.7 582.4 684.9 582.2 682.5 582.6 C 679.3 583.3 678.3 582.9 676.9 583.3 C 674.5 584.2 674.2 583.7 672.3 584.1 C 670.5 584.4 669.3 584.3 667.8 584.8 C 666.2 585.3 664.9 584.8 663.4 585.1 C 661.0 585.4 661.9 590.2 664.1 589.9 C 665.5 589.8 666.6 589.1 668.1 588.9 C 669.5 588.7 670.8 588.6 672.2 588.7 C 673.7 588.7 676.5 588.0 678.9 587.8 C 681.2 587.6 685.1 587.4 687.8 586.9 C 690.4 586.5 692.0 585.1 697.5 585.1 C 699.3 585.2 702.8 584.5 704.3 584.3 C 706.8 584.0 711.7 583.7 713.8 583.4 C 716.3 583.1 715.6 578.3 712.9 578.6 C 712.9 578.6 712.9 578.6 712.9 578.6 Z M 613.3 591.6 C 610.9 591.9 611.1 596.8 613.9 596.5 C 616.6 596.1 621.6 595.0 623.1 594.9 C 624.6 594.8 630.8 594.3 632.1 594.1 C 633.4 594.0 638.0 592.6 640.7 592.7 C 643.5 592.8 646.0 591.6 647.9 591.6 C 650.2 591.6 651.4 591.1 653.1 590.8 C 654.9 590.5 657.7 591.1 659.2 590.5 C 660.6 589.9 661.5 590.3 663.6 590.0 C 665.7 589.7 665.0 584.9 663.1 585.1 C 661.1 585.4 659.4 585.7 657.5 586.0 C 655.6 586.4 653.2 586.8 651.1 587.1 C 649.2 587.3 646.2 587.1 644.0 587.7 C 641.9 588.3 638.6 588.8 637.4 589.1 C 635.7 589.3 632.3 589.6 630.8 590.1 C 628.9 590.7 625.6 590.6 624.3 590.4 C 623.1 590.1 622.3 590.8 619.7 591.0 C 618.1 591.2 615.6 591.3 613.3 591.6 C 613.3 591.6 613.3 591.6 613.3 591.6 Z M 612.5 591.7 C 609.8 592.1 605.5 593.3 604.5 593.4 C 603.4 593.6 599.8 593.7 598.1 594.0 C 596.4 594.3 595.9 594.8 593.0 595.2 C 589.5 595.8 587.1 595.7 586.9 595.6 C 586.4 595.5 584.6 595.3 582.2 595.7 C 579.0 596.4 578.0 596.0 576.6 596.4 C 574.2 597.3 573.9 596.8 572.0 597.1 C 570.1 597.5 568.9 597.4 567.5 597.9 C 565.9 598.4 564.6 597.9 563.1 598.2 C 560.7 598.5 561.5 603.3 563.8 603.0 C 565.2 602.8 566.3 602.2 567.7 602.0 C 569.2 601.8 570.4 601.7 571.9 601.7 C 573.3 601.8 576.2 601.1 578.5 600.9 C 580.9 600.7 584.8 600.5 587.4 600.0 C 590.1 599.6 591.6 598.2 597.2 598.2 C 599.0 598.2 602.5 597.6 603.9 597.4 C 606.5 597.1 611.3 596.8 613.4 596.5 C 615.9 596.2 615.2 591.4 612.5 591.7 C 612.5 591.7 612.5 591.7 612.5 591.7 Z M 512.9 604.7 C 510.6 605.0 510.8 609.9 513.6 609.6 C 516.3 609.2 521.3 608.1 522.8 608.0 C 524.3 607.9 530.5 607.4 531.8 607.2 C 533.1 607.1 537.6 605.7 540.4 605.8 C 543.1 605.8 545.7 604.7 547.5 604.7 C 549.9 604.7 551.1 604.2 552.8 603.9 C 554.6 603.6 557.4 604.2 558.8 603.6 C 560.3 603.0 561.2 603.3 563.3 603.1 C 565.3 602.8 564.7 598.0 562.7 598.2 C 560.8 598.5 559.1 598.8 557.2 599.1 C 555.2 599.5 552.9 599.9 550.8 600.2 C 548.8 600.4 545.9 600.2 543.7 600.8 C 541.5 601.4 538.3 601.9 537.0 602.2 C 535.4 602.4 531.9 602.7 530.5 603.2 C 528.6 603.8 525.3 603.7 524.0 603.5 C 522.7 603.2 522.0 603.9 519.3 604.1 C 517.8 604.3 515.3 604.4 512.9 604.7 C 512.9 604.7 512.9 604.7 512.9 604.7 Z M 512.9 604.7 " fill="#4E8F00"></path><path d="M 838.2 565.6 C 838.3 563.0 837.9 563.1 836.9 562.8 C 835.9 562.6 835.9 562.6 834.7 562.7 C 833.6 562.8 833.7 561.9 833.0 561.6 C 832.3 561.3 830.7 560.0 829.7 560.1 C 828.8 560.2 828.0 558.8 827.0 558.9 C 826.0 558.9 825.4 558.2 824.7 557.7 C 823.9 557.1 822.8 557.2 822.3 556.5 C 821.8 555.9 820.2 554.4 819.3 554.4 C 818.3 554.3 817.0 555.8 817.6 556.9 C 818.2 558.1 818.5 558.4 818.2 559.4 C 818.0 560.4 818.4 560.8 818.5 562.0 C 818.6 563.2 818.5 564.6 818.6 565.1 C 818.6 565.6 817.7 566.2 818.5 568.0 C 819.2 569.8 819.0 569.3 819.5 571.0 C 819.9 572.8 820.3 572.9 820.3 573.9 C 820.2 574.9 820.8 575.9 820.5 577.3 C 820.2 578.8 820.7 580.3 821.6 580.4 C 822.6 580.6 823.5 579.7 824.3 578.4 C 825.2 577.0 826.0 575.9 827.2 575.1 C 828.3 574.3 829.5 573.6 830.2 572.6 C 831.0 571.6 834.3 568.7 835.0 568.0 C 835.6 567.4 838.1 567.1 838.2 565.6 Z M 838.2 565.6 " fill="#4E8F00"></path><image xlink:href="E7243888E1A98D1979B88754A62DC7BA.png" width="266.00" height="131.00" transform="matrix(1.00, 0.00, -0.00, -1.00, 551.0, 305.0)"></image><image xlink:href="0E5810CC7FFE7D775F603794B13616D2.png" width="107.00" height="241.00" transform="matrix(0.99, 0.00, -0.00, -1.00, 89.1, 486.5)"></image><path d="M 145.7 338.5 C 145.7 336.7 145.4 334.3 142.7 334.0 C 140.0 333.7 137.9 335.6 137.9 338.4 C 137.9 341.1 139.4 340.3 139.4 346.7 C 139.4 349.0 144.3 349.2 144.3 346.8 C 144.3 341.1 145.7 341.9 145.7 338.5 C 145.7 338.5 145.7 338.5 145.7 338.5 Z M 137.9 390.9 C 137.9 394.2 139.2 395.5 141.8 395.6 C 144.5 395.6 145.7 393.8 145.7 390.9 C 145.7 387.9 144.2 388.1 144.3 383.2 C 144.3 380.5 139.4 381.0 139.4 383.1 C 139.4 388.3 137.9 387.6 137.9 390.9 C 137.9 390.9 137.9 390.9 137.9 390.9 Z M 144.3 346.9 C 144.3 345.4 139.4 345.4 139.4 347.2 C 139.4 349.0 140.2 353.1 140.1 354.2 C 140.0 355.2 139.1 358.2 139.1 359.1 C 139.1 360.0 140.5 364.5 140.1 366.4 C 139.7 368.4 140.0 368.9 140.0 370.3 C 140.0 371.6 140.2 373.7 140.4 374.9 C 140.5 376.2 139.2 377.3 139.5 379.0 C 139.9 380.7 139.4 381.5 139.4 382.7 C 139.4 384.5 144.2 384.4 144.2 382.7 C 144.2 381.1 144.6 379.9 144.5 378.5 C 144.4 377.1 143.9 375.9 144.4 374.6 C 144.9 373.3 144.3 370.7 144.0 369.1 C 143.7 367.5 143.8 365.8 144.1 364.5 C 144.4 362.0 143.5 355.9 144.0 355.1 C 144.4 354.2 144.0 351.5 144.0 350.5 C 144.0 349.5 144.3 349.0 144.3 346.9 C 144.3 346.9 144.3 346.9 144.3 346.9 Z M 145.7 392.5 C 145.7 392.5 145.6 392.5 145.2 392.5 C 145.1 392.5 145.0 392.5 144.8 392.5 C 144.7 392.5 144.5 392.5 144.3 392.5 C 144.1 392.5 143.8 392.5 143.6 392.5 C 143.4 392.5 143.3 392.5 143.2 392.5 C 143.0 392.5 142.9 392.5 142.7 392.5 C 142.5 392.5 142.4 392.5 142.2 392.5 C 142.0 392.5 141.9 392.5 141.7 392.5 C 141.6 392.5 141.4 392.5 141.2 392.5 C 141.1 392.5 141.0 392.5 140.8 392.5 C 140.7 392.5 140.5 392.5 140.4 392.5 C 140.3 392.5 140.1 392.5 140.0 392.5 C 139.7 392.5 139.5 392.5 139.3 392.5 C 139.1 392.5 138.9 392.5 138.7 392.5 C 138.5 392.5 138.4 392.5 138.3 392.5 C 138.0 392.5 137.9 392.5 137.9 392.5 C 137.9 392.5 138.0 392.5 138.1 392.5 C 138.3 392.5 138.5 392.5 138.7 392.5 C 138.8 392.5 139.0 392.5 139.2 392.5 C 139.3 392.5 139.4 392.5 139.4 392.5 C 139.4 392.5 139.5 392.5 139.6 392.5 C 139.7 392.5 139.9 392.5 140.1 392.5 C 140.3 392.5 140.4 392.5 140.5 392.5 C 140.7 392.5 140.8 392.5 140.9 392.5 C 141.1 392.5 141.2 392.5 141.4 392.5 C 141.5 392.5 141.7 392.5 141.8 392.5 C 142.0 392.5 142.1 392.5 142.3 392.5 C 142.4 392.5 142.6 392.5 142.7 392.5 C 142.9 392.5 143.0 392.5 143.1 392.5 C 143.3 392.5 143.4 392.5 143.5 392.5 C 143.7 392.5 143.9 392.5 144.1 392.5 C 144.2 392.5 144.3 392.5 144.3 392.5 C 144.3 392.5 144.6 392.5 145.0 392.5 C 145.3 392.5 145.7 392.5 145.7 392.5 C 145.7 392.5 145.7 392.5 145.7 392.5 C 145.7 392.5 145.7 392.5 145.7 392.5 Z M 137.9 392.5 C 137.9 392.5 138.0 392.5 138.2 392.5 C 138.2 392.5 138.3 392.5 138.4 392.5 C 138.6 392.5 138.7 392.5 138.9 392.5 C 139.0 392.5 139.2 392.5 139.4 392.5 C 139.6 392.5 139.8 392.5 140.1 392.5 C 140.2 392.5 140.3 392.5 140.4 392.5 C 140.6 392.5 140.7 392.5 140.9 392.5 C 141.0 392.5 141.1 392.5 141.3 392.5 C 141.4 392.5 141.6 392.5 141.8 392.5 C 141.9 392.5 142.1 392.5 142.3 392.5 C 142.4 392.5 142.6 392.5 142.7 392.5 C 142.9 392.5 143.0 392.5 143.1 392.5 C 143.3 392.5 143.4 392.5 143.5 392.5 C 143.8 392.5 144.0 392.5 144.2 392.5 C 144.4 392.5 144.6 392.5 144.8 392.5 C 144.9 392.5 145.1 392.5 145.2 392.5 C 145.3 392.5 145.4 392.5 145.5 392.5 C 145.6 392.5 145.7 392.5 145.7 392.5 C 145.7 392.5 145.6 392.5 145.5 392.5 C 145.3 392.5 145.2 392.5 145.0 392.5 C 144.6 392.5 144.3 392.5 144.3 392.5 C 144.3 392.5 144.2 392.5 144.1 392.5 C 144.0 392.5 143.8 392.5 143.5 392.5 C 143.4 392.5 143.3 392.5 143.2 392.5 C 143.0 392.5 142.9 392.5 142.8 392.5 C 142.6 392.5 142.5 392.5 142.3 392.5 C 142.2 392.5 142.0 392.5 141.9 392.5 C 141.7 392.5 141.5 392.5 141.4 392.5 C 141.2 392.5 141.1 392.5 141.0 392.5 C 140.8 392.5 140.7 392.5 140.5 392.5 C 140.4 392.5 140.3 392.5 140.2 392.5 C 139.9 392.5 139.7 392.5 139.6 392.5 C 139.5 392.5 139.4 392.5 139.4 392.5 C 139.4 392.5 139.3 392.5 139.2 392.5 C 139.0 392.5 138.8 392.5 138.7 392.5 C 138.5 392.5 138.3 392.5 138.1 392.5 C 138.0 392.5 137.9 392.5 137.9 392.5 C 137.9 392.5 137.9 392.5 137.9 392.5 C 137.9 392.5 137.9 392.5 137.9 392.5 Z M 137.9 392.5 " fill="#4E8F00"></path><path d="M 151.2 407.1 C 151.3 405.1 153.4 404.8 153.4 402.6 C 153.4 400.4 154.2 401.8 154.2 398.7 C 154.2 395.7 152.5 394.1 151.0 392.0 C 149.6 389.9 149.5 389.4 148.3 389.8 C 147.1 390.1 146.5 390.7 146.5 389.9 C 146.5 389.1 147.1 388.8 146.0 388.5 C 145.0 388.3 144.7 387.8 143.5 388.3 C 142.2 388.8 142.1 389.2 140.4 388.9 C 138.6 388.6 137.2 388.3 136.1 389.1 C 135.1 389.8 133.9 390.4 132.7 392.3 C 131.5 394.3 131.5 396.6 130.9 398.3 C 130.4 400.0 130.9 403.5 132.1 404.6 C 133.3 405.7 134.1 406.1 135.3 408.0 C 136.6 409.8 138.5 410.4 139.2 410.5 C 139.8 410.5 139.9 411.0 142.5 411.1 C 145.1 411.3 145.6 411.1 145.9 410.7 C 146.2 410.3 146.6 410.7 146.9 410.5 C 147.3 410.3 146.6 410.0 148.0 410.2 C 149.3 410.4 151.2 409.6 151.2 407.1 Z M 151.2 407.1 " fill="#4E8F00"></path><path d="M 142.6 322.6 C 140.1 322.1 140.2 322.5 139.8 323.5 C 139.4 324.4 139.4 324.5 139.3 325.6 C 139.3 326.8 138.4 326.6 138.0 327.2 C 137.7 327.9 136.1 329.3 136.1 330.2 C 136.1 331.2 134.6 331.8 134.5 332.8 C 134.4 333.8 133.7 334.3 133.1 335.0 C 132.4 335.7 132.3 336.8 131.6 337.2 C 130.9 337.6 129.2 338.9 129.1 339.9 C 128.9 340.8 130.2 342.3 131.4 341.9 C 132.6 341.4 133.0 341.2 133.9 341.6 C 134.9 341.9 135.3 341.6 136.6 341.7 C 137.8 341.7 139.1 342.0 139.6 342.0 C 140.2 342.0 140.6 343.0 142.5 342.4 C 144.4 341.9 143.8 342.1 145.6 341.8 C 147.5 341.6 147.6 341.3 148.6 341.4 C 149.6 341.6 150.6 341.1 152.0 341.6 C 153.4 342.1 154.9 341.8 155.2 340.9 C 155.5 340.0 154.8 339.0 153.5 337.9 C 152.3 336.9 151.3 336.0 150.6 334.7 C 150.0 333.4 149.5 332.2 148.6 331.4 C 147.6 330.5 145.2 326.9 144.7 326.1 C 144.1 325.3 144.1 322.9 142.6 322.6 Z M 142.6 322.6 " fill="#4E8F00"></path><image xlink:href="524B21117ACDF82AF4810497972DC7C8.png" width="217.00" height="281.00" transform="matrix(1.00, 0.00, -0.00, -1.00, 13.0, 320.0)"></image><image xlink:href="6C2D6BD44FFBB817AD5B9FB4E2733FF0.png" width="107.00" height="234.00" transform="matrix(0.99, 0.00, -0.00, -1.00, 330.1, 477.0)"></image><path d="M 386.7 335.1 C 386.7 333.2 386.3 330.8 383.7 330.5 C 381.0 330.2 378.9 332.2 378.9 334.9 C 378.9 337.6 380.4 336.8 380.4 343.2 C 380.4 345.6 385.3 345.7 385.3 343.3 C 385.3 337.6 386.7 338.4 386.7 335.1 C 386.7 335.1 386.7 335.1 386.7 335.1 Z M 378.9 382.8 C 378.9 386.1 380.2 387.4 382.8 387.5 C 385.5 387.6 386.7 385.7 386.7 382.8 C 386.7 379.9 385.2 380.0 385.3 375.1 C 385.3 372.5 380.4 372.9 380.4 375.1 C 380.4 380.3 378.9 379.5 378.9 382.8 C 378.9 382.8 378.9 382.8 378.9 382.8 Z M 385.3 343.5 C 385.3 342.2 380.4 342.1 380.4 343.7 C 380.4 345.3 381.2 348.8 381.1 349.8 C 381.0 350.7 380.1 353.2 380.1 354.1 C 380.1 354.9 381.5 358.8 381.1 360.5 C 380.7 362.2 380.9 362.6 380.9 363.8 C 380.9 365.0 381.2 366.8 381.3 367.9 C 381.4 369.0 380.2 370.0 380.5 371.4 C 380.9 372.9 380.4 373.7 380.4 374.6 C 380.4 376.2 385.2 376.2 385.2 374.7 C 385.2 373.2 385.6 372.2 385.5 371.0 C 385.4 369.8 384.8 368.8 385.4 367.6 C 385.9 366.5 385.3 364.2 385.0 362.8 C 384.7 361.4 384.8 359.9 385.0 358.8 C 385.4 356.6 384.5 351.3 384.9 350.6 C 385.3 349.8 385.0 347.4 385.0 346.5 C 385.0 345.7 385.3 345.2 385.3 343.5 C 385.3 343.5 385.3 343.5 385.3 343.5 Z M 386.7 384.4 C 386.7 384.4 386.6 384.4 386.2 384.4 C 386.1 384.4 385.9 384.4 385.8 384.4 C 385.6 384.4 385.5 384.4 385.3 384.4 C 385.1 384.4 384.8 384.4 384.6 384.4 C 384.4 384.4 384.3 384.4 384.1 384.4 C 384.0 384.4 383.8 384.4 383.7 384.4 C 383.5 384.4 383.3 384.4 383.2 384.4 C 383.0 384.4 382.9 384.4 382.7 384.4 C 382.5 384.4 382.4 384.4 382.2 384.4 C 382.1 384.4 381.9 384.4 381.8 384.4 C 381.7 384.4 381.5 384.4 381.4 384.4 C 381.2 384.4 381.1 384.4 381.0 384.4 C 380.7 384.4 380.5 384.4 380.3 384.4 C 380.1 384.4 379.9 384.4 379.7 384.4 C 379.5 384.4 379.4 384.4 379.3 384.4 C 379.0 384.4 378.9 384.4 378.9 384.4 C 378.9 384.4 379.0 384.4 379.1 384.4 C 379.3 384.4 379.5 384.4 379.6 384.4 C 379.8 384.4 380.0 384.4 380.1 384.4 C 380.3 384.4 380.4 384.4 380.4 384.4 C 380.4 384.4 380.5 384.4 380.6 384.4 C 380.7 384.4 380.9 384.4 381.1 384.4 C 381.3 384.4 381.4 384.4 381.5 384.4 C 381.6 384.4 381.8 384.4 381.9 384.4 C 382.1 384.4 382.2 384.4 382.4 384.4 C 382.5 384.4 382.7 384.4 382.8 384.4 C 383.0 384.4 383.1 384.4 383.3 384.4 C 383.4 384.4 383.6 384.4 383.7 384.4 C 383.9 384.4 384.0 384.4 384.1 384.4 C 384.3 384.4 384.4 384.4 384.5 384.4 C 384.7 384.4 384.9 384.4 385.1 384.4 C 385.2 384.4 385.3 384.4 385.3 384.4 C 385.3 384.4 385.6 384.4 386.0 384.4 C 386.3 384.4 386.7 384.4 386.7 384.4 C 386.7 384.4 386.7 384.4 386.7 384.4 C 386.7 384.4 386.7 384.4 386.7 384.4 Z M 378.9 384.4 C 378.9 384.4 379.0 384.4 379.1 384.4 C 379.2 384.4 379.3 384.4 379.4 384.4 C 379.6 384.4 379.7 384.4 379.9 384.4 C 380.0 384.4 380.2 384.4 380.4 384.4 C 380.6 384.4 380.8 384.4 381.1 384.4 C 381.2 384.4 381.3 384.4 381.4 384.4 C 381.6 384.4 381.7 384.4 381.8 384.4 C 382.0 384.4 382.1 384.4 382.3 384.4 C 382.4 384.4 382.6 384.4 382.8 384.4 C 382.9 384.4 383.1 384.4 383.2 384.4 C 383.4 384.4 383.6 384.4 383.7 384.4 C 383.8 384.4 384.0 384.4 384.1 384.4 C 384.3 384.4 384.4 384.4 384.5 384.4 C 384.8 384.4 385.0 384.4 385.2 384.4 C 385.4 384.4 385.6 384.4 385.7 384.4 C 385.9 384.4 386.0 384.4 386.2 384.4 C 386.3 384.4 386.4 384.4 386.5 384.4 C 386.6 384.4 386.7 384.4 386.7 384.4 C 386.7 384.4 386.6 384.4 386.5 384.4 C 386.3 384.4 386.2 384.4 386.0 384.4 C 385.6 384.4 385.3 384.4 385.3 384.4 C 385.3 384.4 385.2 384.4 385.1 384.4 C 384.9 384.4 384.8 384.4 384.5 384.4 C 384.4 384.4 384.3 384.4 384.2 384.4 C 384.0 384.4 383.9 384.4 383.7 384.4 C 383.6 384.4 383.4 384.4 383.3 384.4 C 383.1 384.4 383.0 384.4 382.8 384.4 C 382.7 384.4 382.5 384.4 382.4 384.4 C 382.2 384.4 382.1 384.4 381.9 384.4 C 381.8 384.4 381.7 384.4 381.5 384.4 C 381.4 384.4 381.3 384.4 381.2 384.4 C 380.9 384.4 380.7 384.4 380.6 384.4 C 380.5 384.4 380.4 384.4 380.4 384.4 C 380.4 384.4 380.3 384.4 380.2 384.4 C 380.0 384.4 379.8 384.4 379.6 384.4 C 379.5 384.4 379.3 384.4 379.1 384.4 C 379.0 384.4 378.9 384.4 378.9 384.4 C 378.9 384.4 378.9 384.4 378.9 384.4 C 378.9 384.4 378.9 384.4 378.9 384.4 Z M 378.9 384.4 " fill="#4E8F00"></path><path d="M 392.2 399.1 C 392.3 397.0 394.4 396.7 394.4 394.5 C 394.4 392.3 395.2 393.7 395.2 390.7 C 395.2 387.6 393.5 386.0 392.0 384.0 C 390.6 381.9 390.4 381.3 389.3 381.7 C 388.1 382.1 387.5 382.6 387.5 381.8 C 387.5 381.0 388.1 380.7 387.0 380.5 C 386.0 380.2 385.7 379.7 384.4 380.2 C 383.2 380.7 383.1 381.1 381.3 380.8 C 379.6 380.5 378.2 380.3 377.1 381.0 C 376.1 381.8 374.9 382.3 373.7 384.3 C 372.5 386.2 372.4 388.5 371.9 390.2 C 371.4 391.9 371.9 395.4 373.1 396.5 C 374.3 397.6 375.1 398.1 376.3 399.9 C 377.5 401.7 379.5 402.4 380.2 402.4 C 380.8 402.5 380.9 402.9 383.5 403.1 C 386.1 403.3 386.6 403.0 386.9 402.7 C 387.2 402.3 387.6 402.6 387.9 402.5 C 388.3 402.3 387.6 401.9 388.9 402.1 C 390.3 402.4 392.2 401.5 392.2 399.1 Z M 392.2 399.1 " fill="#4E8F00"></path><path d="M 383.6 319.1 C 381.1 318.7 381.2 319.1 380.8 320.0 C 380.3 320.9 380.4 321.0 380.3 322.2 C 380.3 323.3 379.4 323.1 379.0 323.7 C 378.7 324.4 377.1 325.8 377.1 326.8 C 377.1 327.7 375.6 328.4 375.5 329.3 C 375.4 330.3 374.7 330.8 374.0 331.5 C 373.4 332.2 373.3 333.3 372.6 333.7 C 371.9 334.1 370.2 335.5 370.1 336.4 C 369.9 337.3 371.2 338.9 372.4 338.4 C 373.6 337.9 374.0 337.7 374.9 338.1 C 375.9 338.4 376.3 338.1 377.5 338.2 C 378.8 338.3 380.1 338.5 380.6 338.5 C 381.2 338.5 381.6 339.5 383.5 339.0 C 385.4 338.4 384.8 338.6 386.6 338.4 C 388.5 338.1 388.6 337.8 389.6 338.0 C 390.5 338.1 391.6 337.7 393.0 338.1 C 394.4 338.6 395.9 338.4 396.2 337.4 C 396.5 336.5 395.7 335.5 394.5 334.5 C 393.3 333.4 392.2 332.5 391.6 331.3 C 391.0 330.0 390.5 328.7 389.6 327.9 C 388.6 327.0 386.2 323.4 385.7 322.6 C 385.1 321.9 385.1 319.4 383.6 319.1 Z M 383.6 319.1 " fill="#4E8F00"></path><image xlink:href="../../2EBA330A-4FD6-4DE7-908B-4508CE896393/assets/0E5810CC7FFE7D775F603794B13616D2.png" width="107.00" height="241.00" transform="matrix(0.99, 0.00, -0.00, -1.00, 596.0, 473.0)"></image><path d="M 652.6 325.1 C 652.6 323.2 652.3 320.8 649.6 320.5 C 646.9 320.2 644.8 322.2 644.8 324.9 C 644.8 327.6 646.3 326.8 646.3 333.2 C 646.3 335.6 651.2 335.7 651.2 333.3 C 651.2 327.6 652.6 328.4 652.6 325.1 C 652.6 325.1 652.6 325.1 652.6 325.1 Z M 644.8 377.4 C 644.8 380.7 646.1 382.0 648.7 382.1 C 651.4 382.2 652.6 380.3 652.6 377.4 C 652.6 374.5 651.2 374.6 651.2 369.7 C 651.2 367.0 646.3 367.5 646.3 369.6 C 646.3 374.9 644.8 374.1 644.8 377.4 C 644.8 377.4 644.8 377.4 644.8 377.4 Z M 651.2 333.5 C 651.2 332.0 646.3 331.9 646.3 333.7 C 646.3 335.6 647.2 339.6 647.1 340.7 C 646.9 341.7 646.0 344.7 646.0 345.6 C 646.0 346.5 647.5 351.0 647.1 353.0 C 646.6 354.9 646.9 355.4 646.9 356.8 C 646.9 358.1 647.2 360.2 647.3 361.5 C 647.4 362.7 646.1 363.9 646.4 365.5 C 646.8 367.2 646.3 368.1 646.3 369.2 C 646.3 371.0 651.2 370.9 651.2 369.2 C 651.2 367.6 651.5 366.5 651.4 365.1 C 651.3 363.7 650.8 362.5 651.3 361.1 C 651.8 359.8 651.2 357.2 650.9 355.7 C 650.6 354.1 650.7 352.3 651.0 351.0 C 651.4 348.5 650.4 342.5 650.9 341.6 C 651.3 340.7 650.9 338.0 650.9 337.0 C 650.9 336.0 651.2 335.5 651.2 333.5 C 651.2 333.5 651.2 333.5 651.2 333.5 Z M 652.6 379.0 C 652.6 379.0 652.5 379.0 652.1 379.0 C 652.0 379.0 651.9 379.0 651.7 379.0 C 651.6 379.0 651.4 379.0 651.2 379.0 C 651.0 379.0 650.8 379.0 650.5 379.0 C 650.4 379.0 650.2 379.0 650.1 379.0 C 649.9 379.0 649.8 379.0 649.6 379.0 C 649.4 379.0 649.3 379.0 649.1 379.0 C 648.9 379.0 648.8 379.0 648.6 379.0 C 648.5 379.0 648.3 379.0 648.2 379.0 C 648.0 379.0 647.9 379.0 647.7 379.0 C 647.6 379.0 647.4 379.0 647.3 379.0 C 647.2 379.0 647.0 379.0 646.9 379.0 C 646.7 379.0 646.4 379.0 646.2 379.0 C 646.0 379.0 645.8 379.0 645.6 379.0 C 645.5 379.0 645.3 379.0 645.2 379.0 C 645.0 379.0 644.8 379.0 644.8 379.0 C 644.8 379.0 644.9 379.0 645.1 379.0 C 645.2 379.0 645.4 379.0 645.6 379.0 C 645.7 379.0 645.9 379.0 646.1 379.0 C 646.2 379.0 646.3 379.0 646.3 379.0 C 646.3 379.0 646.4 379.0 646.5 379.0 C 646.6 379.0 646.8 379.0 647.1 379.0 C 647.2 379.0 647.3 379.0 647.4 379.0 C 647.6 379.0 647.7 379.0 647.8 379.0 C 648.0 379.0 648.1 379.0 648.3 379.0 C 648.4 379.0 648.6 379.0 648.7 379.0 C 648.9 379.0 649.0 379.0 649.2 379.0 C 649.3 379.0 649.5 379.0 649.6 379.0 C 649.8 379.0 649.9 379.0 650.0 379.0 C 650.2 379.0 650.3 379.0 650.4 379.0 C 650.6 379.0 650.8 379.0 651.0 379.0 C 651.1 379.0 651.2 379.0 651.2 379.0 C 651.2 379.0 651.5 379.0 651.9 379.0 C 652.2 379.0 652.6 379.0 652.6 379.0 C 652.6 379.0 652.6 379.0 652.6 379.0 C 652.6 379.0 652.6 379.0 652.6 379.0 Z M 644.8 379.0 C 644.8 379.0 644.9 379.0 645.1 379.0 C 645.1 379.0 645.2 379.0 645.4 379.0 C 645.5 379.0 645.6 379.0 645.8 379.0 C 645.9 379.0 646.1 379.0 646.3 379.0 C 646.5 379.0 646.7 379.0 647.0 379.0 C 647.1 379.0 647.2 379.0 647.3 379.0 C 647.5 379.0 647.6 379.0 647.8 379.0 C 647.9 379.0 648.0 379.0 648.2 379.0 C 648.4 379.0 648.5 379.0 648.7 379.0 C 648.8 379.0 649.0 379.0 649.2 379.0 C 649.3 379.0 649.5 379.0 649.6 379.0 C 649.8 379.0 649.9 379.0 650.0 379.0 C 650.2 379.0 650.3 379.0 650.4 379.0 C 650.7 379.0 650.9 379.0 651.1 379.0 C 651.3 379.0 651.5 379.0 651.7 379.0 C 651.8 379.0 652.0 379.0 652.1 379.0 C 652.2 379.0 652.3 379.0 652.4 379.0 C 652.5 379.0 652.6 379.0 652.6 379.0 C 652.6 379.0 652.5 379.0 652.4 379.0 C 652.3 379.0 652.1 379.0 651.9 379.0 C 651.5 379.0 651.2 379.0 651.2 379.0 C 651.2 379.0 651.1 379.0 651.0 379.0 C 650.9 379.0 650.7 379.0 650.4 379.0 C 650.3 379.0 650.2 379.0 650.1 379.0 C 649.9 379.0 649.8 379.0 649.7 379.0 C 649.5 379.0 649.4 379.0 649.2 379.0 C 649.1 379.0 648.9 379.0 648.8 379.0 C 648.6 379.0 648.5 379.0 648.3 379.0 C 648.1 379.0 648.0 379.0 647.9 379.0 C 647.7 379.0 647.6 379.0 647.4 379.0 C 647.3 379.0 647.2 379.0 647.1 379.0 C 646.8 379.0 646.6 379.0 646.5 379.0 C 646.4 379.0 646.3 379.0 646.3 379.0 C 646.3 379.0 646.2 379.0 646.1 379.0 C 645.9 379.0 645.7 379.0 645.6 379.0 C 645.4 379.0 645.2 379.0 645.1 379.0 C 644.9 379.0 644.8 379.0 644.8 379.0 C 644.8 379.0 644.8 379.0 644.8 379.0 C 644.8 379.0 644.8 379.0 644.8 379.0 Z M 644.8 379.0 " fill="#4E8F00"></path><path d="M 658.1 393.6 C 658.2 391.6 660.3 391.3 660.3 389.1 C 660.3 386.9 661.1 388.3 661.1 385.3 C 661.1 382.2 659.4 380.6 657.9 378.5 C 656.5 376.5 656.4 375.9 655.2 376.3 C 654.0 376.6 653.4 377.2 653.4 376.4 C 653.4 375.6 654.0 375.3 652.9 375.1 C 651.9 374.8 651.6 374.3 650.4 374.8 C 649.2 375.3 649.0 375.7 647.3 375.4 C 645.5 375.1 644.1 374.9 643.0 375.6 C 642.0 376.3 640.8 376.9 639.6 378.8 C 638.4 380.8 638.4 383.1 637.8 384.8 C 637.3 386.5 637.8 390.0 639.0 391.1 C 640.2 392.2 641.0 392.7 642.2 394.5 C 643.5 396.3 645.4 396.9 646.1 397.0 C 646.8 397.1 646.8 397.5 649.4 397.7 C 652.0 397.9 652.5 397.6 652.8 397.2 C 653.1 396.9 653.5 397.2 653.9 397.0 C 654.2 396.9 653.5 396.5 654.9 396.7 C 656.3 397.0 658.1 396.1 658.1 393.6 Z M 658.1 393.6 " fill="#4E8F00"></path><path d="M 649.5 309.1 C 647.0 308.7 647.1 309.1 646.7 310.0 C 646.3 310.9 646.3 311.0 646.2 312.2 C 646.2 313.3 645.3 313.1 644.9 313.7 C 644.6 314.4 643.1 315.8 643.1 316.8 C 643.1 317.7 641.6 318.4 641.4 319.3 C 641.3 320.3 640.6 320.8 640.0 321.5 C 639.3 322.2 639.2 323.3 638.5 323.7 C 637.8 324.1 636.1 325.5 636.0 326.4 C 635.8 327.3 637.1 328.9 638.3 328.4 C 639.6 327.9 639.9 327.7 640.9 328.1 C 641.8 328.4 642.2 328.1 643.5 328.2 C 644.7 328.3 646.0 328.5 646.6 328.5 C 647.1 328.5 647.5 329.5 649.4 329.0 C 651.3 328.4 650.7 328.6 652.5 328.4 C 654.4 328.1 654.5 327.8 655.5 328.0 C 656.5 328.1 657.5 327.7 658.9 328.1 C 660.3 328.6 661.8 328.4 662.1 327.4 C 662.4 326.5 661.7 325.5 660.4 324.5 C 659.2 323.4 658.2 322.5 657.5 321.3 C 656.9 320.0 656.4 318.7 655.5 317.9 C 654.6 317.0 652.1 313.4 651.6 312.6 C 651.1 311.9 651.1 309.4 649.5 309.1 Z M 649.5 309.1 " fill="#4E8F00"></path><g><clipPath id="clip-137"><path d="M 257.2 449.5 L 497.2 449.5 L 497.2 514.5 L 257.2 514.5 Z M 257.2 449.5 "></path></clipPath><g clip-path="url(#clip-137)"><text xml:space="preserve" font-family="AndaleMono" font-size="23.0" fill="#000000" transform="matrix(1.00, 0.00, -0.00, -1.00, 336.0, 487.0)">M</text><text xml:space="preserve" font-family="AndaleMono" font-size="23.0" fill="#000000" transform="matrix(1.00, 0.00, -0.00, -1.00, 349.8, 487.0)">O</text><text xml:space="preserve" font-family="AndaleMono" font-size="23.0" fill="#000000" transform="matrix(1.00, 0.00, -0.00, -1.00, 363.6, 487.0)">D</text><text xml:space="preserve" font-family="AndaleMono" font-size="23.0" fill="#000000" transform="matrix(1.00, 0.00, -0.00, -1.00, 377.4, 487.0)">E</text><text xml:space="preserve" font-family="AndaleMono" font-size="23.0" fill="#000000" transform="matrix(1.00, 0.00, -0.00, -1.00, 391.2, 487.0)">L</text><text xml:space="preserve" font-family="AndaleMono" font-size="23.0" fill="#000000" transform="matrix(1.00, 0.00, -0.00, -1.00, 405.0, 487.0)">O</text><text xml:space="preserve" font-family="AndaleMono" font-size="23.0" fill="#000000" transform="matrix(1.00, 0.00, -0.00, -1.00, 418.8, 487.0)"> </text><text xml:space="preserve" font-family="AndaleMono" font-size="23.0" fill="#000000" transform="matrix(1.00, 0.00, -0.00, -1.00, 308.0, 461.0)">R</text><text xml:space="preserve" font-family="AndaleMono" font-size="23.0" fill="#000000" transform="matrix(1.00, 0.00, -0.00, -1.00, 321.8, 461.0)">E</text><text xml:space="preserve" font-family="AndaleMono" font-size="23.0" fill="#000000" transform="matrix(1.00, 0.00, -0.00, -1.00, 335.6, 461.0)">L</text><text xml:space="preserve" font-family="AndaleMono" font-size="23.0" fill="#000000" transform="matrix(1.00, 0.00, -0.00, -1.00, 349.4, 461.0)">A</text><text xml:space="preserve" font-family="AndaleMono" font-size="23.0" fill="#000000" transform="matrix(1.00, 0.00, -0.00, -1.00, 363.2, 461.0)">C</text><text xml:space="preserve" font-family="AndaleMono" font-size="23.0" fill="#000000" transform="matrix(1.00, 0.00, -0.00, -1.00, 377.0, 461.0)">I</text><text xml:space="preserve" font-family="AndaleMono" font-size="23.0" fill="#000000" transform="matrix(1.00, 0.00, -0.00, -1.00, 390.8, 461.0)">O</text><text xml:space="preserve" font-family="AndaleMono" font-size="23.0" fill="#000000" transform="matrix(1.00, 0.00, -0.00, -1.00, 404.6, 461.0)">N</text><text xml:space="preserve" font-family="AndaleMono" font-size="23.0" fill="#000000" transform="matrix(1.00, 0.00, -0.00, -1.00, 418.4, 461.0)">A</text><text xml:space="preserve" font-family="AndaleMono" font-size="23.0" fill="#000000" transform="matrix(1.00, 0.00, -0.00, -1.00, 432.2, 461.0)">L</text></g></g><g><clipPath id="clip-138"><path d="M 363.3 505.0 L 402.3 505.0 L 402.3 566.0 L 363.3 566.0 Z M 363.3 505.0 "></path></clipPath><g clip-path="url(#clip-138)"><text xml:space="preserve" font-family="Helvetica-Bold" font-weight="bold" font-size="36.0" fill="#000000" transform="matrix(1.00, 0.00, -0.00, -1.00, 373.0, 522.0)">2</text></g></g><g><clipPath id="clip-139"><path d="M 254.8 304.4 L 510.8 304.4 L 510.8 658.3 L 254.8 658.3 Z M 254.8 304.4 "></path></clipPath><g clip-path="url(#clip-139)"><image xlink:href="7A3077ED7962EF3673B01378B85B3EA1.png" width="255.00" height="352.00" transform="matrix(1.00, 0.00, -0.00, -1.00, 255.8, 657.3)"></image><path d="M 437.4 532.3 C 435.6 534.2 433.0 537.3 435.5 540.5 C 438.0 543.7 442.3 543.9 445.6 540.6 C 448.8 537.3 446.8 537.0 452.6 528.7 C 454.8 525.6 448.7 521.5 446.7 524.4 C 442.0 531.1 440.9 528.8 437.4 532.3 C 437.4 532.3 437.4 532.3 437.4 532.3 Z M 442.2 543.9 C 446.2 540.2 446.2 537.4 443.6 534.5 C 440.8 531.5 437.4 532.4 434.3 535.3 C 431.2 538.1 432.8 539.9 426.9 543.8 C 423.7 545.9 428.1 551.8 430.9 549.9 C 437.8 545.3 438.1 547.6 442.2 543.9 C 442.2 543.9 442.2 543.9 442.2 543.9 Z M 446.9 524.2 C 445.0 526.8 450.9 531.3 453.2 527.9 C 455.7 524.3 458.8 515.5 459.9 513.4 C 461.0 511.2 464.5 505.4 465.0 503.3 C 465.6 501.3 465.3 491.1 466.2 486.9 C 467.1 482.7 466.7 481.4 466.5 478.5 C 466.4 475.5 465.5 470.9 464.8 468.2 C 464.2 465.5 465.5 462.6 464.0 459.1 C 462.4 455.7 462.4 453.6 461.4 451.2 C 459.8 447.3 453.3 450.7 454.6 453.9 C 455.9 457.1 456.2 459.4 457.1 462.1 C 458.0 464.8 459.3 467.1 459.0 469.9 C 458.7 472.7 460.0 477.8 460.5 481.0 C 461.0 484.3 460.6 487.9 460.0 490.5 C 458.8 495.5 456.6 507.9 455.4 509.3 C 454.2 510.8 452.3 516.2 451.2 518.0 C 450.2 519.8 449.3 520.6 446.9 524.2 C 446.9 524.2 446.9 524.2 446.9 524.2 Z M 399.1 400.9 C 395.5 400.2 393.8 407.4 397.8 408.1 C 401.8 408.9 409.2 410.5 411.2 411.4 C 413.2 412.3 421.4 416.8 423.1 417.8 C 424.8 418.8 431.3 421.9 434.1 425.1 C 436.9 428.3 440.7 430.5 442.3 432.9 C 444.4 435.9 445.9 437.2 447.5 439.3 C 449.2 441.5 450.1 445.8 451.7 447.5 C 453.3 449.2 453.2 450.6 454.4 453.5 C 455.6 456.3 462.5 453.8 461.2 450.8 C 460.0 447.8 458.7 445.4 457.0 442.7 C 455.3 439.9 453.0 436.7 450.9 433.8 C 449.0 431.3 446.5 426.9 443.4 424.5 C 440.4 422.1 436.1 418.8 434.3 417.5 C 432.1 416.0 427.5 412.6 425.2 411.8 C 422.2 410.7 417.8 407.7 416.2 406.4 C 414.6 405.0 413.0 405.3 409.0 403.8 C 406.7 403.0 402.8 401.6 399.1 400.9 C 399.1 400.9 399.1 400.9 399.1 400.9 Z M 398.0 400.7 C 393.7 400.0 386.6 400.4 384.9 400.4 C 383.2 400.4 377.4 399.9 374.7 400.3 C 372.0 400.8 371.2 401.4 366.7 402.4 C 361.2 403.6 357.4 404.1 357.1 404.1 C 356.3 404.1 353.4 404.3 349.8 406.0 C 345.1 408.3 343.4 408.5 341.5 409.9 C 338.3 412.6 337.6 412.1 335.1 414.0 C 332.6 415.8 330.8 416.8 329.1 418.7 C 327.2 420.8 325.1 421.4 323.3 423.2 C 320.3 426.1 325.9 430.9 328.5 428.4 C 330.0 427.0 330.9 425.1 332.6 423.7 C 334.4 422.3 336.0 421.2 338.0 420.3 C 340.0 419.3 343.5 416.5 346.7 415.1 C 349.9 413.6 355.4 411.8 359.1 410.4 C 362.9 409.1 365.0 406.5 373.2 406.7 C 375.9 406.7 381.1 406.2 383.2 406.2 C 387.0 406.2 394.1 407.4 397.1 408.0 C 400.7 408.7 402.3 401.5 398.0 400.7 C 398.0 400.7 398.0 400.7 398.0 400.7 Z M 299.8 498.4 C 300.5 502.1 307.8 500.9 307.0 496.9 C 306.1 493.0 304.8 485.7 304.9 483.5 C 305.0 481.3 306.1 472.3 306.4 470.5 C 306.7 468.6 307.1 461.6 309.0 458.0 C 310.9 454.5 311.4 450.4 313.0 448.1 C 314.9 445.2 315.6 443.4 316.9 441.0 C 318.3 438.7 322.0 436.2 323.0 434.0 C 324.1 431.9 325.5 431.3 327.8 429.0 C 330.2 426.7 325.3 421.3 322.9 423.7 C 320.4 426.1 318.5 428.3 316.6 431.0 C 314.6 433.6 312.4 436.9 310.6 439.9 C 308.9 442.6 305.9 446.4 304.9 449.9 C 303.9 453.4 302.4 458.4 301.9 460.4 C 301.3 463.0 300.0 468.3 300.1 470.7 C 300.1 473.8 299.1 478.9 298.4 480.8 C 297.8 482.7 298.6 484.0 298.7 488.2 C 298.8 490.7 299.0 494.7 299.8 498.4 C 299.8 498.4 299.8 498.4 299.8 498.4 Z M 300.0 499.5 C 301.0 503.8 304.2 510.2 304.8 511.8 C 305.5 513.4 307.4 518.9 308.9 521.3 C 310.4 523.6 311.3 524.2 314.2 528.0 C 317.8 532.7 320.0 536.0 320.1 536.3 C 320.5 537.1 322.0 539.9 325.2 542.5 C 329.5 545.9 330.4 547.4 332.5 548.5 C 336.4 550.2 336.3 551.0 339.0 552.5 C 341.8 554.0 343.3 555.1 345.7 555.8 C 348.3 556.6 349.8 558.2 352.1 559.0 C 355.7 560.4 357.7 553.3 354.6 552.1 C 352.7 551.4 350.7 551.4 348.7 550.5 C 346.8 549.5 345.2 548.5 343.4 547.2 C 341.7 545.8 337.7 543.8 334.9 541.5 C 332.2 539.2 328.0 534.9 325.0 531.9 C 322.0 528.8 318.7 527.9 315.3 520.1 C 314.3 517.6 311.6 513.0 310.8 511.1 C 309.3 507.6 307.7 500.6 307.1 497.6 C 306.3 494.0 299.1 495.3 300.0 499.5 C 300.0 499.5 300.0 499.5 300.0 499.5 Z M 430.2 550.5 C 433.4 548.4 429.6 542.1 426.1 544.4 C 422.6 546.7 416.1 550.7 414.0 551.5 C 411.9 552.2 403.0 554.6 401.2 555.1 C 399.3 555.5 392.6 557.8 388.6 557.4 C 384.5 557.1 380.6 558.3 377.9 557.8 C 374.5 557.2 372.7 557.3 370.1 557.1 C 367.4 556.8 363.8 554.5 361.5 554.5 C 359.2 554.5 358.2 553.5 355.3 552.4 C 352.4 551.3 349.6 558.1 352.6 559.2 C 355.6 560.3 358.3 561.0 361.3 561.6 C 364.4 562.3 368.2 562.9 371.6 563.3 C 374.6 563.7 379.2 564.9 382.8 564.5 C 386.4 564.0 391.5 563.4 393.5 563.1 C 396.1 562.6 401.6 561.8 403.8 560.8 C 406.6 559.6 411.8 558.7 413.9 558.5 C 416.0 558.4 416.9 557.2 420.8 555.4 C 423.2 554.3 426.9 552.6 430.2 550.5 C 430.2 550.5 430.2 550.5 430.2 550.5 Z M 430.2 550.5 " fill="#941100"></path></g></g><image xlink:href="../../2EBA330A-4FD6-4DE7-908B-4508CE896393/assets/7A3077ED7962EF3673B01378B85B3EA1.png" width="255.00" height="352.00" transform="matrix(1.00, 0.00, -0.00, -1.00, 521.7, 657.3)"></image><path d="M 703.4 532.3 C 701.5 534.2 699.0 537.3 701.4 540.5 C 703.9 543.7 708.2 543.9 711.5 540.6 C 714.7 537.3 712.7 537.0 718.6 528.7 C 720.7 525.6 714.7 521.5 712.7 524.4 C 707.9 531.1 706.8 528.8 703.4 532.3 C 703.4 532.3 703.4 532.3 703.4 532.3 Z M 708.1 543.9 C 712.2 540.2 712.1 537.4 709.5 534.5 C 706.8 531.5 703.3 532.4 700.2 535.3 C 697.1 538.1 698.7 539.9 692.8 543.8 C 689.6 545.9 694.0 551.8 696.9 549.9 C 703.7 545.3 704.1 547.6 708.1 543.9 C 708.1 543.9 708.1 543.9 708.1 543.9 Z M 712.8 524.2 C 710.9 526.8 716.8 531.3 719.1 527.9 C 721.6 524.3 724.7 515.5 725.8 513.4 C 726.9 511.2 730.4 505.4 731.0 503.3 C 731.5 501.3 731.2 491.1 732.1 486.9 C 733.0 482.7 732.6 481.4 732.5 478.5 C 732.3 475.5 731.4 470.9 730.7 468.2 C 730.1 465.5 731.4 462.6 729.9 459.1 C 728.3 455.7 728.3 453.6 727.3 451.2 C 725.7 447.3 719.2 450.7 720.5 453.9 C 721.8 457.1 722.1 459.4 723.0 462.1 C 723.9 464.8 725.2 467.1 724.9 469.9 C 724.6 472.7 725.9 477.8 726.4 481.0 C 726.9 484.3 726.5 487.9 725.9 490.5 C 724.7 495.5 722.6 507.9 721.3 509.3 C 720.1 510.8 718.2 516.2 717.2 518.0 C 716.2 519.8 715.2 520.6 712.8 524.2 C 712.8 524.2 712.8 524.2 712.8 524.2 Z M 665.1 400.9 C 661.4 400.2 659.7 407.4 663.7 408.1 C 667.7 408.9 675.1 410.5 677.1 411.4 C 679.1 412.3 687.3 416.8 689.0 417.8 C 690.7 418.8 697.2 421.9 700.0 425.1 C 702.8 428.3 706.6 430.5 708.2 432.9 C 710.3 435.9 711.8 437.2 713.5 439.3 C 715.1 441.5 716.0 445.8 717.6 447.5 C 719.2 449.2 719.1 450.6 720.3 453.5 C 721.5 456.3 728.4 453.8 727.1 450.8 C 725.9 447.8 724.6 445.4 722.9 442.7 C 721.2 439.9 719.0 436.7 716.8 433.8 C 714.9 431.3 712.4 426.9 709.3 424.5 C 706.3 422.1 702.0 418.8 700.2 417.5 C 698.0 416.0 693.4 412.6 691.1 411.8 C 688.1 410.7 683.7 407.7 682.1 406.4 C 680.5 405.0 679.0 405.3 675.0 403.8 C 672.6 403.0 668.8 401.6 665.1 400.9 C 665.1 400.9 665.1 400.9 665.1 400.9 Z M 663.9 400.7 C 659.6 400.0 652.5 400.4 650.8 400.4 C 649.1 400.4 643.3 399.9 640.6 400.3 C 637.9 400.8 637.1 401.4 632.7 402.4 C 627.1 403.6 623.3 404.1 623.1 404.1 C 622.2 404.1 619.3 404.3 615.7 406.0 C 611.0 408.3 609.3 408.5 607.4 409.9 C 604.2 412.6 603.5 412.1 601.0 414.0 C 598.5 415.8 596.7 416.8 595.0 418.7 C 593.1 420.8 591.0 421.4 589.2 423.2 C 586.2 426.1 591.8 430.9 594.4 428.4 C 595.9 427.0 596.8 425.1 598.5 423.7 C 600.3 422.3 601.9 421.2 603.9 420.3 C 605.9 419.3 609.4 416.5 612.6 415.1 C 615.8 413.6 621.3 411.8 625.0 410.4 C 628.8 409.1 630.9 406.5 639.2 406.7 C 641.8 406.7 647.0 406.2 649.1 406.2 C 652.9 406.2 660.0 407.4 663.0 408.0 C 666.7 408.7 668.2 401.5 663.9 400.7 C 663.9 400.7 663.9 400.7 663.9 400.7 Z M 565.7 498.4 C 566.4 502.1 573.7 500.9 572.9 496.9 C 572.1 493.0 570.7 485.7 570.8 483.5 C 571.0 481.3 572.0 472.3 572.3 470.5 C 572.6 468.6 573.1 461.6 574.9 458.0 C 576.8 454.5 577.3 450.4 578.9 448.1 C 580.8 445.2 581.5 443.4 582.8 441.0 C 584.2 438.7 587.9 436.2 588.9 434.0 C 590.0 431.9 591.4 431.3 593.8 429.0 C 596.1 426.7 591.2 421.3 588.8 423.7 C 586.3 426.1 584.4 428.3 582.5 431.0 C 580.5 433.6 578.3 436.9 576.5 439.9 C 574.8 442.6 571.8 446.4 570.8 449.9 C 569.8 453.4 568.3 458.4 567.8 460.4 C 567.2 463.0 565.9 468.3 566.0 470.7 C 566.1 473.8 565.0 478.9 564.3 480.8 C 563.7 482.7 564.5 484.0 564.6 488.2 C 564.7 490.7 564.9 494.7 565.7 498.4 C 565.7 498.4 565.7 498.4 565.7 498.4 Z M 565.9 499.5 C 566.9 503.8 570.1 510.2 570.7 511.8 C 571.4 513.4 573.3 518.9 574.8 521.3 C 576.3 523.6 577.2 524.2 580.1 528.0 C 583.7 532.7 585.9 536.0 586.0 536.3 C 586.4 537.1 587.9 539.9 591.1 542.5 C 595.4 545.9 596.3 547.4 598.5 548.5 C 602.3 550.2 602.2 551.0 604.9 552.5 C 607.7 554.0 609.3 555.1 611.6 555.8 C 614.3 556.6 615.7 558.2 618.0 559.0 C 621.7 560.4 623.6 553.3 620.5 552.1 C 618.6 551.4 616.6 551.4 614.6 550.5 C 612.7 549.5 611.1 548.5 609.3 547.2 C 607.6 545.8 603.6 543.8 600.8 541.5 C 598.1 539.2 593.9 534.9 590.9 531.9 C 588.0 528.8 584.6 527.9 581.3 520.1 C 580.2 517.6 577.5 513.0 576.7 511.1 C 575.2 507.6 573.6 500.6 573.0 497.6 C 572.2 494.0 565.0 495.3 565.9 499.5 C 565.9 499.5 565.9 499.5 565.9 499.5 Z M 696.1 550.5 C 699.3 548.4 695.5 542.1 692.0 544.4 C 688.6 546.7 682.1 550.7 680.0 551.5 C 677.8 552.2 668.9 554.6 667.1 555.1 C 665.2 555.5 658.5 557.8 654.5 557.4 C 650.5 557.1 646.6 558.3 643.8 557.8 C 640.4 557.2 638.6 557.3 636.0 557.1 C 633.3 556.8 629.7 554.5 627.4 554.5 C 625.1 554.5 624.1 553.5 621.2 552.4 C 618.3 551.3 615.5 558.1 618.5 559.2 C 621.5 560.3 624.2 561.0 627.3 561.6 C 630.4 562.3 634.1 562.9 637.5 563.3 C 640.5 563.7 645.1 564.9 648.7 564.5 C 652.3 564.0 657.4 563.4 659.5 563.1 C 662.0 562.6 667.5 561.8 669.7 560.8 C 672.5 559.6 677.8 558.7 679.8 558.5 C 681.9 558.4 682.8 557.2 686.8 555.4 C 689.1 554.3 692.8 552.6 696.1 550.5 C 696.1 550.5 696.1 550.5 696.1 550.5 Z M 696.1 550.5 " fill="#011892"></path><image xlink:href="../../2EBA330A-4FD6-4DE7-908B-4508CE896393/assets/7A3077ED7962EF3673B01378B85B3EA1.png" width="255.00" height="352.00" transform="matrix(1.00, 0.00, -0.00, -1.00, 749.1, 656.0)"></image><path d="M 930.8 531.0 C 928.9 532.9 926.4 536.0 928.9 539.2 C 931.3 542.4 935.7 542.6 938.9 539.3 C 942.2 536.0 940.1 535.8 946.0 527.4 C 948.2 524.3 942.1 520.2 940.1 523.1 C 935.3 529.8 934.2 527.5 930.8 531.0 C 930.8 531.0 930.8 531.0 930.8 531.0 Z M 935.5 542.6 C 939.6 538.9 939.6 536.1 936.9 533.2 C 934.2 530.2 930.8 531.1 927.6 534.0 C 924.5 536.8 926.2 538.6 920.2 542.5 C 917.0 544.6 921.5 550.6 924.3 548.6 C 931.2 544.0 931.5 546.3 935.5 542.6 C 935.5 542.6 935.5 542.6 935.5 542.6 Z M 940.2 522.9 C 938.4 525.5 944.2 530.1 946.6 526.7 C 949.0 523.1 952.2 514.2 953.3 512.1 C 954.4 509.9 957.8 504.1 958.4 502.0 C 958.9 500.0 958.7 489.8 959.5 485.6 C 960.4 481.4 960.0 480.1 959.9 477.2 C 959.8 474.2 958.8 469.6 958.2 466.9 C 957.5 464.2 958.9 461.3 957.3 457.8 C 955.8 454.4 955.7 452.3 954.8 449.9 C 953.2 446.0 946.6 449.4 948.0 452.6 C 949.3 455.8 949.5 458.1 950.5 460.9 C 951.4 463.6 952.7 465.8 952.4 468.6 C 952.0 471.4 953.4 476.5 953.9 479.7 C 954.4 483.0 953.9 486.6 953.3 489.2 C 952.2 494.2 950.0 506.6 948.8 508.0 C 947.5 509.5 945.6 514.9 944.6 516.8 C 943.6 518.6 942.7 519.3 940.2 522.9 C 940.2 522.9 940.2 522.9 940.2 522.9 Z M 892.5 399.6 C 888.8 398.9 887.1 406.1 891.1 406.9 C 895.1 407.6 902.5 409.2 904.5 410.1 C 906.6 411.0 914.7 415.5 916.4 416.5 C 918.1 417.5 924.7 420.6 927.4 423.9 C 930.2 427.0 934.0 429.2 935.7 431.6 C 937.8 434.6 939.2 435.9 940.9 438.1 C 942.6 440.2 943.4 444.5 945.0 446.2 C 946.6 447.9 946.6 449.3 947.8 452.2 C 949.0 455.0 955.8 452.5 954.6 449.5 C 953.3 446.6 952.0 444.1 950.3 441.4 C 948.6 438.7 946.4 435.4 944.3 432.6 C 942.4 430.0 939.8 425.6 936.8 423.2 C 933.7 420.8 929.5 417.5 927.7 416.2 C 925.5 414.7 920.8 411.3 918.5 410.5 C 915.6 409.4 911.1 406.4 909.5 405.1 C 908.0 403.8 906.4 404.0 902.4 402.6 C 900.0 401.7 896.2 400.4 892.5 399.6 C 892.5 399.6 892.5 399.6 892.5 399.6 Z M 891.4 399.4 C 887.1 398.7 880.0 399.2 878.3 399.1 C 876.6 399.1 870.8 398.6 868.1 399.1 C 865.4 399.5 864.5 400.1 860.1 401.1 C 854.5 402.3 850.8 402.9 850.5 402.9 C 849.6 402.8 846.7 403.0 843.2 404.7 C 838.4 407.0 836.7 407.2 834.8 408.6 C 831.7 411.3 831.0 410.8 828.5 412.7 C 825.9 414.6 824.2 415.5 822.5 417.4 C 820.6 419.5 818.4 420.1 816.6 421.9 C 813.7 424.8 819.3 429.6 821.8 427.2 C 823.4 425.7 824.3 423.8 826.0 422.4 C 827.7 421.0 829.4 420.0 831.3 419.0 C 833.3 418.0 836.9 415.2 840.0 413.8 C 843.2 412.3 848.7 410.5 852.5 409.2 C 856.2 407.8 858.3 405.2 866.6 405.4 C 869.2 405.4 874.4 404.9 876.6 404.9 C 880.3 404.9 887.4 406.2 890.5 406.7 C 894.1 407.4 895.6 400.2 891.4 399.4 C 891.4 399.4 891.4 399.4 891.4 399.4 Z M 793.1 497.1 C 793.9 500.8 801.1 499.6 800.3 495.6 C 799.5 491.7 798.2 484.4 798.3 482.2 C 798.4 480.0 799.5 471.1 799.8 469.2 C 800.1 467.3 800.5 460.3 802.4 456.8 C 804.3 453.2 804.8 449.1 806.3 446.8 C 808.3 443.9 808.9 442.1 810.3 439.7 C 811.6 437.4 815.3 434.9 816.4 432.8 C 817.4 430.6 818.8 430.1 821.2 427.7 C 823.6 425.4 818.7 420.0 816.2 422.4 C 813.8 424.8 811.9 427.0 809.9 429.7 C 808.0 432.3 805.8 435.6 803.9 438.6 C 802.3 441.3 799.3 445.1 798.2 448.6 C 797.2 452.1 795.8 457.1 795.3 459.1 C 794.7 461.7 793.3 467.0 793.4 469.4 C 793.5 472.5 792.4 477.6 791.8 479.5 C 791.1 481.4 791.9 482.8 792.1 487.0 C 792.2 489.5 792.4 493.4 793.1 497.1 C 793.1 497.1 793.1 497.1 793.1 497.1 Z M 793.4 498.3 C 794.3 502.5 797.5 508.9 798.2 510.5 C 798.8 512.1 800.8 517.6 802.3 520.0 C 803.8 522.4 804.7 522.9 807.5 526.7 C 811.1 531.4 813.3 534.7 813.5 535.0 C 813.9 535.8 815.4 538.6 818.6 541.2 C 822.8 544.6 823.8 546.1 825.9 547.2 C 829.8 548.9 829.6 549.8 832.4 551.2 C 835.1 552.7 836.7 553.8 839.1 554.5 C 841.7 555.3 843.1 556.9 845.4 557.7 C 849.1 559.1 851.1 552.0 847.9 550.8 C 846.0 550.1 844.0 550.1 842.1 549.2 C 840.1 548.2 838.5 547.2 836.8 545.9 C 835.1 544.5 831.0 542.5 828.3 540.2 C 825.5 537.9 821.3 533.6 818.4 530.6 C 815.4 527.5 812.0 526.6 808.7 518.8 C 807.6 516.3 805.0 511.7 804.1 509.8 C 802.7 506.3 801.1 499.3 800.4 496.3 C 799.7 492.7 792.4 494.0 793.4 498.3 C 793.4 498.3 793.4 498.3 793.4 498.3 Z M 923.5 549.2 C 926.8 547.1 923.0 540.8 919.5 543.1 C 916.0 545.4 909.5 549.4 907.4 550.2 C 905.3 550.9 896.4 553.3 894.5 553.8 C 892.6 554.2 886.0 556.5 881.9 556.2 C 877.9 555.8 874.0 557.0 871.3 556.5 C 867.9 555.9 866.0 556.1 863.4 555.8 C 860.8 555.5 857.2 553.2 854.9 553.2 C 852.6 553.2 851.6 552.2 848.7 551.1 C 845.7 550.0 843.0 556.8 846.0 557.9 C 849.0 559.0 851.6 559.7 854.7 560.3 C 857.8 561.0 861.6 561.6 864.9 562.0 C 868.0 562.4 872.5 563.6 876.1 563.2 C 879.7 562.7 884.9 562.1 886.9 561.8 C 889.5 561.4 895.0 560.5 897.2 559.6 C 900.0 558.3 905.2 557.4 907.3 557.3 C 909.3 557.1 910.3 555.9 914.2 554.1 C 916.5 553.1 920.3 551.4 923.5 549.2 C 923.5 549.2 923.5 549.2 923.5 549.2 Z M 923.5 549.2 " fill="#424242"></path><image xlink:href="../../2EBA330A-4FD6-4DE7-908B-4508CE896393/assets/7A3077ED7962EF3673B01378B85B3EA1.png" width="255.00" height="352.00" transform="matrix(1.00, 0.00, -0.00, -1.00, 14.8, 662.0)"></image><path d="M 196.4 537.0 C 194.6 538.9 192.1 542.0 194.5 545.2 C 197.0 548.4 201.3 548.6 204.6 545.3 C 207.8 542.0 205.8 541.8 211.7 533.4 C 213.8 530.3 207.7 526.2 205.7 529.1 C 201.0 535.8 199.9 533.5 196.4 537.0 C 196.4 537.0 196.4 537.0 196.4 537.0 Z M 201.2 548.6 C 205.2 544.9 205.2 542.1 202.6 539.2 C 199.9 536.2 196.4 537.1 193.3 540.0 C 190.2 542.8 191.8 544.6 185.9 548.5 C 182.7 550.6 187.1 556.6 190.0 554.6 C 196.8 550.0 197.1 552.3 201.2 548.6 C 201.2 548.6 201.2 548.6 201.2 548.6 Z M 205.9 528.9 C 204.0 531.5 209.9 536.1 212.2 532.7 C 214.7 529.1 217.8 520.2 218.9 518.1 C 220.0 515.9 223.5 510.1 224.0 508.0 C 224.6 506.0 224.3 495.8 225.2 491.6 C 226.1 487.4 225.7 486.1 225.5 483.2 C 225.4 480.2 224.5 475.6 223.8 472.9 C 223.2 470.2 224.5 467.3 223.0 463.8 C 221.4 460.4 221.4 458.3 220.4 455.9 C 218.8 452.0 212.3 455.4 213.6 458.6 C 214.9 461.8 215.2 464.1 216.1 466.9 C 217.0 469.6 218.3 471.8 218.0 474.6 C 217.7 477.4 219.0 482.5 219.5 485.7 C 220.0 489.0 219.6 492.6 219.0 495.2 C 217.8 500.2 215.7 512.6 214.4 514.0 C 213.2 515.5 211.3 520.9 210.3 522.8 C 209.3 524.6 208.3 525.3 205.9 528.9 C 205.9 528.9 205.9 528.9 205.9 528.9 Z M 158.2 405.6 C 154.5 404.9 152.8 412.1 156.8 412.9 C 160.8 413.6 168.2 415.2 170.2 416.1 C 172.2 417.0 180.4 421.5 182.1 422.5 C 183.8 423.5 190.3 426.6 193.1 429.9 C 195.9 433.0 199.7 435.2 201.3 437.6 C 203.4 440.6 204.9 441.9 206.6 444.1 C 208.2 446.2 209.1 450.5 210.7 452.2 C 212.3 453.9 212.2 455.3 213.4 458.2 C 214.6 461.0 221.5 458.5 220.2 455.5 C 219.0 452.6 217.7 450.1 216.0 447.4 C 214.3 444.7 212.0 441.4 209.9 438.6 C 208.0 436.0 205.5 431.6 202.4 429.2 C 199.4 426.8 195.1 423.5 193.3 422.2 C 191.1 420.7 186.5 417.3 184.2 416.5 C 181.2 415.4 176.8 412.4 175.2 411.1 C 173.6 409.8 172.1 410.0 168.0 408.6 C 165.7 407.7 161.9 406.4 158.2 405.6 C 158.2 405.6 158.2 405.6 158.2 405.6 Z M 157.0 405.4 C 152.7 404.7 145.6 405.2 143.9 405.1 C 142.2 405.1 136.4 404.6 133.7 405.1 C 131.0 405.5 130.2 406.1 125.7 407.1 C 120.2 408.3 116.4 408.9 116.2 408.9 C 115.3 408.8 112.4 409.0 108.8 410.7 C 104.1 413.0 102.4 413.2 100.5 414.6 C 97.3 417.3 96.6 416.8 94.1 418.7 C 91.6 420.6 89.8 421.5 88.1 423.4 C 86.2 425.5 84.1 426.1 82.3 427.9 C 79.3 430.8 84.9 435.6 87.5 433.2 C 89.0 431.7 89.9 429.8 91.6 428.4 C 93.4 427.0 95.0 426.0 97.0 425.0 C 99.0 424.0 102.5 421.2 105.7 419.8 C 108.9 418.3 114.4 416.5 118.1 415.2 C 121.9 413.8 124.0 411.2 132.2 411.4 C 134.9 411.4 140.1 410.9 142.2 410.9 C 146.0 410.9 153.1 412.2 156.1 412.7 C 159.7 413.4 161.3 406.2 157.0 405.4 C 157.0 405.4 157.0 405.4 157.0 405.4 Z M 58.8 503.1 C 59.5 506.8 66.8 505.6 66.0 501.6 C 65.2 497.7 63.8 490.4 63.9 488.2 C 64.0 486.0 65.1 477.1 65.4 475.2 C 65.7 473.3 66.2 466.3 68.0 462.8 C 69.9 459.2 70.4 455.1 72.0 452.8 C 73.9 449.9 74.6 448.1 75.9 445.7 C 77.3 443.4 81.0 440.9 82.0 438.8 C 83.1 436.6 84.5 436.1 86.8 433.7 C 89.2 431.4 84.3 426.0 81.9 428.4 C 79.4 430.8 77.5 433.0 75.6 435.7 C 73.6 438.3 71.4 441.6 69.6 444.6 C 67.9 447.3 64.9 451.1 63.9 454.6 C 62.9 458.1 61.4 463.1 60.9 465.1 C 60.3 467.7 59.0 473.0 59.1 475.4 C 59.2 478.5 58.1 483.6 57.4 485.5 C 56.8 487.4 57.6 488.8 57.7 493.0 C 57.8 495.5 58.0 499.4 58.8 503.1 C 58.8 503.1 58.8 503.1 58.8 503.1 Z M 59.0 504.3 C 60.0 508.5 63.2 514.9 63.8 516.5 C 64.5 518.1 66.4 523.6 67.9 526.0 C 69.4 528.4 70.3 528.9 73.2 532.7 C 76.8 537.4 79.0 540.7 79.1 541.0 C 79.5 541.8 81.0 544.6 84.2 547.2 C 88.5 550.6 89.4 552.1 91.5 553.2 C 95.4 554.9 95.3 555.8 98.0 557.2 C 100.8 558.7 102.4 559.8 104.7 560.5 C 107.4 561.3 108.8 562.9 111.1 563.7 C 114.7 565.1 116.7 558.0 113.6 556.8 C 111.7 556.1 109.7 556.1 107.7 555.2 C 105.8 554.2 104.2 553.2 102.4 551.9 C 100.7 550.5 96.7 548.5 93.9 546.2 C 91.2 543.9 87.0 539.6 84.0 536.6 C 81.1 533.5 77.7 532.6 74.4 524.8 C 73.3 522.3 70.6 517.7 69.8 515.8 C 68.3 512.3 66.7 505.3 66.1 502.3 C 65.3 498.7 58.1 500.0 59.0 504.3 C 59.0 504.3 59.0 504.3 59.0 504.3 Z M 189.2 555.2 C 192.4 553.1 188.6 546.8 185.1 549.1 C 181.7 551.4 175.2 555.4 173.1 556.2 C 170.9 556.9 162.0 559.3 160.2 559.8 C 158.3 560.2 151.6 562.5 147.6 562.2 C 143.6 561.8 139.7 563.0 136.9 562.5 C 133.5 561.9 131.7 562.1 129.1 561.8 C 126.4 561.5 122.8 559.2 120.5 559.2 C 118.2 559.2 117.2 558.2 114.3 557.1 C 111.4 556.0 108.6 562.8 111.6 563.9 C 114.6 565.0 117.3 565.7 120.4 566.3 C 123.5 567.0 127.2 567.6 130.6 568.0 C 133.6 568.4 138.2 569.6 141.8 569.2 C 145.4 568.7 150.5 568.1 152.6 567.8 C 155.1 567.4 160.6 566.5 162.8 565.6 C 165.6 564.3 170.9 563.4 172.9 563.3 C 175.0 563.1 175.9 561.9 179.9 560.1 C 182.2 559.1 185.9 557.4 189.2 555.2 C 189.2 555.2 189.2 555.2 189.2 555.2 Z M 189.2 555.2 " fill="#4E8F00"></path></g></svg>