<?xml version="1.0" encoding="UTF-8" standalone="no"?><svg xmlns="http://www.w3.org/2000/svg" xmlns:xlink="http://www.w3.org/1999/xlink" clip-rule="evenodd" stroke-miterlimit="4.00" viewBox="0 0 1024 768"><desc>SVG generated by Keynote</desc><defs></defs><g transform="matrix(1.00, 0.00, -0.00, -1.00, 0.0, 768.0)"><path d="M 0.0 768.0 L 1024.0 768.0 L 1024.0 0.0 L 0.0 0.0 Z M 0.0 768.0 " fill="#FEFFFF"></path><image xlink:href="../../0F29146C-9DF7-4335-AC59-5CBBD4921574/assets/C3B5300DA5709CC61757D4DBF37F837A.png" width="701.00" height="138.00" transform="matrix(1.00, 0.00, -0.00, -1.00, 183.3, 755.5)" opacity="0.50"></image><path d="M 196.7 740.2 C 194.0 740.2 190.4 740.7 189.9 744.7 C 189.5 748.7 192.4 751.8 196.5 751.8 C 200.6 751.8 199.4 749.6 209.0 749.6 C 212.5 749.6 212.7 742.3 209.1 742.3 C 200.6 742.3 201.8 740.2 196.7 740.2 C 196.7 740.2 196.7 740.2 196.7 740.2 Z M 870.7 751.8 C 871.6 751.8 872.4 751.8 873.1 751.6 L 878.7 746.0 C 878.2 742.8 876.3 741.5 873.2 741.4 C 869.9 741.3 868.1 743.0 867.5 746.0 L 873.1 740.4 C 872.4 740.2 871.5 740.1 870.7 740.1 C 866.3 740.1 866.5 742.3 859.1 742.3 C 855.1 742.2 855.8 749.6 859.1 749.6 C 866.9 749.6 865.7 751.8 870.7 751.8 C 870.7 751.8 870.7 751.8 870.7 751.8 Z M 209.4 742.3 C 206.0 742.3 205.9 749.7 209.9 749.7 C 214.1 749.7 223.3 748.3 225.7 748.5 C 228.1 748.6 234.7 750.0 236.8 750.0 C 238.9 750.0 249.1 747.9 253.5 748.5 C 257.8 749.1 259.0 748.8 262.1 748.8 C 265.0 748.8 269.8 748.3 272.7 748.2 C 275.5 748.0 278.1 750.0 281.8 749.4 C 285.6 748.9 287.6 749.7 290.2 749.7 C 294.3 749.7 294.1 742.3 290.2 742.3 C 286.5 742.3 283.9 741.9 280.8 742.0 C 277.6 742.2 274.9 742.9 271.9 742.2 C 268.9 741.4 263.1 742.2 259.5 742.7 C 255.9 743.2 251.9 742.9 249.1 742.6 C 243.4 742.0 229.7 743.4 227.8 742.8 C 225.8 742.2 219.6 742.8 217.3 742.8 C 215.1 742.8 213.9 742.3 209.4 742.3 C 209.4 742.3 209.4 742.3 209.4 742.3 Z M 371.2 749.7 C 374.9 749.7 375.6 742.3 371.2 742.3 C 366.7 742.3 358.6 743.0 356.2 742.9 C 353.8 742.7 343.8 742.2 341.7 742.2 C 339.6 742.2 332.0 743.3 327.7 742.7 C 323.3 742.1 319.1 743.3 316.1 743.0 C 312.4 742.6 310.4 743.0 307.5 743.1 C 304.7 743.3 300.3 741.8 297.9 742.4 C 295.5 743.0 294.1 742.3 290.7 742.3 C 287.4 742.3 287.4 749.6 290.6 749.6 C 293.7 749.6 296.5 749.5 299.6 749.4 C 302.8 749.2 306.6 749.1 310.0 749.1 C 313.1 749.1 317.8 750.0 321.4 749.5 C 325.0 749.1 330.2 748.9 332.3 748.8 C 334.9 748.7 340.5 748.9 342.9 748.5 C 346.0 748.0 351.3 748.7 353.3 749.4 C 355.3 750.0 356.6 749.1 360.8 749.3 C 363.4 749.4 367.4 749.7 371.2 749.7 C 371.2 749.7 371.2 749.7 371.2 749.7 Z M 372.3 749.7 C 376.7 749.7 383.8 748.7 385.5 748.7 C 387.2 748.7 393.0 749.2 395.8 749.1 C 398.5 748.9 399.5 748.3 404.1 748.2 C 409.9 748.0 413.7 748.7 413.9 748.8 C 414.8 749.1 417.6 749.8 421.5 749.6 C 426.7 749.3 428.2 750.0 430.5 749.7 C 434.5 748.8 434.9 749.6 437.9 749.4 C 441.0 749.3 442.9 749.6 445.3 749.2 C 448.0 748.8 449.9 749.7 452.3 749.7 C 456.2 749.7 455.8 742.3 452.2 742.3 C 450.0 742.3 448.0 743.1 445.7 743.1 C 443.4 743.1 441.4 742.9 439.1 742.6 C 436.8 742.3 432.0 742.8 428.3 742.6 C 424.5 742.5 418.3 742.0 414.0 742.2 C 409.6 742.3 406.9 744.1 398.0 742.9 C 395.2 742.6 389.5 742.9 387.2 742.9 C 383.1 742.9 375.3 742.3 371.9 742.3 C 367.9 742.3 368.0 749.7 372.3 749.7 C 372.3 749.7 372.3 749.7 372.3 749.7 Z M 533.5 749.7 C 537.2 749.7 537.9 742.3 533.5 742.3 C 529.0 742.3 520.9 743.0 518.5 742.9 C 516.1 742.7 506.1 742.2 504.0 742.2 C 501.9 742.2 494.4 743.3 490.0 742.7 C 485.7 742.1 481.4 743.3 478.4 743.0 C 474.7 742.6 472.7 743.0 469.9 743.1 C 467.0 743.3 462.6 741.8 460.2 742.4 C 457.8 743.0 456.4 742.3 453.1 742.3 C 449.7 742.3 449.7 749.6 452.9 749.6 C 456.1 749.6 458.8 749.5 461.9 749.4 C 465.1 749.2 468.9 749.1 472.3 749.1 C 475.4 749.1 480.1 750.0 483.7 749.5 C 487.3 749.1 492.5 748.9 494.6 748.8 C 497.2 748.7 502.8 748.9 505.3 748.5 C 508.3 748.0 513.7 748.7 515.6 749.4 C 517.6 750.0 518.9 749.1 523.2 749.3 C 525.7 749.4 529.7 749.7 533.5 749.7 C 533.5 749.7 533.5 749.7 533.5 749.7 Z M 534.6 749.7 C 539.0 749.7 546.1 748.7 547.8 748.7 C 549.6 748.7 555.4 749.2 558.1 749.1 C 560.9 748.9 561.8 748.3 566.4 748.2 C 572.2 748.0 576.0 748.7 576.3 748.8 C 577.1 749.1 579.9 749.8 583.8 749.6 C 589.0 749.3 590.5 750.0 592.9 749.7 C 596.8 748.8 597.2 749.6 600.3 749.4 C 603.3 749.3 605.2 749.6 607.6 749.2 C 610.3 748.8 612.2 749.7 614.7 749.7 C 618.5 749.7 618.2 742.3 614.5 742.3 C 612.3 742.3 610.4 743.1 608.1 743.1 C 605.7 743.1 603.7 742.9 601.4 742.6 C 599.1 742.3 594.4 742.8 590.6 742.6 C 586.9 742.5 580.6 742.0 576.3 742.2 C 571.9 742.3 569.2 744.1 560.4 742.9 C 557.5 742.6 551.8 742.9 549.5 742.9 C 545.4 742.9 537.6 742.3 534.2 742.3 C 530.2 742.3 530.3 749.7 534.6 749.7 C 534.6 749.7 534.6 749.7 534.6 749.7 Z M 695.8 749.7 C 699.6 749.7 700.2 742.3 695.8 742.3 C 691.4 742.3 683.2 743.0 680.8 742.9 C 678.4 742.7 668.4 742.2 666.3 742.2 C 664.2 742.2 656.7 743.3 652.3 742.7 C 648.0 742.1 643.7 743.3 640.7 743.0 C 637.0 742.6 635.0 743.0 632.2 743.1 C 629.3 743.3 624.9 741.8 622.5 742.4 C 620.1 743.0 618.8 742.3 615.4 742.3 C 612.0 742.3 612.0 749.6 615.2 749.6 C 618.4 749.6 621.1 749.5 624.3 749.4 C 627.4 749.2 631.3 749.1 634.7 749.1 C 637.8 749.1 642.4 750.0 646.0 749.5 C 649.6 749.1 654.8 748.9 656.9 748.8 C 659.6 748.7 665.2 748.9 667.6 748.5 C 670.6 748.0 676.0 748.7 677.9 749.4 C 679.9 750.0 681.2 749.1 685.5 749.3 C 688.0 749.4 692.0 749.7 695.8 749.7 C 695.8 749.7 695.8 749.7 695.8 749.7 Z M 696.3 742.3 C 692.9 742.3 692.9 749.7 696.8 749.7 C 701.0 749.7 710.2 748.3 712.6 748.5 C 715.0 748.6 721.7 750.0 723.8 750.0 C 725.9 750.0 736.1 747.9 740.4 748.5 C 744.8 749.1 746.0 748.8 749.0 748.8 C 752.0 748.8 756.8 748.3 759.6 748.2 C 762.5 748.0 765.1 750.0 768.8 749.4 C 772.5 748.9 774.6 749.7 777.1 749.7 C 781.3 749.7 781.0 742.3 777.2 742.3 C 773.4 742.3 770.9 741.9 767.7 742.0 C 764.6 742.2 761.9 742.9 758.9 742.2 C 755.9 741.4 750.1 742.2 746.5 742.7 C 742.9 743.2 738.9 742.9 736.1 742.6 C 730.4 742.0 716.7 743.4 714.7 742.8 C 712.8 742.2 706.5 742.8 704.3 742.8 C 702.1 742.8 700.9 742.3 696.3 742.3 C 696.3 742.3 696.3 742.3 696.3 742.3 Z M 778.1 749.7 C 782.5 749.7 789.6 748.7 791.3 748.7 C 793.0 748.7 798.9 749.2 801.6 749.1 C 804.3 748.9 805.3 748.3 809.9 748.2 C 815.7 748.0 819.5 748.7 819.8 748.8 C 820.6 749.1 823.4 749.8 827.3 749.6 C 832.5 749.3 834.0 750.0 836.3 749.7 C 840.3 748.8 840.7 749.6 843.7 749.4 C 846.8 749.3 848.7 749.6 851.1 749.2 C 853.8 748.8 855.7 749.7 858.1 749.7 C 862.0 749.7 861.7 742.3 858.0 742.3 C 855.8 742.3 853.8 743.1 851.5 743.1 C 849.2 743.1 847.2 742.9 844.9 742.6 C 842.6 742.3 837.9 742.8 834.1 742.6 C 830.3 742.5 824.1 742.0 819.8 742.2 C 815.4 742.3 812.7 744.1 803.9 742.9 C 801.0 742.6 795.3 742.9 793.0 742.9 C 788.9 742.9 781.1 742.3 777.7 742.3 C 773.7 742.3 773.8 749.7 778.1 749.7 C 778.1 749.7 778.1 749.7 778.1 749.7 Z M 867.3 744.0 C 867.3 746.7 867.8 750.4 871.8 750.8 C 875.8 751.3 878.9 748.4 878.9 744.3 C 878.9 740.2 876.7 741.4 876.7 731.8 C 876.7 728.2 869.4 728.0 869.4 731.6 C 869.4 740.2 867.3 739.0 867.3 744.0 C 867.3 744.0 867.3 744.0 867.3 744.0 Z M 878.9 633.4 C 878.9 632.5 878.9 631.7 878.7 631.0 L 873.1 625.3 C 869.9 625.9 868.6 627.7 868.5 630.9 C 868.4 634.2 870.2 636.0 873.1 636.6 L 867.5 631.0 C 867.3 631.7 867.2 632.5 867.2 633.4 C 867.2 637.8 869.4 637.6 869.4 645.0 C 869.3 648.9 876.7 648.2 876.7 645.0 C 876.7 637.2 878.9 638.4 878.9 633.4 C 878.9 633.4 878.9 633.4 878.9 633.4 Z M 876.8 646.0 C 876.8 642.0 869.4 641.3 869.4 646.0 C 869.4 650.7 870.1 659.3 870.0 661.9 C 869.8 664.4 869.4 675.0 869.4 677.2 C 869.4 679.4 870.4 687.4 869.8 692.0 C 869.2 696.6 870.4 701.1 870.1 704.3 C 869.7 708.2 870.1 710.4 870.2 713.4 C 870.4 716.4 868.9 721.0 869.5 723.6 C 870.1 726.1 869.4 727.6 869.4 731.2 C 869.4 734.7 876.7 734.7 876.7 731.4 C 876.7 728.0 876.6 725.1 876.5 721.8 C 876.3 718.4 876.2 714.3 876.2 710.7 C 876.2 707.4 877.1 702.5 876.6 698.7 C 876.2 694.9 876.0 689.4 875.9 687.1 C 875.8 684.4 876.0 678.4 875.6 675.9 C 875.1 672.6 875.8 667.0 876.5 664.9 C 877.1 662.8 876.2 661.4 876.4 656.9 C 876.5 654.2 876.8 650.0 876.8 646.0 C 876.8 646.0 876.8 646.0 876.8 646.0 Z M 871.1 636.8 C 873.8 636.8 877.5 636.3 877.9 632.3 C 878.4 628.3 875.5 625.1 871.4 625.1 C 867.3 625.1 868.5 627.3 858.9 627.3 C 855.3 627.3 855.1 634.7 858.7 634.7 C 867.3 634.7 866.1 636.8 871.1 636.8 C 871.1 636.8 871.1 636.8 871.1 636.8 Z M 197.2 625.1 C 196.3 625.1 195.5 625.2 194.8 625.3 L 189.1 631.0 C 189.7 634.1 191.5 635.5 194.7 635.6 C 197.9 635.7 199.8 633.9 200.4 631.0 L 194.8 636.6 C 195.5 636.8 196.3 636.8 197.2 636.8 C 201.6 636.8 201.4 634.6 208.8 634.7 C 212.7 634.7 212.0 627.4 208.8 627.4 C 201.0 627.4 202.1 625.1 197.2 625.1 C 197.2 625.1 197.2 625.1 197.2 625.1 Z M 857.9 627.3 C 853.5 627.3 846.4 628.3 844.7 628.3 C 842.9 628.3 837.1 627.7 834.4 627.9 C 831.6 628.1 830.7 628.6 826.1 628.8 C 820.3 629.0 816.5 628.3 816.2 628.2 C 815.4 627.9 812.6 627.2 808.7 627.4 C 803.5 627.7 802.0 627.0 799.6 627.3 C 795.7 628.2 795.3 627.4 792.3 627.5 C 789.2 627.7 787.3 627.4 784.9 627.8 C 782.2 628.2 780.3 627.2 777.8 627.3 C 774.0 627.3 774.3 634.7 778.0 634.7 C 780.2 634.7 782.1 633.9 784.5 633.9 C 786.8 633.9 788.8 634.0 791.1 634.3 C 793.4 634.7 798.1 634.2 801.9 634.3 C 805.7 634.5 811.9 634.9 816.2 634.8 C 820.6 634.6 823.3 632.9 832.1 634.0 C 835.0 634.4 840.7 634.1 843.0 634.1 C 847.1 634.1 854.9 634.6 858.3 634.6 C 862.3 634.6 862.2 627.3 857.9 627.3 C 857.9 627.3 857.9 627.3 857.9 627.3 Z M 696.7 627.3 C 693.0 627.3 692.3 634.6 696.7 634.6 C 701.1 634.6 709.3 634.0 711.7 634.1 C 714.1 634.3 724.1 634.7 726.2 634.7 C 728.3 634.7 735.8 633.6 740.2 634.3 C 744.5 634.9 748.8 633.7 751.8 634.0 C 755.5 634.4 757.5 634.0 760.3 633.8 C 763.2 633.7 767.6 635.2 770.0 634.6 C 772.4 633.9 773.7 634.6 777.1 634.6 C 780.5 634.6 780.5 627.3 777.3 627.3 C 774.1 627.3 771.4 627.4 768.2 627.6 C 765.1 627.8 761.2 627.9 757.8 627.9 C 754.7 627.9 750.1 627.0 746.5 627.5 C 742.9 627.9 737.7 628.1 735.6 628.2 C 732.9 628.3 727.3 628.1 724.9 628.5 C 721.9 629.0 716.5 628.2 714.6 627.6 C 712.6 627.0 711.3 627.9 707.0 627.7 C 704.5 627.6 700.5 627.3 696.7 627.3 C 696.7 627.3 696.7 627.3 696.7 627.3 Z M 695.5 627.3 C 691.2 627.3 684.1 628.3 682.4 628.3 C 680.6 628.3 674.8 627.7 672.1 627.9 C 669.3 628.1 668.4 628.6 663.8 628.8 C 658.0 629.0 654.2 628.3 653.9 628.2 C 653.1 627.9 650.3 627.2 646.4 627.4 C 641.2 627.7 639.6 627.0 637.3 627.3 C 633.3 628.2 633.0 627.4 629.9 627.5 C 626.9 627.7 625.0 627.4 622.6 627.8 C 619.9 628.2 618.0 627.2 615.5 627.3 C 611.6 627.3 612.0 634.7 615.6 634.7 C 617.9 634.7 619.8 633.9 622.1 633.9 C 624.4 633.9 626.5 634.0 628.8 634.3 C 631.1 634.7 635.8 634.2 639.6 634.3 C 643.3 634.5 649.6 634.9 653.9 634.8 C 658.2 634.6 660.9 632.9 669.8 634.0 C 672.7 634.4 678.4 634.1 680.7 634.1 C 684.7 634.1 692.6 634.6 696.0 634.6 C 700.0 634.6 699.9 627.3 695.5 627.3 C 695.5 627.3 695.5 627.3 695.5 627.3 Z M 534.4 627.3 C 530.6 627.3 529.9 634.6 534.4 634.6 C 538.8 634.6 547.0 634.0 549.4 634.1 C 551.8 634.3 561.8 634.7 563.9 634.7 C 566.0 634.7 573.5 633.6 577.8 634.3 C 582.2 634.9 586.5 633.7 589.4 634.0 C 593.2 634.4 595.2 634.0 598.0 633.8 C 600.9 633.7 605.2 635.2 607.7 634.6 C 610.1 633.9 611.4 634.6 614.8 634.6 C 618.2 634.6 618.2 627.3 615.0 627.3 C 611.8 627.3 609.1 627.4 605.9 627.6 C 602.8 627.8 598.9 627.9 595.5 627.9 C 592.4 627.9 587.8 627.0 584.2 627.5 C 580.6 627.9 575.3 628.1 573.2 628.2 C 570.6 628.3 565.0 628.1 562.6 628.5 C 559.5 629.0 554.2 628.2 552.3 627.6 C 550.3 627.0 548.9 627.9 544.7 627.7 C 542.2 627.6 538.1 627.3 534.4 627.3 C 534.4 627.3 534.4 627.3 534.4 627.3 Z M 533.8 634.7 C 537.2 634.7 537.3 627.3 533.3 627.3 C 529.1 627.3 520.0 628.6 517.6 628.5 C 515.1 628.3 508.5 626.9 506.4 626.9 C 504.3 626.9 494.1 629.1 489.8 628.5 C 485.4 627.9 484.2 628.2 481.2 628.2 C 478.2 628.2 473.4 628.6 470.5 628.8 C 467.7 629.0 465.1 627.0 461.4 627.5 C 457.6 628.1 455.6 627.3 453.1 627.3 C 448.9 627.3 449.2 634.6 453.0 634.6 C 456.7 634.6 459.3 635.1 462.4 635.0 C 465.6 634.8 468.3 634.0 471.3 634.8 C 474.3 635.6 480.1 634.8 483.7 634.3 C 487.3 633.8 491.3 634.0 494.1 634.3 C 499.8 634.9 513.5 633.6 515.4 634.2 C 517.4 634.8 523.6 634.2 525.9 634.2 C 528.1 634.2 529.3 634.7 533.8 634.7 C 533.8 634.7 533.8 634.7 533.8 634.7 Z M 452.0 627.3 C 447.7 627.3 440.6 628.3 438.9 628.3 C 437.1 628.3 431.3 627.7 428.6 627.9 C 425.8 628.1 424.9 628.6 420.3 628.8 C 414.5 629.0 410.7 628.3 410.4 628.2 C 409.6 627.9 406.8 627.2 402.9 627.4 C 397.7 627.7 396.2 627.0 393.8 627.3 C 389.9 628.2 389.5 627.4 386.4 627.5 C 383.4 627.7 381.5 627.4 379.1 627.8 C 376.4 628.2 374.5 627.2 372.0 627.3 C 368.2 627.3 368.5 634.7 372.2 634.7 C 374.4 634.7 376.3 633.9 378.6 633.9 C 381.0 633.9 383.0 634.0 385.3 634.3 C 387.6 634.7 392.3 634.2 396.1 634.3 C 399.8 634.5 406.1 634.9 410.4 634.8 C 414.8 634.6 417.4 632.9 426.3 634.0 C 429.2 634.4 434.9 634.1 437.2 634.1 C 441.3 634.1 449.1 634.6 452.5 634.6 C 456.5 634.6 456.4 627.3 452.0 627.3 C 452.0 627.3 452.0 627.3 452.0 627.3 Z M 290.9 627.3 C 287.1 627.3 286.5 634.6 290.9 634.6 C 295.3 634.6 303.5 634.0 305.9 634.1 C 308.3 634.3 318.3 634.7 320.4 634.7 C 322.5 634.7 330.0 633.6 334.4 634.3 C 338.7 634.9 343.0 633.7 346.0 634.0 C 349.7 634.4 351.7 634.0 354.5 633.8 C 357.4 633.7 361.8 635.2 364.2 634.6 C 366.6 633.9 367.9 634.6 371.3 634.6 C 374.7 634.6 374.7 627.3 371.5 627.3 C 368.3 627.3 365.6 627.4 362.4 627.6 C 359.3 627.8 355.4 627.9 352.0 627.9 C 348.9 627.9 344.3 627.0 340.7 627.5 C 337.1 627.9 331.9 628.1 329.8 628.2 C 327.1 628.3 321.5 628.1 319.1 628.5 C 316.0 629.0 310.7 628.2 308.8 627.6 C 306.8 627.0 305.5 627.9 301.2 627.7 C 298.7 627.6 294.7 627.3 290.9 627.3 C 290.9 627.3 290.9 627.3 290.9 627.3 Z M 289.7 627.3 C 285.4 627.3 278.3 628.3 276.6 628.3 C 274.8 628.3 269.0 627.7 266.3 627.9 C 263.5 628.1 262.6 628.6 258.0 628.8 C 252.2 629.0 248.4 628.3 248.1 628.2 C 247.3 627.9 244.5 627.2 240.6 627.4 C 235.4 627.7 233.8 627.0 231.5 627.3 C 227.5 628.2 227.1 627.4 224.1 627.5 C 221.1 627.7 219.2 627.4 216.7 627.8 C 214.1 628.2 212.2 627.2 209.7 627.3 C 205.8 627.3 206.2 634.7 209.8 634.7 C 212.0 634.7 214.0 633.9 216.3 633.9 C 218.6 633.9 220.7 634.0 223.0 634.3 C 225.3 634.7 230.0 634.2 233.8 634.3 C 237.5 634.5 243.8 634.9 248.1 634.8 C 252.4 634.6 255.1 632.9 264.0 634.0 C 266.9 634.4 272.6 634.1 274.9 634.1 C 278.9 634.1 286.8 634.6 290.2 634.6 C 294.2 634.6 294.1 627.3 289.7 627.3 C 289.7 627.3 289.7 627.3 289.7 627.3 Z M 200.5 632.9 C 200.5 630.2 200.1 626.6 196.1 626.1 C 192.1 625.7 188.9 628.6 188.9 632.7 C 188.9 636.8 191.1 635.6 191.1 645.2 C 191.1 648.7 198.5 648.9 198.5 645.3 C 198.5 636.8 200.5 638.0 200.5 632.9 C 200.5 632.9 200.5 632.9 200.5 632.9 Z M 188.9 743.6 C 188.9 748.5 190.8 750.5 194.7 750.6 C 198.8 750.7 200.6 748.0 200.6 743.6 C 200.6 739.2 198.4 739.4 198.5 732.0 C 198.5 728.0 191.1 728.7 191.1 731.9 C 191.1 739.8 188.9 738.6 188.9 743.6 C 188.9 743.6 188.9 743.6 188.9 743.6 Z M 198.5 645.6 C 198.5 642.0 191.1 641.9 191.1 646.1 C 191.1 650.6 192.4 660.3 192.3 662.8 C 192.1 665.4 190.7 672.4 190.7 674.7 C 190.7 676.9 192.9 687.7 192.3 692.3 C 191.6 696.9 192.0 698.2 192.0 701.4 C 192.0 704.6 192.4 709.6 192.6 712.6 C 192.7 715.7 190.8 718.4 191.3 722.3 C 191.8 726.3 191.1 728.4 191.1 731.2 C 191.1 735.5 198.4 735.3 198.4 731.2 C 198.4 727.3 198.9 724.6 198.8 721.2 C 198.6 717.9 197.8 715.0 198.6 711.8 C 199.4 708.7 198.5 702.5 198.1 698.7 C 197.6 694.9 197.8 690.7 198.1 687.7 C 198.7 681.6 197.4 667.1 198.0 665.1 C 198.6 663.0 198.0 656.4 198.0 654.0 C 198.0 651.7 198.5 650.4 198.5 645.6 C 198.5 645.6 198.5 645.6 198.5 645.6 Z M 198.5 645.6 " fill="#424242"></path><text xml:space="preserve" font-family="AndaleMono" font-size="30.0" fill="#000000" transform="matrix(1.00, 0.00, -0.00, -1.00, 129.0, 563.0)">C</text><text xml:space="preserve" font-family="AndaleMono" font-size="30.0" fill="#000000" transform="matrix(1.00, 0.00, -0.00, -1.00, 147.0, 563.0)">A</text><text xml:space="preserve" font-family="AndaleMono" font-size="30.0" fill="#000000" transform="matrix(1.00, 0.00, -0.00, -1.00, 165.0, 563.0)">S</text><text xml:space="preserve" font-family="AndaleMono" font-size="30.0" fill="#000000" transform="matrix(1.00, 0.00, -0.00, -1.00, 183.0, 563.0)">E</text><text xml:space="preserve" font-family="AndaleMono" font-size="30.0" fill="#000000" transform="matrix(1.00, 0.00, -0.00, -1.00, 201.0, 563.0)"> </text><text xml:space="preserve" font-family="AndaleMono" font-size="30.0" fill="#000000" transform="matrix(1.00, 0.00, -0.00, -1.00, 219.0, 563.0)">(</text><text xml:space="preserve" font-family="AndaleMono" font-size="30.0" fill="#000000" transform="matrix(1.00, 0.00, -0.00, -1.00, 237.0, 563.0)">C</text><text xml:space="preserve" font-family="AndaleMono" font-size="30.0" fill="#000000" transform="matrix(1.00, 0.00, -0.00, -1.00, 255.0, 563.0)">o</text><text xml:space="preserve" font-family="AndaleMono" font-size="30.0" fill="#000000" transform="matrix(1.00, 0.00, -0.00, -1.00, 273.0, 563.0)">m</text><text xml:space="preserve" font-family="AndaleMono" font-size="30.0" fill="#000000" transform="matrix(1.00, 0.00, -0.00, -1.00, 291.1, 563.0)">p</text><text xml:space="preserve" font-family="AndaleMono" font-size="30.0" fill="#000000" transform="matrix(1.00, 0.00, -0.00, -1.00, 309.1, 563.0)">u</text><text xml:space="preserve" font-family="AndaleMono" font-size="30.0" fill="#000000" transform="matrix(1.00, 0.00, -0.00, -1.00, 327.1, 563.0)">t</text><text xml:space="preserve" font-family="AndaleMono" font-size="30.0" fill="#000000" transform="matrix(1.00, 0.00, -0.00, -1.00, 345.1, 563.0)">e</text><text xml:space="preserve" font-family="AndaleMono" font-size="30.0" fill="#000000" transform="matrix(1.00, 0.00, -0.00, -1.00, 363.1, 563.0)">r</text><text xml:space="preserve" font-family="AndaleMono" font-size="30.0" fill="#000000" transform="matrix(1.00, 0.00, -0.00, -1.00, 381.1, 563.0)"> </text><text xml:space="preserve" font-family="AndaleMono" font-size="30.0" fill="#000000" transform="matrix(1.00, 0.00, -0.00, -1.00, 399.1, 563.0)">-</text><text xml:space="preserve" font-family="AndaleMono" font-size="30.0" fill="#000000" transform="matrix(1.00, 0.00, -0.00, -1.00, 417.1, 563.0)"> </text><text xml:space="preserve" font-family="AndaleMono" font-size="30.0" fill="#000000" transform="matrix(1.00, 0.00, -0.00, -1.00, 435.1, 563.0)">A</text><text xml:space="preserve" font-family="AndaleMono" font-size="30.0" fill="#000000" transform="matrix(1.00, 0.00, -0.00, -1.00, 453.1, 563.0)">i</text><text xml:space="preserve" font-family="AndaleMono" font-size="30.0" fill="#000000" transform="matrix(1.00, 0.00, -0.00, -1.00, 471.1, 563.0)">d</text><text xml:space="preserve" font-family="AndaleMono" font-size="30.0" fill="#000000" transform="matrix(1.00, 0.00, -0.00, -1.00, 489.1, 563.0)">e</text><text xml:space="preserve" font-family="AndaleMono" font-size="30.0" fill="#000000" transform="matrix(1.00, 0.00, -0.00, -1.00, 507.1, 563.0)">d</text><text xml:space="preserve" font-family="AndaleMono" font-size="30.0" fill="#000000" transform="matrix(1.00, 0.00, -0.00, -1.00, 525.1, 563.0)"> </text><text xml:space="preserve" font-family="AndaleMono" font-size="30.0" fill="#000000" transform="matrix(1.00, 0.00, -0.00, -1.00, 543.1, 563.0)">S</text><text xml:space="preserve" font-family="AndaleMono" font-size="30.0" fill="#000000" transform="matrix(1.00, 0.00, -0.00, -1.00, 561.1, 563.0)">o</text><text xml:space="preserve" font-family="AndaleMono" font-size="30.0" fill="#000000" transform="matrix(1.00, 0.00, -0.00, -1.00, 579.1, 563.0)">f</text><text xml:space="preserve" font-family="AndaleMono" font-size="30.0" fill="#000000" transform="matrix(1.00, 0.00, -0.00, -1.00, 597.2, 563.0)">t</text><text xml:space="preserve" font-family="AndaleMono" font-size="30.0" fill="#000000" transform="matrix(1.00, 0.00, -0.00, -1.00, 615.2, 563.0)">w</text><text xml:space="preserve" font-family="AndaleMono" font-size="30.0" fill="#000000" transform="matrix(1.00, 0.00, -0.00, -1.00, 633.2, 563.0)">a</text><text xml:space="preserve" font-family="AndaleMono" font-size="30.0" fill="#000000" transform="matrix(1.00, 0.00, -0.00, -1.00, 651.2, 563.0)">r</text><text xml:space="preserve" font-family="AndaleMono" font-size="30.0" fill="#000000" transform="matrix(1.00, 0.00, -0.00, -1.00, 669.2, 563.0)">e</text><text xml:space="preserve" font-family="AndaleMono" font-size="30.0" fill="#000000" transform="matrix(1.00, 0.00, -0.00, -1.00, 687.2, 563.0)"> </text><text xml:space="preserve" font-family="AndaleMono" font-size="30.0" fill="#000000" transform="matrix(1.00, 0.00, -0.00, -1.00, 705.2, 563.0)">E</text><text xml:space="preserve" font-family="AndaleMono" font-size="30.0" fill="#000000" transform="matrix(1.00, 0.00, -0.00, -1.00, 723.2, 563.0)">n</text><text xml:space="preserve" font-family="AndaleMono" font-size="30.0" fill="#000000" transform="matrix(1.00, 0.00, -0.00, -1.00, 741.2, 563.0)">g</text><text xml:space="preserve" font-family="AndaleMono" font-size="30.0" fill="#000000" transform="matrix(1.00, 0.00, -0.00, -1.00, 759.2, 563.0)">i</text><text xml:space="preserve" font-family="AndaleMono" font-size="30.0" fill="#000000" transform="matrix(1.00, 0.00, -0.00, -1.00, 777.2, 563.0)">n</text><text xml:space="preserve" font-family="AndaleMono" font-size="30.0" fill="#000000" transform="matrix(1.00, 0.00, -0.00, -1.00, 795.2, 563.0)">e</text><text xml:space="preserve" font-family="AndaleMono" font-size="30.0" fill="#000000" transform="matrix(1.00, 0.00, -0.00, -1.00, 813.2, 563.0)">e</text><text xml:space="preserve" font-family="AndaleMono" font-size="30.0" fill="#000000" transform="matrix(1.00, 0.00, -0.00, -1.00, 831.2, 563.0)">r</text><text xml:space="preserve" font-family="AndaleMono" font-size="30.0" fill="#000000" transform="matrix(1.00, 0.00, -0.00, -1.00, 849.2, 563.0)">i</text><text xml:space="preserve" font-family="AndaleMono" font-size="30.0" fill="#000000" transform="matrix(1.00, 0.00, -0.00, -1.00, 867.2, 563.0)">n</text><text xml:space="preserve" font-family="AndaleMono" font-size="30.0" fill="#000000" transform="matrix(1.00, 0.00, -0.00, -1.00, 885.2, 563.0)">g</text><text xml:space="preserve" font-family="AndaleMono" font-size="30.0" fill="#000000" transform="matrix(1.00, 0.00, -0.00, -1.00, 903.3, 563.0)"> </text><text xml:space="preserve" font-family="AndaleMono" font-size="30.0" fill="#000000" transform="matrix(1.00, 0.00, -0.00, -1.00, 921.3, 563.0)">)</text><text xml:space="preserve" font-family="AndaleMono" font-size="30.0" fill="#000000" transform="matrix(1.00, 0.00, -0.00, -1.00, 939.3, 563.0)"> </text><text xml:space="preserve" font-family="AndaleMono" font-size="30.0" fill="#000000" transform="matrix(1.00, 0.00, -0.00, -1.00, 192.0, 529.0)">(</text><text xml:space="preserve" font-family="AndaleMono" font-size="30.0" fill="#000000" transform="matrix(1.00, 0.00, -0.00, -1.00, 210.0, 529.0)">I</text><text xml:space="preserve" font-family="AndaleMono" font-size="30.0" fill="#000000" transform="matrix(1.00, 0.00, -0.00, -1.00, 228.0, 529.0)">n</text><text xml:space="preserve" font-family="AndaleMono" font-size="30.0" fill="#000000" transform="matrix(1.00, 0.00, -0.00, -1.00, 246.0, 529.0)">g</text><text xml:space="preserve" font-family="AndaleMono" font-size="30.0" fill="#000000" transform="matrix(1.00, 0.00, -0.00, -1.00, 264.0, 529.0)">e</text><text xml:space="preserve" font-family="AndaleMono" font-size="30.0" fill="#000000" transform="matrix(1.00, 0.00, -0.00, -1.00, 282.0, 529.0)">n</text><text xml:space="preserve" font-family="AndaleMono" font-size="30.0" fill="#000000" transform="matrix(1.00, 0.00, -0.00, -1.00, 300.0, 529.0)">i</text><text xml:space="preserve" font-family="AndaleMono" font-size="30.0" fill="#000000" transform="matrix(1.00, 0.00, -0.00, -1.00, 318.0, 529.0)">e</text><text xml:space="preserve" font-family="AndaleMono" font-size="30.0" fill="#000000" transform="matrix(1.00, 0.00, -0.00, -1.00, 336.0, 529.0)">r</text><text xml:space="preserve" font-family="AndaleMono" font-size="30.0" fill="#000000" transform="matrix(1.00, 0.00, -0.00, -1.00, 354.1, 529.0)">í</text><text xml:space="preserve" font-family="AndaleMono" font-size="30.0" fill="#000000" transform="matrix(1.00, 0.00, -0.00, -1.00, 372.1, 529.0)">a</text><text xml:space="preserve" font-family="AndaleMono" font-size="30.0" fill="#000000" transform="matrix(1.00, 0.00, -0.00, -1.00, 390.1, 529.0)"> </text><text xml:space="preserve" font-family="AndaleMono" font-size="30.0" fill="#000000" transform="matrix(1.00, 0.00, -0.00, -1.00, 408.1, 529.0)">d</text><text xml:space="preserve" font-family="AndaleMono" font-size="30.0" fill="#000000" transform="matrix(1.00, 0.00, -0.00, -1.00, 426.1, 529.0)">e</text><text xml:space="preserve" font-family="AndaleMono" font-size="30.0" fill="#000000" transform="matrix(1.00, 0.00, -0.00, -1.00, 444.1, 529.0)"> </text><text xml:space="preserve" font-family="AndaleMono" font-size="30.0" fill="#000000" transform="matrix(1.00, 0.00, -0.00, -1.00, 462.1, 529.0)">S</text><text xml:space="preserve" font-family="AndaleMono" font-size="30.0" fill="#000000" transform="matrix(1.00, 0.00, -0.00, -1.00, 480.1, 529.0)">o</text><text xml:space="preserve" font-family="AndaleMono" font-size="30.0" fill="#000000" transform="matrix(1.00, 0.00, -0.00, -1.00, 498.1, 529.0)">f</text><text xml:space="preserve" font-family="AndaleMono" font-size="30.0" fill="#000000" transform="matrix(1.00, 0.00, -0.00, -1.00, 516.1, 529.0)">t</text><text xml:space="preserve" font-family="AndaleMono" font-size="30.0" fill="#000000" transform="matrix(1.00, 0.00, -0.00, -1.00, 534.1, 529.0)">w</text><text xml:space="preserve" font-family="AndaleMono" font-size="30.0" fill="#000000" transform="matrix(1.00, 0.00, -0.00, -1.00, 552.1, 529.0)">a</text><text xml:space="preserve" font-family="AndaleMono" font-size="30.0" fill="#000000" transform="matrix(1.00, 0.00, -0.00, -1.00, 570.1, 529.0)">r</text><text xml:space="preserve" font-family="AndaleMono" font-size="30.0" fill="#000000" transform="matrix(1.00, 0.00, -0.00, -1.00, 588.1, 529.0)">e</text><text xml:space="preserve" font-family="AndaleMono" font-size="30.0" fill="#000000" transform="matrix(1.00, 0.00, -0.00, -1.00, 606.1, 529.0)"> </text><text xml:space="preserve" font-family="AndaleMono" font-size="30.0" fill="#000000" transform="matrix(1.00, 0.00, -0.00, -1.00, 624.1, 529.0)">p</text><text xml:space="preserve" font-family="AndaleMono" font-size="30.0" fill="#000000" transform="matrix(1.00, 0.00, -0.00, -1.00, 642.1, 529.0)">o</text><text xml:space="preserve" font-family="AndaleMono" font-size="30.0" fill="#000000" transform="matrix(1.00, 0.00, -0.00, -1.00, 660.2, 529.0)">r</text><text xml:space="preserve" font-family="AndaleMono" font-size="30.0" fill="#000000" transform="matrix(1.00, 0.00, -0.00, -1.00, 678.2, 529.0)"> </text><text xml:space="preserve" font-family="AndaleMono" font-size="30.0" fill="#000000" transform="matrix(1.00, 0.00, -0.00, -1.00, 696.2, 529.0)">O</text><text xml:space="preserve" font-family="AndaleMono" font-size="30.0" fill="#000000" transform="matrix(1.00, 0.00, -0.00, -1.00, 714.2, 529.0)">r</text><text xml:space="preserve" font-family="AndaleMono" font-size="30.0" fill="#000000" transform="matrix(1.00, 0.00, -0.00, -1.00, 732.2, 529.0)">d</text><text xml:space="preserve" font-family="AndaleMono" font-size="30.0" fill="#000000" transform="matrix(1.00, 0.00, -0.00, -1.00, 750.2, 529.0)">e</text><text xml:space="preserve" font-family="AndaleMono" font-size="30.0" fill="#000000" transform="matrix(1.00, 0.00, -0.00, -1.00, 768.2, 529.0)">n</text><text xml:space="preserve" font-family="AndaleMono" font-size="30.0" fill="#000000" transform="matrix(1.00, 0.00, -0.00, -1.00, 786.2, 529.0)">a</text><text xml:space="preserve" font-family="AndaleMono" font-size="30.0" fill="#000000" transform="matrix(1.00, 0.00, -0.00, -1.00, 804.2, 529.0)">d</text><text xml:space="preserve" font-family="AndaleMono" font-size="30.0" fill="#000000" transform="matrix(1.00, 0.00, -0.00, -1.00, 822.2, 529.0)">o</text><text xml:space="preserve" font-family="AndaleMono" font-size="30.0" fill="#000000" transform="matrix(1.00, 0.00, -0.00, -1.00, 840.2, 529.0)">r</text><text xml:space="preserve" font-family="AndaleMono" font-size="30.0" fill="#000000" transform="matrix(1.00, 0.00, -0.00, -1.00, 858.2, 529.0)">)</text><text xml:space="preserve" font-family="AndaleMono" font-size="30.0" fill="#000000" transform="matrix(1.00, 0.00, -0.00, -1.00, 876.2, 529.0)"> </text><text xml:space="preserve" font-family="AndaleMono" font-size="30.0" fill="#000000" transform="matrix(1.00, 0.00, -0.00, -1.00, 138.0, 495.0)">E</text><text xml:space="preserve" font-family="AndaleMono" font-size="30.0" fill="#000000" transform="matrix(1.00, 0.00, -0.00, -1.00, 156.0, 495.0)">s</text><text xml:space="preserve" font-family="AndaleMono" font-size="30.0" fill="#000000" transform="matrix(1.00, 0.00, -0.00, -1.00, 174.0, 495.0)">t</text><text xml:space="preserve" font-family="AndaleMono" font-size="30.0" fill="#000000" transform="matrix(1.00, 0.00, -0.00, -1.00, 192.0, 495.0)">á</text><text xml:space="preserve" font-family="AndaleMono" font-size="30.0" fill="#000000" transform="matrix(1.00, 0.00, -0.00, -1.00, 210.0, 495.0)"> </text><text xml:space="preserve" font-family="AndaleMono" font-size="30.0" fill="#000000" transform="matrix(1.00, 0.00, -0.00, -1.00, 228.0, 495.0)">f</text><text xml:space="preserve" font-family="AndaleMono" font-size="30.0" fill="#000000" transform="matrix(1.00, 0.00, -0.00, -1.00, 246.0, 495.0)">o</text><text xml:space="preserve" font-family="AndaleMono" font-size="30.0" fill="#000000" transform="matrix(1.00, 0.00, -0.00, -1.00, 264.0, 495.0)">r</text><text xml:space="preserve" font-family="AndaleMono" font-size="30.0" fill="#000000" transform="matrix(1.00, 0.00, -0.00, -1.00, 282.0, 495.0)">m</text><text xml:space="preserve" font-family="AndaleMono" font-size="30.0" fill="#000000" transform="matrix(1.00, 0.00, -0.00, -1.00, 300.1, 495.0)">a</text><text xml:space="preserve" font-family="AndaleMono" font-size="30.0" fill="#000000" transform="matrix(1.00, 0.00, -0.00, -1.00, 318.1, 495.0)">d</text><text xml:space="preserve" font-family="AndaleMono" font-size="30.0" fill="#000000" transform="matrix(1.00, 0.00, -0.00, -1.00, 336.1, 495.0)">a</text><text xml:space="preserve" font-family="AndaleMono" font-size="30.0" fill="#000000" transform="matrix(1.00, 0.00, -0.00, -1.00, 354.1, 495.0)"> </text><text xml:space="preserve" font-family="AndaleMono" font-size="30.0" fill="#000000" transform="matrix(1.00, 0.00, -0.00, -1.00, 372.1, 495.0)">p</text><text xml:space="preserve" font-family="AndaleMono" font-size="30.0" fill="#000000" transform="matrix(1.00, 0.00, -0.00, -1.00, 390.1, 495.0)">o</text><text xml:space="preserve" font-family="AndaleMono" font-size="30.0" fill="#000000" transform="matrix(1.00, 0.00, -0.00, -1.00, 408.1, 495.0)">r</text><text xml:space="preserve" font-family="AndaleMono" font-size="30.0" fill="#000000" transform="matrix(1.00, 0.00, -0.00, -1.00, 426.1, 495.0)"> </text><text xml:space="preserve" font-family="AndaleMono" font-size="30.0" fill="#000000" transform="matrix(1.00, 0.00, -0.00, -1.00, 444.1, 495.0)">l</text><text xml:space="preserve" font-family="AndaleMono" font-size="30.0" fill="#000000" transform="matrix(1.00, 0.00, -0.00, -1.00, 462.1, 495.0)">o</text><text xml:space="preserve" font-family="AndaleMono" font-size="30.0" fill="#000000" transform="matrix(1.00, 0.00, -0.00, -1.00, 480.1, 495.0)">s</text><text xml:space="preserve" font-family="AndaleMono" font-size="30.0" fill="#000000" transform="matrix(1.00, 0.00, -0.00, -1.00, 498.1, 495.0)"> </text><text xml:space="preserve" font-family="AndaleMono" font-size="30.0" fill="#000000" transform="matrix(1.00, 0.00, -0.00, -1.00, 516.1, 495.0)">s</text><text xml:space="preserve" font-family="AndaleMono" font-size="30.0" fill="#000000" transform="matrix(1.00, 0.00, -0.00, -1.00, 534.1, 495.0)">i</text><text xml:space="preserve" font-family="AndaleMono" font-size="30.0" fill="#000000" transform="matrix(1.00, 0.00, -0.00, -1.00, 552.1, 495.0)">g</text><text xml:space="preserve" font-family="AndaleMono" font-size="30.0" fill="#000000" transform="matrix(1.00, 0.00, -0.00, -1.00, 570.1, 495.0)">u</text><text xml:space="preserve" font-family="AndaleMono" font-size="30.0" fill="#000000" transform="matrix(1.00, 0.00, -0.00, -1.00, 588.1, 495.0)">i</text><text xml:space="preserve" font-family="AndaleMono" font-size="30.0" fill="#000000" transform="matrix(1.00, 0.00, -0.00, -1.00, 606.2, 495.0)">e</text><text xml:space="preserve" font-family="AndaleMono" font-size="30.0" fill="#000000" transform="matrix(1.00, 0.00, -0.00, -1.00, 624.2, 495.0)">n</text><text xml:space="preserve" font-family="AndaleMono" font-size="30.0" fill="#000000" transform="matrix(1.00, 0.00, -0.00, -1.00, 642.2, 495.0)">t</text><text xml:space="preserve" font-family="AndaleMono" font-size="30.0" fill="#000000" transform="matrix(1.00, 0.00, -0.00, -1.00, 660.2, 495.0)">e</text><text xml:space="preserve" font-family="AndaleMono" font-size="30.0" fill="#000000" transform="matrix(1.00, 0.00, -0.00, -1.00, 678.2, 495.0)">s</text><text xml:space="preserve" font-family="AndaleMono" font-size="30.0" fill="#000000" transform="matrix(1.00, 0.00, -0.00, -1.00, 696.2, 495.0)"> </text><text xml:space="preserve" font-family="AndaleMono" font-size="30.0" fill="#000000" transform="matrix(1.00, 0.00, -0.00, -1.00, 714.2, 495.0)">c</text><text xml:space="preserve" font-family="AndaleMono" font-size="30.0" fill="#000000" transform="matrix(1.00, 0.00, -0.00, -1.00, 732.2, 495.0)">o</text><text xml:space="preserve" font-family="AndaleMono" font-size="30.0" fill="#000000" transform="matrix(1.00, 0.00, -0.00, -1.00, 750.2, 495.0)">m</text><text xml:space="preserve" font-family="AndaleMono" font-size="30.0" fill="#000000" transform="matrix(1.00, 0.00, -0.00, -1.00, 768.2, 495.0)">p</text><text xml:space="preserve" font-family="AndaleMono" font-size="30.0" fill="#000000" transform="matrix(1.00, 0.00, -0.00, -1.00, 786.2, 495.0)">o</text><text xml:space="preserve" font-family="AndaleMono" font-size="30.0" fill="#000000" transform="matrix(1.00, 0.00, -0.00, -1.00, 804.2, 495.0)">n</text><text xml:space="preserve" font-family="AndaleMono" font-size="30.0" fill="#000000" transform="matrix(1.00, 0.00, -0.00, -1.00, 822.2, 495.0)">e</text><text xml:space="preserve" font-family="AndaleMono" font-size="30.0" fill="#000000" transform="matrix(1.00, 0.00, -0.00, -1.00, 840.2, 495.0)">n</text><text xml:space="preserve" font-family="AndaleMono" font-size="30.0" fill="#000000" transform="matrix(1.00, 0.00, -0.00, -1.00, 858.2, 495.0)">t</text><text xml:space="preserve" font-family="AndaleMono" font-size="30.0" fill="#000000" transform="matrix(1.00, 0.00, -0.00, -1.00, 876.2, 495.0)">e</text><text xml:space="preserve" font-family="AndaleMono" font-size="30.0" fill="#000000" transform="matrix(1.00, 0.00, -0.00, -1.00, 894.2, 495.0)">s</text><text xml:space="preserve" font-family="AndaleMono" font-size="30.0" fill="#000000" transform="matrix(1.00, 0.00, -0.00, -1.00, 912.3, 495.0)">:</text><text xml:space="preserve" font-family="AndaleMono" font-size="24.0" fill="#000000" transform="matrix(1.00, 0.00, -0.00, -1.00, 180.6, 440.4)">1</text><text xml:space="preserve" font-family="AndaleMono" font-size="24.0" fill="#000000" transform="matrix(1.00, 0.00, -0.00, -1.00, 195.0, 440.4)">.</text><text xml:space="preserve" font-family="AndaleMono" font-size="24.0" fill="#000000" transform="matrix(1.00, 0.00, -0.00, -1.00, 222.0, 440.0)">U</text><text xml:space="preserve" font-family="AndaleMono" font-size="24.0" fill="#000000" transform="matrix(1.00, 0.00, -0.00, -1.00, 236.4, 440.0)">n</text><text xml:space="preserve" font-family="AndaleMono" font-size="24.0" fill="#000000" transform="matrix(1.00, 0.00, -0.00, -1.00, 250.8, 440.0)"> </text><text xml:space="preserve" font-family="AndaleMono" font-size="24.0" fill="#000000" transform="matrix(1.00, 0.00, -0.00, -1.00, 265.2, 440.0)">e</text><text xml:space="preserve" font-family="AndaleMono" font-size="24.0" fill="#000000" transform="matrix(1.00, 0.00, -0.00, -1.00, 279.6, 440.0)">n</text><text xml:space="preserve" font-family="AndaleMono" font-size="24.0" fill="#000000" transform="matrix(1.00, 0.00, -0.00, -1.00, 294.0, 440.0)">t</text><text xml:space="preserve" font-family="AndaleMono" font-size="24.0" fill="#000000" transform="matrix(1.00, 0.00, -0.00, -1.00, 308.4, 440.0)">o</text><text xml:space="preserve" font-family="AndaleMono" font-size="24.0" fill="#000000" transform="matrix(1.00, 0.00, -0.00, -1.00, 322.8, 440.0)">r</text><text xml:space="preserve" font-family="AndaleMono" font-size="24.0" fill="#000000" transform="matrix(1.00, 0.00, -0.00, -1.00, 337.2, 440.0)">n</text><text xml:space="preserve" font-family="AndaleMono" font-size="24.0" fill="#000000" transform="matrix(1.00, 0.00, -0.00, -1.00, 351.6, 440.0)">o</text><text xml:space="preserve" font-family="AndaleMono" font-size="24.0" fill="#000000" transform="matrix(1.00, 0.00, -0.00, -1.00, 366.0, 440.0)"> </text><text xml:space="preserve" font-family="AndaleMono" font-size="24.0" fill="#000000" transform="matrix(1.00, 0.00, -0.00, -1.00, 380.5, 440.0)">d</text><text xml:space="preserve" font-family="AndaleMono" font-size="24.0" fill="#000000" transform="matrix(1.00, 0.00, -0.00, -1.00, 394.9, 440.0)">e</text><text xml:space="preserve" font-family="AndaleMono" font-size="24.0" fill="#000000" transform="matrix(1.00, 0.00, -0.00, -1.00, 409.3, 440.0)"> </text><text xml:space="preserve" font-family="AndaleMono" font-size="24.0" fill="#000000" transform="matrix(1.00, 0.00, -0.00, -1.00, 423.7, 440.0)">d</text><text xml:space="preserve" font-family="AndaleMono" font-size="24.0" fill="#000000" transform="matrix(1.00, 0.00, -0.00, -1.00, 438.1, 440.0)">e</text><text xml:space="preserve" font-family="AndaleMono" font-size="24.0" fill="#000000" transform="matrix(1.00, 0.00, -0.00, -1.00, 452.5, 440.0)">s</text><text xml:space="preserve" font-family="AndaleMono" font-size="24.0" fill="#000000" transform="matrix(1.00, 0.00, -0.00, -1.00, 466.9, 440.0)">a</text><text xml:space="preserve" font-family="AndaleMono" font-size="24.0" fill="#000000" transform="matrix(1.00, 0.00, -0.00, -1.00, 481.3, 440.0)">r</text><text xml:space="preserve" font-family="AndaleMono" font-size="24.0" fill="#000000" transform="matrix(1.00, 0.00, -0.00, -1.00, 495.7, 440.0)">r</text><text xml:space="preserve" font-family="AndaleMono" font-size="24.0" fill="#000000" transform="matrix(1.00, 0.00, -0.00, -1.00, 510.1, 440.0)">o</text><text xml:space="preserve" font-family="AndaleMono" font-size="24.0" fill="#000000" transform="matrix(1.00, 0.00, -0.00, -1.00, 524.5, 440.0)">l</text><text xml:space="preserve" font-family="AndaleMono" font-size="24.0" fill="#000000" transform="matrix(1.00, 0.00, -0.00, -1.00, 538.9, 440.0)">l</text><text xml:space="preserve" font-family="AndaleMono" font-size="24.0" fill="#000000" transform="matrix(1.00, 0.00, -0.00, -1.00, 553.3, 440.0)">o</text><text xml:space="preserve" font-family="AndaleMono" font-size="24.0" fill="#000000" transform="matrix(1.00, 0.00, -0.00, -1.00, 567.7, 440.0)"> </text><text xml:space="preserve" font-family="AndaleMono" font-size="24.0" fill="#000000" transform="matrix(1.00, 0.00, -0.00, -1.00, 582.1, 440.0)">d</text><text xml:space="preserve" font-family="AndaleMono" font-size="24.0" fill="#000000" transform="matrix(1.00, 0.00, -0.00, -1.00, 596.5, 440.0)">e</text><text xml:space="preserve" font-family="AndaleMono" font-size="24.0" fill="#000000" transform="matrix(1.00, 0.00, -0.00, -1.00, 610.9, 440.0)"> </text><text xml:space="preserve" font-family="AndaleMono" font-size="24.0" fill="#000000" transform="matrix(1.00, 0.00, -0.00, -1.00, 625.3, 440.0)">s</text><text xml:space="preserve" font-family="AndaleMono" font-size="24.0" fill="#000000" transform="matrix(1.00, 0.00, -0.00, -1.00, 639.7, 440.0)">i</text><text xml:space="preserve" font-family="AndaleMono" font-size="24.0" fill="#000000" transform="matrix(1.00, 0.00, -0.00, -1.00, 654.1, 440.0)">s</text><text xml:space="preserve" font-family="AndaleMono" font-size="24.0" fill="#000000" transform="matrix(1.00, 0.00, -0.00, -1.00, 668.5, 440.0)">t</text><text xml:space="preserve" font-family="AndaleMono" font-size="24.0" fill="#000000" transform="matrix(1.00, 0.00, -0.00, -1.00, 683.0, 440.0)">e</text><text xml:space="preserve" font-family="AndaleMono" font-size="24.0" fill="#000000" transform="matrix(1.00, 0.00, -0.00, -1.00, 697.4, 440.0)">m</text><text xml:space="preserve" font-family="AndaleMono" font-size="24.0" fill="#000000" transform="matrix(1.00, 0.00, -0.00, -1.00, 711.8, 440.0)">a</text><text xml:space="preserve" font-family="AndaleMono" font-size="24.0" fill="#000000" transform="matrix(1.00, 0.00, -0.00, -1.00, 726.2, 440.0)">s</text><text xml:space="preserve" font-family="AndaleMono" font-size="24.0" fill="#000000" transform="matrix(1.00, 0.00, -0.00, -1.00, 740.6, 440.0)"> </text><text xml:space="preserve" font-family="AndaleMono" font-size="24.0" fill="#000000" transform="matrix(1.00, 0.00, -0.00, -1.00, 181.0, 386.0)">2</text><text xml:space="preserve" font-family="AndaleMono" font-size="24.0" fill="#000000" transform="matrix(1.00, 0.00, -0.00, -1.00, 195.4, 386.0)">.</text><text xml:space="preserve" font-family="AndaleMono" font-size="24.0" fill="#000000" transform="matrix(1.00, 0.00, -0.00, -1.00, 209.8, 386.0)"> </text><text xml:space="preserve" font-family="AndaleMono" font-size="24.0" fill="#000000" transform="matrix(1.00, 0.00, -0.00, -1.00, 224.2, 386.0)">U</text><text xml:space="preserve" font-family="AndaleMono" font-size="24.0" fill="#000000" transform="matrix(1.00, 0.00, -0.00, -1.00, 238.6, 386.0)">n</text><text xml:space="preserve" font-family="AndaleMono" font-size="24.0" fill="#000000" transform="matrix(1.00, 0.00, -0.00, -1.00, 253.0, 386.0)"> </text><text xml:space="preserve" font-family="AndaleMono" font-size="24.0" fill="#000000" transform="matrix(1.00, 0.00, -0.00, -1.00, 267.4, 386.0)">r</text><text xml:space="preserve" font-family="AndaleMono" font-size="24.0" fill="#000000" transform="matrix(1.00, 0.00, -0.00, -1.00, 281.8, 386.0)">e</text><text xml:space="preserve" font-family="AndaleMono" font-size="24.0" fill="#000000" transform="matrix(1.00, 0.00, -0.00, -1.00, 296.2, 386.0)">p</text><text xml:space="preserve" font-family="AndaleMono" font-size="24.0" fill="#000000" transform="matrix(1.00, 0.00, -0.00, -1.00, 310.6, 386.0)">o</text><text xml:space="preserve" font-family="AndaleMono" font-size="24.0" fill="#000000" transform="matrix(1.00, 0.00, -0.00, -1.00, 325.0, 386.0)">s</text><text xml:space="preserve" font-family="AndaleMono" font-size="24.0" fill="#000000" transform="matrix(1.00, 0.00, -0.00, -1.00, 339.5, 386.0)">i</text><text xml:space="preserve" font-family="AndaleMono" font-size="24.0" fill="#000000" transform="matrix(1.00, 0.00, -0.00, -1.00, 353.9, 386.0)">t</text><text xml:space="preserve" font-family="AndaleMono" font-size="24.0" fill="#000000" transform="matrix(1.00, 0.00, -0.00, -1.00, 368.3, 386.0)">o</text><text xml:space="preserve" font-family="AndaleMono" font-size="24.0" fill="#000000" transform="matrix(1.00, 0.00, -0.00, -1.00, 382.7, 386.0)">r</text><text xml:space="preserve" font-family="AndaleMono" font-size="24.0" fill="#000000" transform="matrix(1.00, 0.00, -0.00, -1.00, 397.1, 386.0)">i</text><text xml:space="preserve" font-family="AndaleMono" font-size="24.0" fill="#000000" transform="matrix(1.00, 0.00, -0.00, -1.00, 411.5, 386.0)">o</text><text xml:space="preserve" font-family="AndaleMono" font-size="24.0" fill="#000000" transform="matrix(1.00, 0.00, -0.00, -1.00, 425.9, 386.0)"> </text><text xml:space="preserve" font-family="AndaleMono" font-size="24.0" fill="#000000" transform="matrix(1.00, 0.00, -0.00, -1.00, 181.0, 332.0)">3</text><text xml:space="preserve" font-family="AndaleMono" font-size="24.0" fill="#000000" transform="matrix(1.00, 0.00, -0.00, -1.00, 195.4, 332.0)">.</text><text xml:space="preserve" font-family="AndaleMono" font-size="24.0" fill="#000000" transform="matrix(1.00, 0.00, -0.00, -1.00, 209.8, 332.0)"> </text><text xml:space="preserve" font-family="AndaleMono" font-size="24.0" fill="#000000" transform="matrix(1.00, 0.00, -0.00, -1.00, 224.2, 332.0)">U</text><text xml:space="preserve" font-family="AndaleMono" font-size="24.0" fill="#000000" transform="matrix(1.00, 0.00, -0.00, -1.00, 238.6, 332.0)">n</text><text xml:space="preserve" font-family="AndaleMono" font-size="24.0" fill="#000000" transform="matrix(1.00, 0.00, -0.00, -1.00, 253.0, 332.0)"> </text><text xml:space="preserve" font-family="AndaleMono" font-size="24.0" fill="#000000" transform="matrix(1.00, 0.00, -0.00, -1.00, 267.4, 332.0)">D</text><text xml:space="preserve" font-family="AndaleMono" font-size="24.0" fill="#000000" transform="matrix(1.00, 0.00, -0.00, -1.00, 281.8, 332.0)">i</text><text xml:space="preserve" font-family="AndaleMono" font-size="24.0" fill="#000000" transform="matrix(1.00, 0.00, -0.00, -1.00, 296.2, 332.0)">c</text><text xml:space="preserve" font-family="AndaleMono" font-size="24.0" fill="#000000" transform="matrix(1.00, 0.00, -0.00, -1.00, 310.6, 332.0)">c</text><text xml:space="preserve" font-family="AndaleMono" font-size="24.0" fill="#000000" transform="matrix(1.00, 0.00, -0.00, -1.00, 325.0, 332.0)">i</text><text xml:space="preserve" font-family="AndaleMono" font-size="24.0" fill="#000000" transform="matrix(1.00, 0.00, -0.00, -1.00, 339.5, 332.0)">o</text><text xml:space="preserve" font-family="AndaleMono" font-size="24.0" fill="#000000" transform="matrix(1.00, 0.00, -0.00, -1.00, 353.9, 332.0)">n</text><text xml:space="preserve" font-family="AndaleMono" font-size="24.0" fill="#000000" transform="matrix(1.00, 0.00, -0.00, -1.00, 368.3, 332.0)">a</text><text xml:space="preserve" font-family="AndaleMono" font-size="24.0" fill="#000000" transform="matrix(1.00, 0.00, -0.00, -1.00, 382.7, 332.0)">r</text><text xml:space="preserve" font-family="AndaleMono" font-size="24.0" fill="#000000" transform="matrix(1.00, 0.00, -0.00, -1.00, 397.1, 332.0)">i</text><text xml:space="preserve" font-family="AndaleMono" font-size="24.0" fill="#000000" transform="matrix(1.00, 0.00, -0.00, -1.00, 411.5, 332.0)">o</text><text xml:space="preserve" font-family="AndaleMono" font-size="24.0" fill="#000000" transform="matrix(1.00, 0.00, -0.00, -1.00, 425.9, 332.0)"> </text><text xml:space="preserve" font-family="AndaleMono" font-size="24.0" fill="#000000" transform="matrix(1.00, 0.00, -0.00, -1.00, 440.3, 332.0)">d</text><text xml:space="preserve" font-family="AndaleMono" font-size="24.0" fill="#000000" transform="matrix(1.00, 0.00, -0.00, -1.00, 454.7, 332.0)">e</text><text xml:space="preserve" font-family="AndaleMono" font-size="24.0" fill="#000000" transform="matrix(1.00, 0.00, -0.00, -1.00, 469.1, 332.0)"> </text><text xml:space="preserve" font-family="AndaleMono" font-size="24.0" fill="#000000" transform="matrix(1.00, 0.00, -0.00, -1.00, 483.5, 332.0)">d</text><text xml:space="preserve" font-family="AndaleMono" font-size="24.0" fill="#000000" transform="matrix(1.00, 0.00, -0.00, -1.00, 497.9, 332.0)">a</text><text xml:space="preserve" font-family="AndaleMono" font-size="24.0" fill="#000000" transform="matrix(1.00, 0.00, -0.00, -1.00, 512.3, 332.0)">t</text><text xml:space="preserve" font-family="AndaleMono" font-size="24.0" fill="#000000" transform="matrix(1.00, 0.00, -0.00, -1.00, 526.7, 332.0)">o</text><text xml:space="preserve" font-family="AndaleMono" font-size="24.0" fill="#000000" transform="matrix(1.00, 0.00, -0.00, -1.00, 541.1, 332.0)">s</text><text xml:space="preserve" font-family="AndaleMono" font-size="30.0" fill="#000000" transform="matrix(1.00, 0.00, -0.00, -1.00, 107.0, 274.0)">C</text><text xml:space="preserve" font-family="AndaleMono" font-size="30.0" fill="#000000" transform="matrix(1.00, 0.00, -0.00, -1.00, 125.0, 274.0)">A</text><text xml:space="preserve" font-family="AndaleMono" font-size="30.0" fill="#000000" transform="matrix(1.00, 0.00, -0.00, -1.00, 143.0, 274.0)">S</text><text xml:space="preserve" font-family="AndaleMono" font-size="30.0" fill="#000000" transform="matrix(1.00, 0.00, -0.00, -1.00, 161.0, 274.0)">E</text><text xml:space="preserve" font-family="AndaleMono" font-size="30.0" fill="#000000" transform="matrix(1.00, 0.00, -0.00, -1.00, 179.0, 274.0)"> </text><text xml:space="preserve" font-family="AndaleMono" font-size="30.0" fill="#000000" transform="matrix(1.00, 0.00, -0.00, -1.00, 197.0, 274.0)">(</text><text xml:space="preserve" font-family="AndaleMono" font-size="30.0" fill="#000000" transform="matrix(1.00, 0.00, -0.00, -1.00, 215.0, 274.0)">C</text><text xml:space="preserve" font-family="AndaleMono" font-size="30.0" fill="#000000" transform="matrix(1.00, 0.00, -0.00, -1.00, 233.0, 274.0)">o</text><text xml:space="preserve" font-family="AndaleMono" font-size="30.0" fill="#000000" transform="matrix(1.00, 0.00, -0.00, -1.00, 251.0, 274.0)">m</text><text xml:space="preserve" font-family="AndaleMono" font-size="30.0" fill="#000000" transform="matrix(1.00, 0.00, -0.00, -1.00, 269.1, 274.0)">p</text><text xml:space="preserve" font-family="AndaleMono" font-size="30.0" fill="#000000" transform="matrix(1.00, 0.00, -0.00, -1.00, 287.1, 274.0)">u</text><text xml:space="preserve" font-family="AndaleMono" font-size="30.0" fill="#000000" transform="matrix(1.00, 0.00, -0.00, -1.00, 305.1, 274.0)">t</text><text xml:space="preserve" font-family="AndaleMono" font-size="30.0" fill="#000000" transform="matrix(1.00, 0.00, -0.00, -1.00, 323.1, 274.0)">e</text><text xml:space="preserve" font-family="AndaleMono" font-size="30.0" fill="#000000" transform="matrix(1.00, 0.00, -0.00, -1.00, 341.1, 274.0)">r</text><text xml:space="preserve" font-family="AndaleMono" font-size="30.0" fill="#000000" transform="matrix(1.00, 0.00, -0.00, -1.00, 359.1, 274.0)"> </text><text xml:space="preserve" font-family="AndaleMono" font-size="30.0" fill="#000000" transform="matrix(1.00, 0.00, -0.00, -1.00, 377.1, 274.0)">-</text><text xml:space="preserve" font-family="AndaleMono" font-size="30.0" fill="#000000" transform="matrix(1.00, 0.00, -0.00, -1.00, 395.1, 274.0)"> </text><text xml:space="preserve" font-family="AndaleMono" font-size="30.0" fill="#000000" transform="matrix(1.00, 0.00, -0.00, -1.00, 413.1, 274.0)">a</text><text xml:space="preserve" font-family="AndaleMono" font-size="30.0" fill="#000000" transform="matrix(1.00, 0.00, -0.00, -1.00, 431.1, 274.0)">i</text><text xml:space="preserve" font-family="AndaleMono" font-size="30.0" fill="#000000" transform="matrix(1.00, 0.00, -0.00, -1.00, 449.1, 274.0)">d</text><text xml:space="preserve" font-family="AndaleMono" font-size="30.0" fill="#000000" transform="matrix(1.00, 0.00, -0.00, -1.00, 467.1, 274.0)">e</text><text xml:space="preserve" font-family="AndaleMono" font-size="30.0" fill="#000000" transform="matrix(1.00, 0.00, -0.00, -1.00, 485.1, 274.0)">d</text><text xml:space="preserve" font-family="AndaleMono" font-size="30.0" fill="#000000" transform="matrix(1.00, 0.00, -0.00, -1.00, 503.1, 274.0)"> </text><text xml:space="preserve" font-family="AndaleMono" font-size="30.0" fill="#000000" transform="matrix(1.00, 0.00, -0.00, -1.00, 521.1, 274.0)">S</text><text xml:space="preserve" font-family="AndaleMono" font-size="30.0" fill="#000000" transform="matrix(1.00, 0.00, -0.00, -1.00, 539.1, 274.0)">o</text><text xml:space="preserve" font-family="AndaleMono" font-size="30.0" fill="#000000" transform="matrix(1.00, 0.00, -0.00, -1.00, 557.1, 274.0)">f</text><text xml:space="preserve" font-family="AndaleMono" font-size="30.0" fill="#000000" transform="matrix(1.00, 0.00, -0.00, -1.00, 575.2, 274.0)">t</text><text xml:space="preserve" font-family="AndaleMono" font-size="30.0" fill="#000000" transform="matrix(1.00, 0.00, -0.00, -1.00, 593.2, 274.0)">w</text><text xml:space="preserve" font-family="AndaleMono" font-size="30.0" fill="#000000" transform="matrix(1.00, 0.00, -0.00, -1.00, 611.2, 274.0)">a</text><text xml:space="preserve" font-family="AndaleMono" font-size="30.0" fill="#000000" transform="matrix(1.00, 0.00, -0.00, -1.00, 629.2, 274.0)">r</text><text xml:space="preserve" font-family="AndaleMono" font-size="30.0" fill="#000000" transform="matrix(1.00, 0.00, -0.00, -1.00, 647.2, 274.0)">e</text><text xml:space="preserve" font-family="AndaleMono" font-size="30.0" fill="#000000" transform="matrix(1.00, 0.00, -0.00, -1.00, 665.2, 274.0)"> </text><text xml:space="preserve" font-family="AndaleMono" font-size="30.0" fill="#000000" transform="matrix(1.00, 0.00, -0.00, -1.00, 683.2, 274.0)">E</text><text xml:space="preserve" font-family="AndaleMono" font-size="30.0" fill="#000000" transform="matrix(1.00, 0.00, -0.00, -1.00, 701.2, 274.0)">n</text><text xml:space="preserve" font-family="AndaleMono" font-size="30.0" fill="#000000" transform="matrix(1.00, 0.00, -0.00, -1.00, 719.2, 274.0)">g</text><text xml:space="preserve" font-family="AndaleMono" font-size="30.0" fill="#000000" transform="matrix(1.00, 0.00, -0.00, -1.00, 737.2, 274.0)">i</text><text xml:space="preserve" font-family="AndaleMono" font-size="30.0" fill="#000000" transform="matrix(1.00, 0.00, -0.00, -1.00, 755.2, 274.0)">n</text><text xml:space="preserve" font-family="AndaleMono" font-size="30.0" fill="#000000" transform="matrix(1.00, 0.00, -0.00, -1.00, 773.2, 274.0)">e</text><text xml:space="preserve" font-family="AndaleMono" font-size="30.0" fill="#000000" transform="matrix(1.00, 0.00, -0.00, -1.00, 791.2, 274.0)">e</text><text xml:space="preserve" font-family="AndaleMono" font-size="30.0" fill="#000000" transform="matrix(1.00, 0.00, -0.00, -1.00, 809.2, 274.0)">r</text><text xml:space="preserve" font-family="AndaleMono" font-size="30.0" fill="#000000" transform="matrix(1.00, 0.00, -0.00, -1.00, 827.2, 274.0)">i</text><text xml:space="preserve" font-family="AndaleMono" font-size="30.0" fill="#000000" transform="matrix(1.00, 0.00, -0.00, -1.00, 845.2, 274.0)">n</text><text xml:space="preserve" font-family="AndaleMono" font-size="30.0" fill="#000000" transform="matrix(1.00, 0.00, -0.00, -1.00, 863.2, 274.0)">g</text><text xml:space="preserve" font-family="AndaleMono" font-size="30.0" fill="#000000" transform="matrix(1.00, 0.00, -0.00, -1.00, 881.3, 274.0)"> </text><text xml:space="preserve" font-family="AndaleMono" font-size="30.0" fill="#000000" transform="matrix(1.00, 0.00, -0.00, -1.00, 899.3, 274.0)">)</text><text xml:space="preserve" font-family="AndaleMono" font-size="30.0" fill="#000000" transform="matrix(1.00, 0.00, -0.00, -1.00, 917.3, 274.0)"> </text><text xml:space="preserve" font-family="AndaleMono" font-size="30.0" fill="#000000" transform="matrix(1.00, 0.00, -0.00, -1.00, 170.0, 240.0)">(</text><text xml:space="preserve" font-family="AndaleMono" font-size="30.0" fill="#000000" transform="matrix(1.00, 0.00, -0.00, -1.00, 188.0, 240.0)">I</text><text xml:space="preserve" font-family="AndaleMono" font-size="30.0" fill="#000000" transform="matrix(1.00, 0.00, -0.00, -1.00, 206.0, 240.0)">n</text><text xml:space="preserve" font-family="AndaleMono" font-size="30.0" fill="#000000" transform="matrix(1.00, 0.00, -0.00, -1.00, 224.0, 240.0)">g</text><text xml:space="preserve" font-family="AndaleMono" font-size="30.0" fill="#000000" transform="matrix(1.00, 0.00, -0.00, -1.00, 242.0, 240.0)">e</text><text xml:space="preserve" font-family="AndaleMono" font-size="30.0" fill="#000000" transform="matrix(1.00, 0.00, -0.00, -1.00, 260.0, 240.0)">n</text><text xml:space="preserve" font-family="AndaleMono" font-size="30.0" fill="#000000" transform="matrix(1.00, 0.00, -0.00, -1.00, 278.0, 240.0)">i</text><text xml:space="preserve" font-family="AndaleMono" font-size="30.0" fill="#000000" transform="matrix(1.00, 0.00, -0.00, -1.00, 296.0, 240.0)">e</text><text xml:space="preserve" font-family="AndaleMono" font-size="30.0" fill="#000000" transform="matrix(1.00, 0.00, -0.00, -1.00, 314.0, 240.0)">r</text><text xml:space="preserve" font-family="AndaleMono" font-size="30.0" fill="#000000" transform="matrix(1.00, 0.00, -0.00, -1.00, 332.1, 240.0)">í</text><text xml:space="preserve" font-family="AndaleMono" font-size="30.0" fill="#000000" transform="matrix(1.00, 0.00, -0.00, -1.00, 350.1, 240.0)">a</text><text xml:space="preserve" font-family="AndaleMono" font-size="30.0" fill="#000000" transform="matrix(1.00, 0.00, -0.00, -1.00, 368.1, 240.0)"> </text><text xml:space="preserve" font-family="AndaleMono" font-size="30.0" fill="#000000" transform="matrix(1.00, 0.00, -0.00, -1.00, 386.1, 240.0)">d</text><text xml:space="preserve" font-family="AndaleMono" font-size="30.0" fill="#000000" transform="matrix(1.00, 0.00, -0.00, -1.00, 404.1, 240.0)">e</text><text xml:space="preserve" font-family="AndaleMono" font-size="30.0" fill="#000000" transform="matrix(1.00, 0.00, -0.00, -1.00, 422.1, 240.0)"> </text><text xml:space="preserve" font-family="AndaleMono" font-size="30.0" fill="#000000" transform="matrix(1.00, 0.00, -0.00, -1.00, 440.1, 240.0)">S</text><text xml:space="preserve" font-family="AndaleMono" font-size="30.0" fill="#000000" transform="matrix(1.00, 0.00, -0.00, -1.00, 458.1, 240.0)">o</text><text xml:space="preserve" font-family="AndaleMono" font-size="30.0" fill="#000000" transform="matrix(1.00, 0.00, -0.00, -1.00, 476.1, 240.0)">f</text><text xml:space="preserve" font-family="AndaleMono" font-size="30.0" fill="#000000" transform="matrix(1.00, 0.00, -0.00, -1.00, 494.1, 240.0)">t</text><text xml:space="preserve" font-family="AndaleMono" font-size="30.0" fill="#000000" transform="matrix(1.00, 0.00, -0.00, -1.00, 512.1, 240.0)">w</text><text xml:space="preserve" font-family="AndaleMono" font-size="30.0" fill="#000000" transform="matrix(1.00, 0.00, -0.00, -1.00, 530.1, 240.0)">a</text><text xml:space="preserve" font-family="AndaleMono" font-size="30.0" fill="#000000" transform="matrix(1.00, 0.00, -0.00, -1.00, 548.1, 240.0)">r</text><text xml:space="preserve" font-family="AndaleMono" font-size="30.0" fill="#000000" transform="matrix(1.00, 0.00, -0.00, -1.00, 566.1, 240.0)">e</text><text xml:space="preserve" font-family="AndaleMono" font-size="30.0" fill="#000000" transform="matrix(1.00, 0.00, -0.00, -1.00, 584.1, 240.0)"> </text><text xml:space="preserve" font-family="AndaleMono" font-size="30.0" fill="#000000" transform="matrix(1.00, 0.00, -0.00, -1.00, 602.1, 240.0)">p</text><text xml:space="preserve" font-family="AndaleMono" font-size="30.0" fill="#000000" transform="matrix(1.00, 0.00, -0.00, -1.00, 620.1, 240.0)">o</text><text xml:space="preserve" font-family="AndaleMono" font-size="30.0" fill="#000000" transform="matrix(1.00, 0.00, -0.00, -1.00, 638.2, 240.0)">r</text><text xml:space="preserve" font-family="AndaleMono" font-size="30.0" fill="#000000" transform="matrix(1.00, 0.00, -0.00, -1.00, 656.2, 240.0)"> </text><text xml:space="preserve" font-family="AndaleMono" font-size="30.0" fill="#000000" transform="matrix(1.00, 0.00, -0.00, -1.00, 674.2, 240.0)">O</text><text xml:space="preserve" font-family="AndaleMono" font-size="30.0" fill="#000000" transform="matrix(1.00, 0.00, -0.00, -1.00, 692.2, 240.0)">r</text><text xml:space="preserve" font-family="AndaleMono" font-size="30.0" fill="#000000" transform="matrix(1.00, 0.00, -0.00, -1.00, 710.2, 240.0)">d</text><text xml:space="preserve" font-family="AndaleMono" font-size="30.0" fill="#000000" transform="matrix(1.00, 0.00, -0.00, -1.00, 728.2, 240.0)">e</text><text xml:space="preserve" font-family="AndaleMono" font-size="30.0" fill="#000000" transform="matrix(1.00, 0.00, -0.00, -1.00, 746.2, 240.0)">n</text><text xml:space="preserve" font-family="AndaleMono" font-size="30.0" fill="#000000" transform="matrix(1.00, 0.00, -0.00, -1.00, 764.2, 240.0)">a</text><text xml:space="preserve" font-family="AndaleMono" font-size="30.0" fill="#000000" transform="matrix(1.00, 0.00, -0.00, -1.00, 782.2, 240.0)">d</text><text xml:space="preserve" font-family="AndaleMono" font-size="30.0" fill="#000000" transform="matrix(1.00, 0.00, -0.00, -1.00, 800.2, 240.0)">o</text><text xml:space="preserve" font-family="AndaleMono" font-size="30.0" fill="#000000" transform="matrix(1.00, 0.00, -0.00, -1.00, 818.2, 240.0)">r</text><text xml:space="preserve" font-family="AndaleMono" font-size="30.0" fill="#000000" transform="matrix(1.00, 0.00, -0.00, -1.00, 836.2, 240.0)">)</text><text xml:space="preserve" font-family="AndaleMono" font-size="30.0" fill="#000000" transform="matrix(1.00, 0.00, -0.00, -1.00, 854.2, 240.0)"> </text><text xml:space="preserve" font-family="AndaleMono" font-size="30.0" fill="#000000" transform="matrix(1.00, 0.00, -0.00, -1.00, 116.0, 206.0)">E</text><text xml:space="preserve" font-family="AndaleMono" font-size="30.0" fill="#000000" transform="matrix(1.00, 0.00, -0.00, -1.00, 134.0, 206.0)">s</text><text xml:space="preserve" font-family="AndaleMono" font-size="30.0" fill="#000000" transform="matrix(1.00, 0.00, -0.00, -1.00, 152.0, 206.0)">t</text><text xml:space="preserve" font-family="AndaleMono" font-size="30.0" fill="#000000" transform="matrix(1.00, 0.00, -0.00, -1.00, 170.0, 206.0)">á</text><text xml:space="preserve" font-family="AndaleMono" font-size="30.0" fill="#000000" transform="matrix(1.00, 0.00, -0.00, -1.00, 188.0, 206.0)"> </text><text xml:space="preserve" font-family="AndaleMono" font-size="30.0" fill="#000000" transform="matrix(1.00, 0.00, -0.00, -1.00, 206.0, 206.0)">f</text><text xml:space="preserve" font-family="AndaleMono" font-size="30.0" fill="#000000" transform="matrix(1.00, 0.00, -0.00, -1.00, 224.0, 206.0)">o</text><text xml:space="preserve" font-family="AndaleMono" font-size="30.0" fill="#000000" transform="matrix(1.00, 0.00, -0.00, -1.00, 242.0, 206.0)">r</text><text xml:space="preserve" font-family="AndaleMono" font-size="30.0" fill="#000000" transform="matrix(1.00, 0.00, -0.00, -1.00, 260.0, 206.0)">m</text><text xml:space="preserve" font-family="AndaleMono" font-size="30.0" fill="#000000" transform="matrix(1.00, 0.00, -0.00, -1.00, 278.1, 206.0)">a</text><text xml:space="preserve" font-family="AndaleMono" font-size="30.0" fill="#000000" transform="matrix(1.00, 0.00, -0.00, -1.00, 296.1, 206.0)">d</text><text xml:space="preserve" font-family="AndaleMono" font-size="30.0" fill="#000000" transform="matrix(1.00, 0.00, -0.00, -1.00, 314.1, 206.0)">a</text><text xml:space="preserve" font-family="AndaleMono" font-size="30.0" fill="#000000" transform="matrix(1.00, 0.00, -0.00, -1.00, 332.1, 206.0)"> </text><text xml:space="preserve" font-family="AndaleMono" font-size="30.0" fill="#000000" transform="matrix(1.00, 0.00, -0.00, -1.00, 350.1, 206.0)">p</text><text xml:space="preserve" font-family="AndaleMono" font-size="30.0" fill="#000000" transform="matrix(1.00, 0.00, -0.00, -1.00, 368.1, 206.0)">o</text><text xml:space="preserve" font-family="AndaleMono" font-size="30.0" fill="#000000" transform="matrix(1.00, 0.00, -0.00, -1.00, 386.1, 206.0)">r</text><text xml:space="preserve" font-family="AndaleMono" font-size="30.0" fill="#000000" transform="matrix(1.00, 0.00, -0.00, -1.00, 404.1, 206.0)"> </text><text xml:space="preserve" font-family="AndaleMono" font-size="30.0" fill="#000000" transform="matrix(1.00, 0.00, -0.00, -1.00, 422.1, 206.0)">l</text><text xml:space="preserve" font-family="AndaleMono" font-size="30.0" fill="#000000" transform="matrix(1.00, 0.00, -0.00, -1.00, 440.1, 206.0)">o</text><text xml:space="preserve" font-family="AndaleMono" font-size="30.0" fill="#000000" transform="matrix(1.00, 0.00, -0.00, -1.00, 458.1, 206.0)">s</text><text xml:space="preserve" font-family="AndaleMono" font-size="30.0" fill="#000000" transform="matrix(1.00, 0.00, -0.00, -1.00, 476.1, 206.0)"> </text><text xml:space="preserve" font-family="AndaleMono" font-size="30.0" fill="#000000" transform="matrix(1.00, 0.00, -0.00, -1.00, 494.1, 206.0)">s</text><text xml:space="preserve" font-family="AndaleMono" font-size="30.0" fill="#000000" transform="matrix(1.00, 0.00, -0.00, -1.00, 512.1, 206.0)">i</text><text xml:space="preserve" font-family="AndaleMono" font-size="30.0" fill="#000000" transform="matrix(1.00, 0.00, -0.00, -1.00, 530.1, 206.0)">g</text><text xml:space="preserve" font-family="AndaleMono" font-size="30.0" fill="#000000" transform="matrix(1.00, 0.00, -0.00, -1.00, 548.1, 206.0)">u</text><text xml:space="preserve" font-family="AndaleMono" font-size="30.0" fill="#000000" transform="matrix(1.00, 0.00, -0.00, -1.00, 566.1, 206.0)">i</text><text xml:space="preserve" font-family="AndaleMono" font-size="30.0" fill="#000000" transform="matrix(1.00, 0.00, -0.00, -1.00, 584.2, 206.0)">e</text><text xml:space="preserve" font-family="AndaleMono" font-size="30.0" fill="#000000" transform="matrix(1.00, 0.00, -0.00, -1.00, 602.2, 206.0)">n</text><text xml:space="preserve" font-family="AndaleMono" font-size="30.0" fill="#000000" transform="matrix(1.00, 0.00, -0.00, -1.00, 620.2, 206.0)">t</text><text xml:space="preserve" font-family="AndaleMono" font-size="30.0" fill="#000000" transform="matrix(1.00, 0.00, -0.00, -1.00, 638.2, 206.0)">e</text><text xml:space="preserve" font-family="AndaleMono" font-size="30.0" fill="#000000" transform="matrix(1.00, 0.00, -0.00, -1.00, 656.2, 206.0)">s</text><text xml:space="preserve" font-family="AndaleMono" font-size="30.0" fill="#000000" transform="matrix(1.00, 0.00, -0.00, -1.00, 674.2, 206.0)"> </text><text xml:space="preserve" font-family="AndaleMono" font-size="30.0" fill="#000000" transform="matrix(1.00, 0.00, -0.00, -1.00, 692.2, 206.0)">c</text><text xml:space="preserve" font-family="AndaleMono" font-size="30.0" fill="#000000" transform="matrix(1.00, 0.00, -0.00, -1.00, 710.2, 206.0)">o</text><text xml:space="preserve" font-family="AndaleMono" font-size="30.0" fill="#000000" transform="matrix(1.00, 0.00, -0.00, -1.00, 728.2, 206.0)">m</text><text xml:space="preserve" font-family="AndaleMono" font-size="30.0" fill="#000000" transform="matrix(1.00, 0.00, -0.00, -1.00, 746.2, 206.0)">p</text><text xml:space="preserve" font-family="AndaleMono" font-size="30.0" fill="#000000" transform="matrix(1.00, 0.00, -0.00, -1.00, 764.2, 206.0)">o</text><text xml:space="preserve" font-family="AndaleMono" font-size="30.0" fill="#000000" transform="matrix(1.00, 0.00, -0.00, -1.00, 782.2, 206.0)">n</text><text xml:space="preserve" font-family="AndaleMono" font-size="30.0" fill="#000000" transform="matrix(1.00, 0.00, -0.00, -1.00, 800.2, 206.0)">e</text><text xml:space="preserve" font-family="AndaleMono" font-size="30.0" fill="#000000" transform="matrix(1.00, 0.00, -0.00, -1.00, 818.2, 206.0)">n</text><text xml:space="preserve" font-family="AndaleMono" font-size="30.0" fill="#000000" transform="matrix(1.00, 0.00, -0.00, -1.00, 836.2, 206.0)">t</text><text xml:space="preserve" font-family="AndaleMono" font-size="30.0" fill="#000000" transform="matrix(1.00, 0.00, -0.00, -1.00, 854.2, 206.0)">e</text><text xml:space="preserve" font-family="AndaleMono" font-size="30.0" fill="#000000" transform="matrix(1.00, 0.00, -0.00, -1.00, 872.2, 206.0)">s</text><text xml:space="preserve" font-family="AndaleMono" font-size="30.0" fill="#000000" transform="matrix(1.00, 0.00, -0.00, -1.00, 890.3, 206.0)">:</text><text xml:space="preserve" font-family="AndaleMono" font-size="24.0" fill="#000000" transform="matrix(1.00, 0.00, -0.00, -1.00, 135.9, 127.4)">1</text><text xml:space="preserve" font-family="AndaleMono" font-size="24.0" fill="#000000" transform="matrix(1.00, 0.00, -0.00, -1.00, 150.3, 127.4)">.</text><text xml:space="preserve" font-family="AndaleMono" font-size="24.0" fill="#000000" transform="matrix(1.00, 0.00, -0.00, -1.00, 178.0, 127.0)">H</text><text xml:space="preserve" font-family="AndaleMono" font-size="24.0" fill="#000000" transform="matrix(1.00, 0.00, -0.00, -1.00, 192.4, 127.0)">e</text><text xml:space="preserve" font-family="AndaleMono" font-size="24.0" fill="#000000" transform="matrix(1.00, 0.00, -0.00, -1.00, 206.8, 127.0)">r</text><text xml:space="preserve" font-family="AndaleMono" font-size="24.0" fill="#000000" transform="matrix(1.00, 0.00, -0.00, -1.00, 221.2, 127.0)">r</text><text xml:space="preserve" font-family="AndaleMono" font-size="24.0" fill="#000000" transform="matrix(1.00, 0.00, -0.00, -1.00, 235.6, 127.0)">a</text><text xml:space="preserve" font-family="AndaleMono" font-size="24.0" fill="#000000" transform="matrix(1.00, 0.00, -0.00, -1.00, 250.0, 127.0)">m</text><text xml:space="preserve" font-family="AndaleMono" font-size="24.0" fill="#000000" transform="matrix(1.00, 0.00, -0.00, -1.00, 264.4, 127.0)">i</text><text xml:space="preserve" font-family="AndaleMono" font-size="24.0" fill="#000000" transform="matrix(1.00, 0.00, -0.00, -1.00, 278.8, 127.0)">e</text><text xml:space="preserve" font-family="AndaleMono" font-size="24.0" fill="#000000" transform="matrix(1.00, 0.00, -0.00, -1.00, 293.2, 127.0)">n</text><text xml:space="preserve" font-family="AndaleMono" font-size="24.0" fill="#000000" transform="matrix(1.00, 0.00, -0.00, -1.00, 307.6, 127.0)">t</text><text xml:space="preserve" font-family="AndaleMono" font-size="24.0" fill="#000000" transform="matrix(1.00, 0.00, -0.00, -1.00, 322.0, 127.0)">a</text><text xml:space="preserve" font-family="AndaleMono" font-size="24.0" fill="#000000" transform="matrix(1.00, 0.00, -0.00, -1.00, 336.5, 127.0)"> </text><text xml:space="preserve" font-family="AndaleMono" font-size="24.0" fill="#000000" transform="matrix(1.00, 0.00, -0.00, -1.00, 350.9, 127.0)">C</text><text xml:space="preserve" font-family="AndaleMono" font-size="24.0" fill="#000000" transform="matrix(1.00, 0.00, -0.00, -1.00, 365.3, 127.0)">A</text><text xml:space="preserve" font-family="AndaleMono" font-size="24.0" fill="#000000" transform="matrix(1.00, 0.00, -0.00, -1.00, 379.7, 127.0)">S</text><text xml:space="preserve" font-family="AndaleMono" font-size="24.0" fill="#000000" transform="matrix(1.00, 0.00, -0.00, -1.00, 394.1, 127.0)">E</text><text xml:space="preserve" font-family="AndaleMono" font-size="24.0" fill="#000000" transform="matrix(1.00, 0.00, -0.00, -1.00, 408.5, 127.0)"> </text><text xml:space="preserve" font-family="AndaleMono" font-size="24.0" fill="#000000" transform="matrix(1.00, 0.00, -0.00, -1.00, 422.9, 127.0)">F</text><text xml:space="preserve" font-family="AndaleMono" font-size="24.0" fill="#000000" transform="matrix(1.00, 0.00, -0.00, -1.00, 437.3, 127.0)">r</text><text xml:space="preserve" font-family="AndaleMono" font-size="24.0" fill="#000000" transform="matrix(1.00, 0.00, -0.00, -1.00, 451.7, 127.0)">o</text><text xml:space="preserve" font-family="AndaleMono" font-size="24.0" fill="#000000" transform="matrix(1.00, 0.00, -0.00, -1.00, 466.1, 127.0)">n</text><text xml:space="preserve" font-family="AndaleMono" font-size="24.0" fill="#000000" transform="matrix(1.00, 0.00, -0.00, -1.00, 480.5, 127.0)">t</text><text xml:space="preserve" font-family="AndaleMono" font-size="24.0" fill="#000000" transform="matrix(1.00, 0.00, -0.00, -1.00, 494.9, 127.0)"> </text><text xml:space="preserve" font-family="AndaleMono" font-size="24.0" fill="#000000" transform="matrix(1.00, 0.00, -0.00, -1.00, 509.3, 127.0)">-</text><text xml:space="preserve" font-family="AndaleMono" font-size="24.0" fill="#000000" transform="matrix(1.00, 0.00, -0.00, -1.00, 523.7, 127.0)"> </text><text xml:space="preserve" font-family="AndaleMono" font-size="24.0" fill="#000000" transform="matrix(1.00, 0.00, -0.00, -1.00, 538.1, 127.0)">e</text><text xml:space="preserve" font-family="AndaleMono" font-size="24.0" fill="#000000" transform="matrix(1.00, 0.00, -0.00, -1.00, 552.5, 127.0)">n</text><text xml:space="preserve" font-family="AndaleMono" font-size="24.0" fill="#000000" transform="matrix(1.00, 0.00, -0.00, -1.00, 566.9, 127.0)">d</text><text xml:space="preserve" font-family="AndaleMono" font-size="24.0" fill="#000000" transform="matrix(1.00, 0.00, -0.00, -1.00, 581.3, 127.0)"> </text><text xml:space="preserve" font-family="AndaleMono" font-size="24.0" fill="#000000" transform="matrix(1.00, 0.00, -0.00, -1.00, 135.9, 100.4)">2</text><text xml:space="preserve" font-family="AndaleMono" font-size="24.0" fill="#000000" transform="matrix(1.00, 0.00, -0.00, -1.00, 150.3, 100.4)">.</text><text xml:space="preserve" font-family="AndaleMono" font-size="24.0" fill="#000000" transform="matrix(1.00, 0.00, -0.00, -1.00, 178.0, 100.0)">H</text><text xml:space="preserve" font-family="AndaleMono" font-size="24.0" fill="#000000" transform="matrix(1.00, 0.00, -0.00, -1.00, 192.4, 100.0)">e</text><text xml:space="preserve" font-family="AndaleMono" font-size="24.0" fill="#000000" transform="matrix(1.00, 0.00, -0.00, -1.00, 206.8, 100.0)">r</text><text xml:space="preserve" font-family="AndaleMono" font-size="24.0" fill="#000000" transform="matrix(1.00, 0.00, -0.00, -1.00, 221.2, 100.0)">r</text><text xml:space="preserve" font-family="AndaleMono" font-size="24.0" fill="#000000" transform="matrix(1.00, 0.00, -0.00, -1.00, 235.6, 100.0)">a</text><text xml:space="preserve" font-family="AndaleMono" font-size="24.0" fill="#000000" transform="matrix(1.00, 0.00, -0.00, -1.00, 250.0, 100.0)">m</text><text xml:space="preserve" font-family="AndaleMono" font-size="24.0" fill="#000000" transform="matrix(1.00, 0.00, -0.00, -1.00, 264.4, 100.0)">i</text><text xml:space="preserve" font-family="AndaleMono" font-size="24.0" fill="#000000" transform="matrix(1.00, 0.00, -0.00, -1.00, 278.8, 100.0)">e</text><text xml:space="preserve" font-family="AndaleMono" font-size="24.0" fill="#000000" transform="matrix(1.00, 0.00, -0.00, -1.00, 293.2, 100.0)">n</text><text xml:space="preserve" font-family="AndaleMono" font-size="24.0" fill="#000000" transform="matrix(1.00, 0.00, -0.00, -1.00, 307.6, 100.0)">t</text><text xml:space="preserve" font-family="AndaleMono" font-size="24.0" fill="#000000" transform="matrix(1.00, 0.00, -0.00, -1.00, 322.0, 100.0)">a</text><text xml:space="preserve" font-family="AndaleMono" font-size="24.0" fill="#000000" transform="matrix(1.00, 0.00, -0.00, -1.00, 336.5, 100.0)"> </text><text xml:space="preserve" font-family="AndaleMono" font-size="24.0" fill="#000000" transform="matrix(1.00, 0.00, -0.00, -1.00, 350.9, 100.0)">C</text><text xml:space="preserve" font-family="AndaleMono" font-size="24.0" fill="#000000" transform="matrix(1.00, 0.00, -0.00, -1.00, 365.3, 100.0)">a</text><text xml:space="preserve" font-family="AndaleMono" font-size="24.0" fill="#000000" transform="matrix(1.00, 0.00, -0.00, -1.00, 379.7, 100.0)">s</text><text xml:space="preserve" font-family="AndaleMono" font-size="24.0" fill="#000000" transform="matrix(1.00, 0.00, -0.00, -1.00, 394.1, 100.0)">e</text><text xml:space="preserve" font-family="AndaleMono" font-size="24.0" fill="#000000" transform="matrix(1.00, 0.00, -0.00, -1.00, 408.5, 100.0)"> </text><text xml:space="preserve" font-family="AndaleMono" font-size="24.0" fill="#000000" transform="matrix(1.00, 0.00, -0.00, -1.00, 422.9, 100.0)">B</text><text xml:space="preserve" font-family="AndaleMono" font-size="24.0" fill="#000000" transform="matrix(1.00, 0.00, -0.00, -1.00, 437.3, 100.0)">a</text><text xml:space="preserve" font-family="AndaleMono" font-size="24.0" fill="#000000" transform="matrix(1.00, 0.00, -0.00, -1.00, 451.7, 100.0)">c</text><text xml:space="preserve" font-family="AndaleMono" font-size="24.0" fill="#000000" transform="matrix(1.00, 0.00, -0.00, -1.00, 466.1, 100.0)">k</text><text xml:space="preserve" font-family="AndaleMono" font-size="24.0" fill="#000000" transform="matrix(1.00, 0.00, -0.00, -1.00, 480.5, 100.0)"> </text><text xml:space="preserve" font-family="AndaleMono" font-size="24.0" fill="#000000" transform="matrix(1.00, 0.00, -0.00, -1.00, 494.9, 100.0)">-</text><text xml:space="preserve" font-family="AndaleMono" font-size="24.0" fill="#000000" transform="matrix(1.00, 0.00, -0.00, -1.00, 509.3, 100.0)"> </text><text xml:space="preserve" font-family="AndaleMono" font-size="24.0" fill="#000000" transform="matrix(1.00, 0.00, -0.00, -1.00, 523.7, 100.0)">e</text><text xml:space="preserve" font-family="AndaleMono" font-size="24.0" fill="#000000" transform="matrix(1.00, 0.00, -0.00, -1.00, 538.1, 100.0)">n</text><text xml:space="preserve" font-family="AndaleMono" font-size="24.0" fill="#000000" transform="matrix(1.00, 0.00, -0.00, -1.00, 552.5, 100.0)">d</text><text xml:space="preserve" font-family="AndaleMono" font-size="24.0" fill="#000000" transform="matrix(1.00, 0.00, -0.00, -1.00, 566.9, 100.0)"> </text><text xml:space="preserve" font-family="AndaleMono" font-size="24.0" fill="#000000" transform="matrix(1.00, 0.00, -0.00, -1.00, 135.9, 73.4)">3</text><text xml:space="preserve" font-family="AndaleMono" font-size="24.0" fill="#000000" transform="matrix(1.00, 0.00, -0.00, -1.00, 150.3, 73.4)">.</text><text xml:space="preserve" font-family="AndaleMono" font-size="24.0" fill="#000000" transform="matrix(1.00, 0.00, -0.00, -1.00, 178.0, 73.0)">H</text><text xml:space="preserve" font-family="AndaleMono" font-size="24.0" fill="#000000" transform="matrix(1.00, 0.00, -0.00, -1.00, 192.4, 73.0)">e</text><text xml:space="preserve" font-family="AndaleMono" font-size="24.0" fill="#000000" transform="matrix(1.00, 0.00, -0.00, -1.00, 206.8, 73.0)">r</text><text xml:space="preserve" font-family="AndaleMono" font-size="24.0" fill="#000000" transform="matrix(1.00, 0.00, -0.00, -1.00, 221.2, 73.0)">r</text><text xml:space="preserve" font-family="AndaleMono" font-size="24.0" fill="#000000" transform="matrix(1.00, 0.00, -0.00, -1.00, 235.6, 73.0)">a</text><text xml:space="preserve" font-family="AndaleMono" font-size="24.0" fill="#000000" transform="matrix(1.00, 0.00, -0.00, -1.00, 250.0, 73.0)">m</text><text xml:space="preserve" font-family="AndaleMono" font-size="24.0" fill="#000000" transform="matrix(1.00, 0.00, -0.00, -1.00, 264.4, 73.0)">i</text><text xml:space="preserve" font-family="AndaleMono" font-size="24.0" fill="#000000" transform="matrix(1.00, 0.00, -0.00, -1.00, 278.8, 73.0)">e</text><text xml:space="preserve" font-family="AndaleMono" font-size="24.0" fill="#000000" transform="matrix(1.00, 0.00, -0.00, -1.00, 293.2, 73.0)">n</text><text xml:space="preserve" font-family="AndaleMono" font-size="24.0" fill="#000000" transform="matrix(1.00, 0.00, -0.00, -1.00, 307.6, 73.0)">t</text><text xml:space="preserve" font-family="AndaleMono" font-size="24.0" fill="#000000" transform="matrix(1.00, 0.00, -0.00, -1.00, 322.0, 73.0)">a</text><text xml:space="preserve" font-family="AndaleMono" font-size="24.0" fill="#000000" transform="matrix(1.00, 0.00, -0.00, -1.00, 336.5, 73.0)">s</text><text xml:space="preserve" font-family="AndaleMono" font-size="24.0" fill="#000000" transform="matrix(1.00, 0.00, -0.00, -1.00, 350.9, 73.0)"> </text><text xml:space="preserve" font-family="AndaleMono" font-size="24.0" fill="#000000" transform="matrix(1.00, 0.00, -0.00, -1.00, 365.3, 73.0)">C</text><text xml:space="preserve" font-family="AndaleMono" font-size="24.0" fill="#000000" transform="matrix(1.00, 0.00, -0.00, -1.00, 379.7, 73.0)">A</text><text xml:space="preserve" font-family="AndaleMono" font-size="24.0" fill="#000000" transform="matrix(1.00, 0.00, -0.00, -1.00, 394.1, 73.0)">S</text><text xml:space="preserve" font-family="AndaleMono" font-size="24.0" fill="#000000" transform="matrix(1.00, 0.00, -0.00, -1.00, 408.5, 73.0)">E</text><text xml:space="preserve" font-family="AndaleMono" font-size="24.0" fill="#000000" transform="matrix(1.00, 0.00, -0.00, -1.00, 422.9, 73.0)"> </text><text xml:space="preserve" font-family="AndaleMono" font-size="24.0" fill="#000000" transform="matrix(1.00, 0.00, -0.00, -1.00, 437.3, 73.0)">d</text><text xml:space="preserve" font-family="AndaleMono" font-size="24.0" fill="#000000" transform="matrix(1.00, 0.00, -0.00, -1.00, 451.7, 73.0)">e</text><text xml:space="preserve" font-family="AndaleMono" font-size="24.0" fill="#000000" transform="matrix(1.00, 0.00, -0.00, -1.00, 466.1, 73.0)"> </text><text xml:space="preserve" font-family="AndaleMono" font-size="24.0" fill="#000000" transform="matrix(1.00, 0.00, -0.00, -1.00, 480.5, 73.0)">C</text><text xml:space="preserve" font-family="AndaleMono" font-size="24.0" fill="#000000" transform="matrix(1.00, 0.00, -0.00, -1.00, 494.9, 73.0)">i</text><text xml:space="preserve" font-family="AndaleMono" font-size="24.0" fill="#000000" transform="matrix(1.00, 0.00, -0.00, -1.00, 509.3, 73.0)">c</text><text xml:space="preserve" font-family="AndaleMono" font-size="24.0" fill="#000000" transform="matrix(1.00, 0.00, -0.00, -1.00, 523.7, 73.0)">l</text><text xml:space="preserve" font-family="AndaleMono" font-size="24.0" fill="#000000" transform="matrix(1.00, 0.00, -0.00, -1.00, 538.1, 73.0)">o</text><text xml:space="preserve" font-family="AndaleMono" font-size="24.0" fill="#000000" transform="matrix(1.00, 0.00, -0.00, -1.00, 552.5, 73.0)"> </text><text xml:space="preserve" font-family="AndaleMono" font-size="24.0" fill="#000000" transform="matrix(1.00, 0.00, -0.00, -1.00, 566.9, 73.0)">d</text><text xml:space="preserve" font-family="AndaleMono" font-size="24.0" fill="#000000" transform="matrix(1.00, 0.00, -0.00, -1.00, 581.3, 73.0)">e</text><text xml:space="preserve" font-family="AndaleMono" font-size="24.0" fill="#000000" transform="matrix(1.00, 0.00, -0.00, -1.00, 595.7, 73.0)"> </text><text xml:space="preserve" font-family="AndaleMono" font-size="24.0" fill="#000000" transform="matrix(1.00, 0.00, -0.00, -1.00, 610.1, 73.0)">v</text><text xml:space="preserve" font-family="AndaleMono" font-size="24.0" fill="#000000" transform="matrix(1.00, 0.00, -0.00, -1.00, 624.5, 73.0)">i</text><text xml:space="preserve" font-family="AndaleMono" font-size="24.0" fill="#000000" transform="matrix(1.00, 0.00, -0.00, -1.00, 639.0, 73.0)">d</text><text xml:space="preserve" font-family="AndaleMono" font-size="24.0" fill="#000000" transform="matrix(1.00, 0.00, -0.00, -1.00, 653.4, 73.0)">a</text><text xml:space="preserve" font-family="AndaleMono" font-size="24.0" fill="#000000" transform="matrix(1.00, 0.00, -0.00, -1.00, 667.8, 73.0)"> </text><text xml:space="preserve" font-family="AndaleMono" font-size="24.0" fill="#000000" transform="matrix(1.00, 0.00, -0.00, -1.00, 682.2, 73.0)">c</text><text xml:space="preserve" font-family="AndaleMono" font-size="24.0" fill="#000000" transform="matrix(1.00, 0.00, -0.00, -1.00, 696.6, 73.0)">r</text><text xml:space="preserve" font-family="AndaleMono" font-size="24.0" fill="#000000" transform="matrix(1.00, 0.00, -0.00, -1.00, 711.0, 73.0)">u</text><text xml:space="preserve" font-family="AndaleMono" font-size="24.0" fill="#000000" transform="matrix(1.00, 0.00, -0.00, -1.00, 725.4, 73.0)">z</text><text xml:space="preserve" font-family="AndaleMono" font-size="24.0" fill="#000000" transform="matrix(1.00, 0.00, -0.00, -1.00, 739.8, 73.0)">a</text><text xml:space="preserve" font-family="AndaleMono" font-size="24.0" fill="#000000" transform="matrix(1.00, 0.00, -0.00, -1.00, 754.2, 73.0)">d</text><text xml:space="preserve" font-family="AndaleMono" font-size="24.0" fill="#000000" transform="matrix(1.00, 0.00, -0.00, -1.00, 768.6, 73.0)">o</text><text xml:space="preserve" font-family="AndaleMono" font-size="33.0" fill="#000000" transform="matrix(1.00, 0.00, -0.00, -1.00, 367.0, 706.0)">D</text><text xml:space="preserve" font-family="AndaleMono" font-size="33.0" fill="#000000" transform="matrix(1.00, 0.00, -0.00, -1.00, 386.8, 706.0)">i</text><text xml:space="preserve" font-family="AndaleMono" font-size="33.0" fill="#000000" transform="matrix(1.00, 0.00, -0.00, -1.00, 406.6, 706.0)">s</text><text xml:space="preserve" font-family="AndaleMono" font-size="33.0" fill="#000000" transform="matrix(1.00, 0.00, -0.00, -1.00, 426.4, 706.0)">e</text><text xml:space="preserve" font-family="AndaleMono" font-size="33.0" fill="#000000" transform="matrix(1.00, 0.00, -0.00, -1.00, 446.2, 706.0)">ñ</text><text xml:space="preserve" font-family="AndaleMono" font-size="33.0" fill="#000000" transform="matrix(1.00, 0.00, -0.00, -1.00, 466.0, 706.0)">o</text><text xml:space="preserve" font-family="AndaleMono" font-size="33.0" fill="#000000" transform="matrix(1.00, 0.00, -0.00, -1.00, 485.8, 706.0)"> </text><text xml:space="preserve" font-family="AndaleMono" font-size="33.0" fill="#000000" transform="matrix(1.00, 0.00, -0.00, -1.00, 505.6, 706.0)">d</text><text xml:space="preserve" font-family="AndaleMono" font-size="33.0" fill="#000000" transform="matrix(1.00, 0.00, -0.00, -1.00, 525.5, 706.0)">e</text><text xml:space="preserve" font-family="AndaleMono" font-size="33.0" fill="#000000" transform="matrix(1.00, 0.00, -0.00, -1.00, 545.3, 706.0)"> </text><text xml:space="preserve" font-family="AndaleMono" font-size="33.0" fill="#000000" transform="matrix(1.00, 0.00, -0.00, -1.00, 565.1, 706.0)">b</text><text xml:space="preserve" font-family="AndaleMono" font-size="33.0" fill="#000000" transform="matrix(1.00, 0.00, -0.00, -1.00, 584.9, 706.0)">a</text><text xml:space="preserve" font-family="AndaleMono" font-size="33.0" fill="#000000" transform="matrix(1.00, 0.00, -0.00, -1.00, 604.7, 706.0)">s</text><text xml:space="preserve" font-family="AndaleMono" font-size="33.0" fill="#000000" transform="matrix(1.00, 0.00, -0.00, -1.00, 624.5, 706.0)">e</text><text xml:space="preserve" font-family="AndaleMono" font-size="33.0" fill="#000000" transform="matrix(1.00, 0.00, -0.00, -1.00, 644.3, 706.0)">s</text><text xml:space="preserve" font-family="AndaleMono" font-size="33.0" fill="#000000" transform="matrix(1.00, 0.00, -0.00, -1.00, 664.1, 706.0)"> </text><text xml:space="preserve" font-family="AndaleMono" font-size="33.0" fill="#000000" transform="matrix(1.00, 0.00, -0.00, -1.00, 683.9, 706.0)">d</text><text xml:space="preserve" font-family="AndaleMono" font-size="33.0" fill="#000000" transform="matrix(1.00, 0.00, -0.00, -1.00, 703.7, 706.0)">e</text><text xml:space="preserve" font-family="AndaleMono" font-size="33.0" fill="#000000" transform="matrix(1.00, 0.00, -0.00, -1.00, 723.5, 706.0)"> </text><text xml:space="preserve" font-family="AndaleMono" font-size="33.0" fill="#000000" transform="matrix(1.00, 0.00, -0.00, -1.00, 496.0, 669.0)">d</text><text xml:space="preserve" font-family="AndaleMono" font-size="33.0" fill="#000000" transform="matrix(1.00, 0.00, -0.00, -1.00, 515.8, 669.0)">a</text><text xml:space="preserve" font-family="AndaleMono" font-size="33.0" fill="#000000" transform="matrix(1.00, 0.00, -0.00, -1.00, 535.6, 669.0)">t</text><text xml:space="preserve" font-family="AndaleMono" font-size="33.0" fill="#000000" transform="matrix(1.00, 0.00, -0.00, -1.00, 555.4, 669.0)">o</text><text xml:space="preserve" font-family="AndaleMono" font-size="33.0" fill="#000000" transform="matrix(1.00, 0.00, -0.00, -1.00, 575.2, 669.0)">s</text><text xml:space="preserve" font-family="AndaleMono" font-size="33.0" fill="#000000" transform="matrix(1.00, 0.00, -0.00, -1.00, 595.0, 669.0)"> </text><text xml:space="preserve" font-family="AndaleMono" font-size="33.0" fill="#000000" transform="matrix(1.00, 0.00, -0.00, -1.00, 614.8, 669.0)"> </text></g></svg>